<svg width="590" height="512" viewBox="0 0 590 512" fill="none" xmlns="http://www.w3.org/2000/svg">
<path d="M513.255 471.252C517.727 469.087 522.754 468.454 527.6 469.446C530.206 469.901 532.927 470.746 534.703 472.721C536.478 474.696 536.806 478.295 534.765 480.024C533.454 480.941 531.872 481.355 530.295 481.193C526.516 481.193 522.297 480.466 519.262 482.818C517.537 484.117 516.378 486.391 514.313 487.054C513.278 487.303 512.193 487.197 511.222 486.752C510.251 486.306 509.448 485.545 508.935 484.585C507.95 482.621 507.734 480.341 508.331 478.217C508.573 476.743 509.144 475.346 509.999 474.137C510.853 472.929 511.968 471.941 513.255 471.252Z" fill="#EBEBEB"/>
<path d="M503.242 451.331C505.912 455.229 511.101 453.93 513.507 451.552C515.912 449.174 516.932 445.678 517.864 442.351C519.98 434.776 522.108 426.758 520.534 419.091C520.156 416.748 519.158 414.558 517.65 412.763C516.889 411.878 515.916 411.215 514.828 410.841C513.741 410.467 512.577 410.395 511.454 410.631C508.834 411.346 507.21 413.997 506.038 416.505C502.576 423.935 500.76 432.067 500.724 440.311C500.724 444.145 501.152 448.108 503.242 451.331Z" fill="#EBEBEB"/>
<path d="M495.913 456.97C497.288 455.122 498.203 452.956 498.581 450.659C498.958 448.363 498.786 446.006 498.08 443.794C496.614 439.378 494 435.462 490.523 432.475C486.575 428.843 481.976 426.044 476.985 424.237C475.051 423.431 472.972 423.063 470.889 423.158C469.85 423.223 468.841 423.548 467.95 424.105C467.059 424.662 466.313 425.434 465.776 426.355C464.353 429.162 465.776 432.566 467.199 435.334C469.812 440.226 472.789 444.9 476.103 449.317C478.773 452.864 481.821 456.36 485.889 457.958C489.956 459.556 494.175 459.374 496.329 456.464" fill="#EBEBEB"/>
<path d="M503.067 510.678C503.204 510.094 503.284 509.498 503.306 508.897C503.432 507.598 503.583 505.961 503.772 504.011C504.002 501.607 504.355 499.217 504.83 496.851C505.452 493.972 506.294 491.147 507.349 488.405C508.384 485.666 509.792 483.093 511.53 480.764C512.945 478.866 514.752 477.316 516.819 476.229C518.22 475.517 519.72 475.035 521.265 474.799C521.848 474.778 522.426 474.69 522.99 474.54C522.408 474.478 521.822 474.478 521.24 474.54C519.628 474.685 518.055 475.125 516.593 475.839C514.421 476.903 512.517 478.468 511.026 480.413C509.211 482.773 507.75 485.401 506.694 488.21C505.611 490.991 504.768 493.866 504.175 496.799C503.722 499.19 503.415 501.607 503.256 504.038C503.105 506.117 503.042 507.793 503.016 508.949C502.973 509.526 502.99 510.105 503.067 510.678Z" fill="#E0E0E0"/>
<path d="M503.393 506.91C503.426 506.633 503.426 506.354 503.393 506.078V503.713C503.393 501.647 503.393 498.671 503.494 494.993C503.67 487.638 504.287 479.712 505.471 468.549C506.592 458.05 508.103 445.835 509.69 437.895C510.03 436.089 510.383 434.464 510.698 433.035C511.013 431.605 511.277 430.436 511.529 429.383C511.781 428.331 511.919 427.681 512.07 427.07C512.148 426.808 512.194 426.538 512.209 426.265C512.082 426.505 511.988 426.763 511.932 427.031C511.756 427.629 511.529 428.331 511.264 429.305C511 430.28 510.66 431.514 510.307 432.944C509.955 434.373 509.577 435.985 509.199 437.778C507.229 447.175 505.75 456.675 504.766 466.236C503.507 477.425 503.041 487.613 502.99 494.981C502.99 498.671 502.99 501.66 503.116 503.713C503.116 504.688 503.217 505.467 503.255 506.091C503.265 506.369 503.312 506.644 503.393 506.91Z" fill="#E0E0E0"/>
<path d="M503.444 487.274C503.507 486.452 503.507 485.627 503.444 484.805C503.356 483.207 503.142 480.907 502.714 478.087C502.185 474.787 501.478 471.52 500.598 468.302C499.563 464.344 498.236 460.473 496.631 456.723C493.856 449.814 489.888 443.482 484.918 438.037C484.059 437.11 483.142 436.242 482.173 435.438C481.757 435.061 481.379 434.697 481.002 434.412L479.944 433.658C479.301 433.171 478.623 432.737 477.916 432.358C480.248 434.247 482.46 436.287 484.54 438.466C489.32 443.966 493.153 450.268 495.875 457.1C497.447 460.825 498.777 464.654 499.855 468.562C500.768 471.751 501.52 474.986 502.109 478.256C502.613 481.049 502.89 483.324 503.066 484.896C503.135 485.697 503.261 486.492 503.444 487.274Z" fill="#E0E0E0"/>
<path d="M537.297 101.293L468.937 122.514C467.342 123.003 465.624 122.822 464.158 122.008C462.693 121.195 461.599 119.816 461.116 118.174L433.409 23.1305C432.934 21.4849 433.111 19.7124 433.899 18.2003C434.687 16.6883 436.023 15.5596 437.615 15.0608L485.472 0.233887L519.816 18.6733L541.553 93.2238C542.026 94.8763 541.843 96.6548 541.045 98.1682C540.246 99.6815 538.898 100.806 537.297 101.293Z" fill="#E0E0E0"/>
<path d="M485.347 0L490.863 18.8943C491.186 20.0046 491.718 21.0383 492.428 21.9364C493.138 22.8345 494.013 23.5794 495.003 24.1285C495.992 24.6776 497.077 25.0201 498.195 25.1365C499.312 25.2529 500.442 25.1409 501.517 24.8068L519.766 18.6863L485.347 0Z" fill="#EBEBEB"/>
<path d="M521.567 85.7125C521.546 85.6331 521.521 85.5549 521.491 85.4786L521.277 84.8419C521.101 84.2441 520.849 83.4125 520.522 82.3469C519.867 80.1378 518.91 76.9671 517.7 72.9388C515.308 64.8431 511.895 53.3168 507.802 39.5035L508.154 39.6984L461.556 54.2134C461.556 54.3044 461.972 53.4208 461.783 53.7976V53.8756V53.9795L461.846 54.1744L461.959 54.5643L462.186 55.357L462.652 56.9293L463.559 60.074L465.36 66.2465L468.836 78.2016C471.09 85.9984 473.219 93.3274 475.133 100.085L474.78 99.8897L508.519 89.5719L518.066 86.6871L520.585 85.9334L521.239 85.7515C521.319 85.7398 521.399 85.7398 521.479 85.7515L521.29 85.8295L520.66 86.0374L518.204 86.8301L508.847 89.7799L475.007 100.435L474.73 100.526L474.642 100.241C472.664 93.4833 470.523 86.1544 468.244 78.3835C467.11 74.5025 465.943 70.5174 464.743 66.4284L462.942 60.256L462.035 57.1112L461.569 55.5389L461.342 54.7462L461.229 54.3564L461.166 54.1614V54.0575V53.9795C460.965 54.3564 461.431 53.4597 461.38 53.5507L507.978 39.1266L508.255 39.0356L508.331 39.3215C512.335 53.2518 515.66 64.8561 518.003 73.0167C519.149 77.0321 520.043 80.2028 520.673 82.4119L521.353 84.8679L521.516 85.4916C521.567 85.6475 521.579 85.7125 521.567 85.7125Z" fill="white"/>
<path d="M497.966 93.6788C497.789 93.6788 494.628 83.413 490.913 70.6393C487.198 57.8655 484.301 47.4438 484.477 47.3918C484.654 47.3398 487.802 57.6576 491.53 70.4444C495.258 83.2311 498.142 93.5749 497.966 93.6788Z" fill="white"/>
<path d="M518.091 74.4204C518.091 74.5893 507.701 77.9939 494.78 82.0093C481.858 86.0246 471.317 89.1304 471.267 88.9485C471.216 88.7665 481.657 85.3749 494.591 81.3596C507.525 77.3442 518.028 74.1865 518.091 74.4204Z" fill="white"/>
<path d="M515.144 62.4914C515.144 62.6734 504.754 66.065 491.833 70.0803C478.911 74.0957 468.383 77.2014 468.32 77.0195C468.257 76.8376 478.71 73.4459 491.644 69.4306C504.578 65.4152 515.144 62.2705 515.144 62.4914Z" fill="white"/>
<path d="M511.367 50.7962C511.367 50.9781 501.065 54.3437 488.232 58.3331C475.398 62.3224 464.958 65.4022 464.907 65.2203C464.857 65.0383 475.209 61.6597 488.043 57.6833C500.876 53.707 511.367 50.5753 511.367 50.7962Z" fill="white"/>
<path d="M37.8318 199.079L2.56859 192.582C1.7517 192.424 1.02847 191.939 0.556628 191.233C0.0847814 190.527 -0.09741 189.657 0.0497869 188.813L8.55073 139.862C8.625 139.444 8.77841 139.045 9.00219 138.688C9.22597 138.331 9.51573 138.023 9.85491 137.782C10.1941 137.541 10.576 137.371 10.9789 137.282C11.3818 137.193 11.7978 137.186 12.203 137.263L36.8494 141.76L48.184 158.042L41.5092 196.441C41.4379 196.865 41.2859 197.269 41.0619 197.632C40.8379 197.994 40.5464 198.307 40.2044 198.553C39.8623 198.798 39.4765 198.971 39.0692 199.061C38.6619 199.152 38.2413 199.158 37.8318 199.079Z" fill="#E0E0E0"/>
<path d="M36.8616 141.655L35.174 151.388C35.065 151.964 35.0685 152.557 35.1842 153.132C35.3 153.707 35.5257 154.253 35.8482 154.737C36.1706 155.221 36.5834 155.634 37.0623 155.951C37.5412 156.269 38.0767 156.484 38.6373 156.586L48.1458 158.119L36.8616 141.655Z" fill="#EBEBEB"/>
<path d="M34.2169 188.423C34.2047 188.267 34.2047 188.111 34.2169 187.955L34.4058 186.656C34.5947 185.46 34.8592 183.823 35.1867 181.77C35.8793 177.546 36.8617 171.634 38.0329 164.552L38.2596 164.89L14.2806 160.471L14.6585 160.212V160.29V160.394V160.601L14.5829 161.004L14.4444 161.81C14.3436 162.356 14.2555 162.888 14.1673 163.421C13.9784 164.5 13.7895 165.565 13.6006 166.605C13.2353 168.71 12.8827 170.763 12.5301 172.764C11.8248 176.767 11.1573 180.561 10.5402 184.018L10.3135 183.68L27.6051 187.033L32.5041 188.02L33.7635 188.293L34.2295 188.41H33.8139L32.5545 188.215L27.6932 187.383L10.1246 184.278H9.83496V183.979C10.4395 180.496 11.0944 176.715 11.7618 172.712C12.1145 170.711 12.4671 168.658 12.8323 166.553C13.0086 165.5 13.1976 164.448 13.3739 163.369C13.4746 162.837 13.5628 162.304 13.6635 161.758L13.8021 160.952L13.865 160.536V160.342V160.238V160.16L14.2429 159.887L38.2596 164.383H38.5367V164.669C37.2773 171.803 36.1438 177.767 35.3756 182.017C34.9978 184.031 34.6829 185.642 34.4688 186.812C34.3681 187.318 34.2799 187.721 34.2169 188.111C34.2265 188.215 34.2265 188.319 34.2169 188.423Z" fill="white"/>
<path d="M21.9258 186.448C22.2934 182.424 22.8778 178.424 23.6763 174.467C24.263 170.47 25.0618 166.509 26.0692 162.603C25.7016 166.627 25.1172 170.627 24.3186 174.584C23.7394 178.582 22.9405 182.543 21.9258 186.448Z" fill="white"/>
<path d="M35.1371 182.563C31.0679 182.161 27.0233 181.527 23.0217 180.665C18.9824 180.024 14.98 179.157 11.0322 178.066C15.1005 178.476 19.1448 179.109 23.1476 179.964C27.1856 180.612 31.1876 181.48 35.1371 182.563Z" fill="white"/>
<path d="M36.472 176.545C32.4045 176.129 28.3606 175.496 24.3566 174.648C20.3139 174.003 16.3075 173.135 12.3545 172.049C16.423 172.457 20.4674 173.09 24.4699 173.947C28.5139 174.584 32.5207 175.452 36.472 176.545Z" fill="white"/>
<path d="M37.3407 170.425C33.306 170.026 29.2952 169.401 25.326 168.554C21.3139 167.9 17.3373 167.033 13.4121 165.955C17.452 166.346 21.4674 166.971 25.4394 167.826C29.4488 168.472 33.4217 169.339 37.3407 170.425Z" fill="white"/>
<path d="M568.833 510.509C568.833 510.691 444.983 510.847 292.243 510.847C139.503 510.847 15.6289 510.691 15.6289 510.509C15.6289 510.327 139.453 510.171 292.243 510.171C445.034 510.171 568.833 510.327 568.833 510.509Z" fill="#263238"/>
<path d="M166.026 80.2543L117.174 97.6672C116.035 98.0733 114.787 97.9962 113.703 97.4528C112.619 96.9094 111.788 95.9443 111.394 94.7694L88.7245 26.8592C88.3324 25.6923 88.4021 24.4129 88.9184 23.2987C89.4348 22.1845 90.3562 21.3253 91.4826 20.9076L125.638 8.74463L151.014 21.0376L168.848 74.3158C169.236 75.4893 169.157 76.774 168.628 77.8876C168.099 79.0012 167.164 79.8525 166.026 80.2543Z" fill="#FF725E"/>
<path d="M125.587 8.56299L130.108 22.0515C130.643 23.6535 131.773 24.9709 133.249 25.714C134.725 26.4572 136.426 26.5654 137.979 26.0148L151.014 21.0249L125.587 8.56299Z" fill="#FF725E"/>
<g opacity="0.2">
<path d="M125.588 8.5625L130.109 22.051C130.644 23.653 131.774 24.9704 133.25 25.7135C134.726 26.4567 136.427 26.5649 137.98 26.0143L151.015 21.0244L125.588 8.5625Z" fill="black"/>
</g>
<path d="M154.213 69.4559C154.116 69.2539 154.032 69.0455 153.961 68.8322C153.81 68.3904 153.596 67.7926 153.332 67.0519L151.014 60.3337C149.024 54.5251 146.229 46.3254 142.866 36.4755L143.231 36.6574L109.933 48.5735C109.933 48.6775 110.311 47.7678 110.134 48.1577V48.3006L110.222 48.5865L110.411 49.1453L110.789 50.2758L111.545 52.5109C112.036 54.0053 112.527 55.4737 113.018 56.9291C113.988 59.8399 114.945 62.6987 115.864 65.4796C117.716 71.0283 119.466 76.2781 121.066 81.0732L120.713 80.8913L144.881 72.6266L151.732 70.2876L153.558 69.6638L154.213 69.4689C154.027 69.5676 153.833 69.6502 153.634 69.7158L151.883 70.3656L145.171 72.8865L120.952 81.606L120.688 81.7099L120.6 81.424C118.975 76.603 117.199 71.3662 115.336 65.8304L112.489 57.2929C111.998 55.8375 111.507 54.3561 111.016 52.8747L110.26 50.6396L109.882 49.5091L109.693 48.9503L109.605 48.6645V48.5215C109.429 48.8984 109.857 47.9887 109.819 48.0797L143.143 36.2545L143.42 36.1636L143.508 36.4365C146.77 46.3904 149.503 54.629 151.43 60.5546L153.596 67.2598C153.823 68.0005 154.012 68.5593 154.15 69.0141C154.289 69.4689 154.226 69.4689 154.213 69.4559Z" fill="white"/>
<path d="M137.325 75.901C137.161 75.966 134.541 68.611 131.481 59.4757C128.421 50.3404 126.078 42.8945 126.254 42.8295C126.431 42.7646 129.038 50.1195 132.098 59.2548C135.158 68.3901 137.539 75.836 137.325 75.901Z" fill="white"/>
<path d="M151.367 61.399C151.367 61.568 143.987 64.3878 134.756 67.6755C125.524 70.9631 117.98 73.4971 117.917 73.3151C117.854 73.1332 125.297 70.3264 134.541 67.0387C143.785 63.7511 151.317 61.1911 151.367 61.399Z" fill="white"/>
<path d="M148.924 52.8359C148.924 53.0048 141.544 55.8247 132.312 59.1123C123.081 62.4 115.537 64.9339 115.474 64.752C115.411 64.5701 122.854 61.7632 132.098 58.4756C141.342 55.1879 148.873 52.6539 148.924 52.8359Z" fill="white"/>
<path d="M145.851 44.4931C145.851 44.662 138.521 47.4558 129.365 50.7175C120.209 53.9792 112.716 56.5001 112.653 56.3182C112.59 56.1363 119.982 53.3554 129.151 50.0808C138.319 46.8061 145.788 44.2981 145.851 44.4931Z" fill="white"/>
<path d="M512.538 383.667L486.934 397.584C486.639 397.748 486.315 397.85 485.981 397.883C485.647 397.917 485.31 397.881 484.99 397.778C484.67 397.675 484.373 397.507 484.116 397.284C483.86 397.061 483.649 396.788 483.496 396.479L465.323 360.887C465.163 360.583 465.064 360.25 465.031 359.906C464.998 359.562 465.031 359.214 465.13 358.884C465.228 358.554 465.39 358.247 465.605 357.982C465.819 357.716 466.083 357.498 466.381 357.339L484.29 347.606L499.402 352.194L513.659 380.119C513.816 380.427 513.912 380.764 513.941 381.111C513.97 381.458 513.93 381.807 513.826 382.138C513.721 382.468 513.553 382.774 513.332 383.037C513.111 383.3 512.841 383.514 512.538 383.667Z" fill="#455A64"/>
<path d="M484.251 347.516L487.865 354.585C488.076 355.002 488.365 355.372 488.715 355.673C489.065 355.975 489.469 356.202 489.905 356.342C490.34 356.482 490.798 356.532 491.252 356.489C491.706 356.446 492.147 356.311 492.55 356.092L499.351 352.194L484.251 347.516Z" fill="#E0E0E0"/>
<path d="M505.069 378.717C504.805 378.299 504.565 377.865 504.351 377.417L502.475 373.909L495.964 361.473L496.354 361.603L478.899 371.141L479.038 370.686V370.764L479.113 370.907L479.264 371.206L479.567 371.791L480.158 372.973L481.342 375.286L483.622 379.769L487.778 387.969L487.387 387.852L499.981 381.147L503.608 379.276C504.452 378.834 504.868 378.613 504.943 378.613C504.57 378.88 504.179 379.119 503.772 379.328L500.284 381.316L487.601 388.372L487.362 388.515L487.224 388.255C485.964 385.721 484.503 382.979 483.017 380.068C482.262 378.613 481.506 377.119 480.713 375.598L479.529 373.285L478.937 372.116L478.635 371.518L478.483 371.232L478.408 371.076V370.998C478.282 371.401 478.572 370.439 478.546 370.543L496.039 361.083L496.291 360.953L496.417 361.213C499.012 366.411 501.178 370.79 502.714 373.935C503.42 375.403 503.974 376.534 504.427 377.456C504.668 377.862 504.882 378.283 505.069 378.717Z" fill="white"/>
<path d="M496.316 383.759C494.548 381.041 492.97 378.197 491.594 375.247C490.018 372.41 488.637 369.461 487.463 366.424C489.215 369.149 490.789 371.993 492.173 374.935C493.738 377.781 495.122 380.728 496.316 383.759Z" fill="white"/>
<path d="M502.866 374.505C500.107 376.391 497.229 378.084 494.252 379.573C491.374 381.257 488.396 382.75 485.335 384.043C488.092 382.155 490.97 380.462 493.949 378.975C496.823 377.284 499.802 375.791 502.866 374.505Z" fill="white"/>
<path d="M500.813 369.984C498.05 371.859 495.173 373.548 492.199 375.039C489.326 376.748 486.348 378.258 483.282 379.561C488.913 375.986 494.77 372.803 500.813 370.036V369.984Z" fill="white"/>
<path d="M498.42 365.63C492.831 369.184 487.016 372.345 481.015 375.09C486.607 371.542 492.421 368.382 498.42 365.63Z" fill="white"/>
<path d="M558.418 90.1826H70.8916V362.941H558.418V90.1826Z" fill="#F5F5F5"/>
<path d="M558.418 90.1826H70.8916V113.157H558.418V90.1826Z" fill="#263238"/>
<path d="M82.428 104.827C83.9513 104.827 85.1861 103.553 85.1861 101.982C85.1861 100.41 83.9513 99.1357 82.428 99.1357C80.9048 99.1357 79.6699 100.41 79.6699 101.982C79.6699 103.553 80.9048 104.827 82.428 104.827Z" fill="#FAFAFA"/>
<path d="M92.4661 104.827C93.9893 104.827 95.2242 103.553 95.2242 101.982C95.2242 100.41 93.9893 99.1357 92.4661 99.1357C90.9428 99.1357 89.708 100.41 89.708 101.982C89.708 103.553 90.9428 104.827 92.4661 104.827Z" fill="#FAFAFA"/>
<path d="M102.503 104.827C104.026 104.827 105.261 103.553 105.261 101.982C105.261 100.41 104.026 99.1357 102.503 99.1357C100.98 99.1357 99.7451 100.41 99.7451 101.982C99.7451 103.553 100.98 104.827 102.503 104.827Z" fill="#FAFAFA"/>
<path d="M87.8945 152.635H70.1621V362.928H87.8945V152.635Z" fill="#455A64"/>
<path d="M70.1621 144.539V162.835L558.204 162.835V144.539L70.1621 144.539Z" fill="#455A64"/>
<path d="M87.8939 351.22C87.7175 351.22 87.5664 304.959 87.5664 247.886C87.5664 190.814 87.7175 144.54 87.8939 144.54C88.0702 144.54 88.2213 190.801 88.2213 247.886C88.2213 304.972 88.0828 351.22 87.8939 351.22Z" fill="#E0E0E0"/>
<path d="M157.615 362.928C157.438 362.928 157.287 314.042 157.287 253.773C157.287 193.504 157.438 144.618 157.615 144.618C157.791 144.618 157.942 193.504 157.942 253.773C157.942 314.042 157.791 362.928 157.615 362.928Z" fill="#E0E0E0"/>
<path d="M231.566 362.927C231.389 362.927 231.238 314.197 231.238 254.097C231.238 193.997 231.389 145.267 231.566 145.267C231.742 145.267 231.893 193.984 231.893 254.097C231.893 314.21 231.78 362.927 231.566 362.927Z" fill="#E0E0E0"/>
<path d="M303.78 362.927C303.591 362.927 303.452 314.197 303.452 254.097C303.452 193.997 303.591 145.267 303.78 145.267C303.969 145.267 304.107 193.984 304.107 254.097C304.107 314.21 303.956 362.927 303.78 362.927Z" fill="#E0E0E0"/>
<path d="M377.682 362.928C377.506 362.928 377.354 314.042 377.354 253.773C377.354 193.504 377.506 144.618 377.682 144.618C377.858 144.618 378.009 193.504 378.009 253.773C378.009 314.042 377.871 362.928 377.682 362.928Z" fill="#E0E0E0"/>
<path d="M451.596 362.928C451.407 362.928 451.269 314.042 451.269 253.773C451.269 193.504 451.407 144.618 451.596 144.618C451.785 144.618 451.923 193.504 451.923 253.773C451.923 314.042 451.772 362.928 451.596 362.928Z" fill="#E0E0E0"/>
<path d="M525.497 362.927C525.321 362.927 525.17 314.197 525.17 254.097C525.17 193.997 525.321 145.267 525.497 145.267C525.674 145.267 525.825 193.984 525.825 254.097C525.825 314.21 525.686 362.927 525.497 362.927Z" fill="#E0E0E0"/>
<path d="M555.509 179.534C555.509 179.716 446.86 179.872 312.86 179.872C178.86 179.872 70.1738 179.716 70.1738 179.534C70.1738 179.353 178.81 179.184 312.86 179.184C446.911 179.184 555.509 179.34 555.509 179.534Z" fill="#E0E0E0"/>
<path d="M555.509 162.835C555.509 163.03 446.86 163.173 312.86 163.173C178.86 163.173 70.1738 163.03 70.1738 162.835C70.1738 162.64 178.81 162.498 312.86 162.498C446.911 162.498 555.509 162.653 555.509 162.835Z" fill="#E0E0E0"/>
<path d="M555.509 197.103C555.509 197.297 446.86 197.44 312.86 197.44C178.86 197.44 70.1738 197.297 70.1738 197.103C70.1738 196.908 178.81 196.765 312.86 196.765C446.911 196.765 555.509 196.921 555.509 197.103Z" fill="#E0E0E0"/>
<path d="M555.509 214.685C555.509 214.866 446.86 215.022 312.86 215.022C178.86 215.022 70.1738 214.866 70.1738 214.685C70.1738 214.503 178.81 214.347 312.86 214.347C446.911 214.347 555.509 214.529 555.509 214.685Z" fill="#E0E0E0"/>
<path d="M555.509 232.267C555.509 232.448 446.86 232.604 312.86 232.604C178.86 232.604 70.1738 232.448 70.1738 232.267C70.1738 232.085 178.81 231.929 312.86 231.929C446.911 231.929 555.509 232.072 555.509 232.267Z" fill="#E0E0E0"/>
<path d="M555.509 249.835C555.509 250.03 446.86 250.173 312.86 250.173C178.86 250.173 70.1738 250.03 70.1738 249.835C70.1738 249.64 178.81 249.498 312.86 249.498C446.911 249.498 555.509 249.615 555.509 249.835Z" fill="#E0E0E0"/>
<path d="M555.509 267.416C555.509 267.598 446.86 267.754 312.86 267.754C178.86 267.754 70.1738 267.598 70.1738 267.416C70.1738 267.235 178.81 267.079 312.86 267.079C446.911 267.079 555.509 267.235 555.509 267.416Z" fill="#E0E0E0"/>
<path d="M555.509 284.999C555.509 285.181 446.86 285.337 312.86 285.337C178.86 285.337 70.1738 285.181 70.1738 284.999C70.1738 284.817 178.81 284.661 312.86 284.661C446.911 284.661 555.509 284.804 555.509 284.999Z" fill="#E0E0E0"/>
<path d="M555.509 302.567C555.509 302.762 446.86 302.918 312.86 302.918C178.86 302.918 70.1738 302.762 70.1738 302.567C70.1738 302.372 178.81 302.229 312.86 302.229C446.911 302.229 555.509 302.385 555.509 302.567Z" fill="#E0E0E0"/>
<path d="M555.509 320.149C555.509 320.344 446.86 320.487 312.86 320.487C178.86 320.487 70.1738 320.344 70.1738 320.149C70.1738 319.954 178.81 319.812 312.86 319.812C446.911 319.812 555.509 319.967 555.509 320.149Z" fill="#E0E0E0"/>
<path d="M555.509 337.73C555.509 337.912 446.86 338.068 312.86 338.068C178.86 338.068 70.1738 337.912 70.1738 337.73C70.1738 337.549 178.81 337.393 312.86 337.393C446.911 337.393 555.509 337.549 555.509 337.73Z" fill="#E0E0E0"/>
<path d="M555.509 355.312C555.509 355.494 446.86 355.65 312.86 355.65C178.86 355.65 70.1738 355.494 70.1738 355.312C70.1738 355.131 178.81 354.975 312.86 354.975C446.911 354.975 555.509 355.118 555.509 355.312Z" fill="#E0E0E0"/>
<path d="M558.191 162.835H87.8936V197.102H558.191V162.835Z" fill="#FF725E"/>
<path d="M458.145 177.585C458.145 177.767 402.807 177.923 334.548 177.923C266.288 177.923 210.95 177.767 210.95 177.585C210.95 177.403 266.276 177.247 334.548 177.247C402.82 177.247 458.145 177.39 458.145 177.585Z" fill="#FAFAFA"/>
<path d="M481.557 187.344C481.557 187.526 412.353 187.682 327.003 187.682C241.654 187.682 172.425 187.526 172.425 187.344C172.425 187.162 241.616 187.006 327.003 187.006C412.391 187.006 481.557 187.149 481.557 187.344Z" fill="#FAFAFA"/>
<path d="M303.78 214.685H157.614V232.266H303.78V214.685Z" fill="#FF725E"/>
<path d="M303.78 230.317H157.614V304.503H303.78V230.317Z" fill="#EBEBEB"/>
<path d="M219.45 240.271C219.45 240.466 207.385 240.609 192.512 240.609C177.638 240.609 165.573 240.466 165.573 240.271C165.573 240.077 177.638 239.934 192.512 239.934C207.385 239.934 219.45 240.09 219.45 240.271Z" fill="#263238"/>
<path d="M197.94 259.568C197.94 259.763 190.686 259.906 181.757 259.906C172.827 259.906 165.573 259.763 165.573 259.568C165.573 259.373 172.815 259.23 181.757 259.23C190.698 259.23 197.94 259.386 197.94 259.568Z" fill="#263238"/>
<path d="M224.652 273.629C224.652 273.811 211.428 273.967 195.119 273.967C178.81 273.967 165.573 273.811 165.573 273.629C165.573 273.447 178.797 273.291 195.119 273.291C211.441 273.291 224.652 273.434 224.652 273.629Z" fill="#263238"/>
<path d="M197.94 245.52C197.94 245.702 190.686 245.858 181.757 245.858C172.827 245.858 165.573 245.702 165.573 245.52C165.573 245.339 172.815 245.183 181.757 245.183C190.698 245.183 197.94 245.326 197.94 245.52Z" fill="#263238"/>
<path d="M298.352 240.271C295.502 240.613 292.63 240.726 289.763 240.609C286.896 240.726 284.024 240.613 281.174 240.271C284.025 239.936 286.896 239.824 289.763 239.933C292.63 239.824 295.501 239.936 298.352 240.271Z" fill="#263238"/>
<path d="M298.352 256.112C295.501 256.446 292.63 256.559 289.763 256.45C286.896 256.559 284.025 256.446 281.174 256.112C284.024 255.769 286.896 255.657 289.763 255.774C292.63 255.657 295.502 255.769 298.352 256.112Z" fill="#263238"/>
<path d="M298.352 273.628C295.501 273.963 292.63 274.076 289.763 273.966C286.896 274.076 284.025 273.963 281.174 273.628C284.024 273.286 286.896 273.173 289.763 273.29C292.63 273.173 295.502 273.286 298.352 273.628Z" fill="#263238"/>
<path d="M297.407 295.096C297.407 295.278 291.325 295.434 283.819 295.434C276.313 295.434 270.242 295.278 270.242 295.096C270.242 294.914 276.313 294.758 283.819 294.758C291.325 294.758 297.407 294.914 297.407 295.096Z" fill="#263238"/>
<path d="M231.566 303.217C231.389 303.217 231.238 287.182 231.238 267.417C231.238 247.652 231.389 231.617 231.566 231.617C231.742 231.617 231.893 247.639 231.893 267.417C231.893 287.195 231.78 303.217 231.566 303.217Z" fill="#E0E0E0"/>
<path d="M302.559 283.4C302.559 283.582 286.401 283.738 266.465 283.738C246.528 283.738 230.383 283.582 230.383 283.4C230.383 283.218 246.528 283.062 266.465 283.062C286.401 283.062 302.559 283.244 302.559 283.4Z" fill="#E0E0E0"/>
<path d="M303.78 337.082H157.614V355.314H303.78V337.082Z" fill="#F5F5F5"/>
<path d="M303.78 320.149H157.375V337.731H303.78V320.149Z" fill="#FF725E"/>
<path d="M225.886 347.074C225.886 347.269 212.096 347.412 195.094 347.412C178.092 347.412 164.302 347.269 164.302 347.074C164.302 346.879 178.08 346.736 195.094 346.736C212.109 346.736 225.886 346.905 225.886 347.074Z" fill="#263238"/>
<path d="M297.407 346.191C297.407 346.373 291.325 346.529 283.819 346.529C276.313 346.529 270.242 346.373 270.242 346.191C270.242 346.009 276.313 345.854 283.819 345.854C291.325 345.854 297.407 346.009 297.407 346.191Z" fill="#263238"/>
<path d="M393.89 275.577H381.246V319.837H393.89V275.577Z" fill="#FF725E"/>
<path d="M470.713 283.608H458.068V319.838H470.713V283.608Z" fill="#FF725E"/>
<path d="M521.933 293.731H509.289V319.838H521.933V293.731Z" fill="#263238"/>
<path d="M419.507 248.432H406.862V319.838H419.507V248.432Z" fill="#455A64"/>
<path d="M445.109 248.432H432.465V319.838H445.109V248.432Z" fill="#263238"/>
<path d="M496.317 231.941H483.673V319.837H496.317V231.941Z" fill="#455A64"/>
<path d="M95.2359 121.188H84.0146V132.766H95.2359V121.188Z" fill="#FF725E"/>
<path d="M101.76 137.86H89.292V124.982H101.76V137.86ZM90.5514 136.561H100.501V126.282H90.5514V136.561Z" fill="#FF725E"/>
<path d="M128.674 124.254H118.195V135.066H128.674V124.254Z" fill="#E0E0E0"/>
<path d="M145.701 124.254H135.223V135.066H145.701V124.254Z" fill="#E0E0E0"/>
<path d="M162.727 124.254H152.249V135.066H162.727V124.254Z" fill="#E0E0E0"/>
<path d="M179.767 124.254H169.289V135.066H179.767V124.254Z" fill="#E0E0E0"/>
<path d="M196.794 124.254H186.315V135.066H196.794V124.254Z" fill="#E0E0E0"/>
<path d="M323.137 124.151H212.386V135.183H323.137V124.151Z" fill="#E0E0E0"/>
<path d="M449.09 124.151H338.339V135.183H449.09V124.151Z" fill="#E0E0E0"/>
<path d="M558.203 124.151H462.716V135.183H558.203V124.151Z" fill="#E0E0E0"/>
<path d="M558.418 362.928C558.418 360.875 558.317 257.957 558.166 90.1826L558.418 90.4295L70.9298 90.5204L71.2572 90.1826C71.2572 186.551 71.2572 278.813 71.2572 362.928L70.955 362.616L558.481 362.928L70.955 363.253H70.5771V362.928C70.5771 278.813 70.5771 186.551 70.5771 90.1826V89.8447H70.9424L558.431 89.9227H558.683V90.1826C558.506 257.957 558.418 360.888 558.418 362.928Z" fill="#263238"/>
<path d="M525.938 68.144H38.4121V340.902H525.938V68.144Z" fill="#F5F5F5"/>
<path d="M525.938 68.144H38.4121V91.1186H525.938V68.144Z" fill="#263238"/>
<path d="M49.9612 82.7888C51.4845 82.7888 52.7193 81.5147 52.7193 79.943C52.7193 78.3713 51.4845 77.0972 49.9612 77.0972C48.438 77.0972 47.2031 78.3713 47.2031 79.943C47.2031 81.5147 48.438 82.7888 49.9612 82.7888Z" fill="#FAFAFA"/>
<path d="M59.9983 82.7888C61.5216 82.7888 62.7564 81.5147 62.7564 79.943C62.7564 78.3713 61.5216 77.0972 59.9983 77.0972C58.4751 77.0972 57.2402 78.3713 57.2402 79.943C57.2402 81.5147 58.4751 82.7888 59.9983 82.7888Z" fill="#FAFAFA"/>
<path d="M70.0354 82.7888C71.5587 82.7888 72.7935 81.5147 72.7935 79.943C72.7935 78.3713 71.5587 77.0972 70.0354 77.0972C68.5122 77.0972 67.2773 78.3713 67.2773 79.943C67.2773 81.5147 68.5122 82.7888 70.0354 82.7888Z" fill="#FAFAFA"/>
<path d="M55.4267 130.596H37.6943V340.889H55.4267V130.596Z" fill="#455A64"/>
<path d="M37.6816 122.5V140.797L525.724 140.797V122.5L37.6816 122.5Z" fill="#455A64"/>
<path d="M55.4642 329.18C55.2878 329.18 55.1367 282.906 55.1367 225.847C55.1367 168.787 55.2878 122.5 55.4642 122.5C55.6405 122.5 55.7916 168.761 55.7916 225.847C55.7916 282.932 55.6027 329.18 55.4642 329.18Z" fill="#E0E0E0"/>
<path d="M125.147 340.889C124.97 340.889 124.819 292.003 124.819 231.733C124.819 171.464 124.97 122.578 125.147 122.578C125.323 122.578 125.474 171.464 125.474 231.733C125.474 292.003 125.323 340.889 125.147 340.889Z" fill="#E0E0E0"/>
<path d="M199.099 340.889C198.923 340.889 198.771 292.159 198.771 232.058C198.771 171.958 198.923 123.228 199.099 123.228C199.275 123.228 199.426 171.945 199.426 232.058C199.426 292.172 199.288 340.889 199.099 340.889Z" fill="#E0E0E0"/>
<path d="M271.313 340.889C271.124 340.889 270.985 292.159 270.985 232.058C270.985 171.958 271.124 123.228 271.313 123.228C271.502 123.228 271.64 171.945 271.64 232.058C271.64 292.172 271.489 340.889 271.313 340.889Z" fill="#E0E0E0"/>
<path d="M345.214 340.889C345.038 340.889 344.887 292.003 344.887 231.733C344.887 171.464 345.038 122.578 345.214 122.578C345.39 122.578 345.542 171.464 345.542 231.733C345.542 292.003 345.39 340.889 345.214 340.889Z" fill="#E0E0E0"/>
<path d="M419.129 340.889C418.94 340.889 418.789 292.003 418.789 231.733C418.789 171.464 418.94 122.578 419.129 122.578C419.318 122.578 419.457 171.464 419.457 231.733C419.457 292.003 419.305 340.889 419.129 340.889Z" fill="#E0E0E0"/>
<path d="M493.031 340.889C492.854 340.889 492.703 292.159 492.703 232.058C492.703 171.958 492.854 123.228 493.031 123.228C493.207 123.228 493.358 171.945 493.358 232.058C493.358 292.172 493.207 340.889 493.031 340.889Z" fill="#E0E0E0"/>
<path d="M523.041 157.482C523.041 157.677 414.392 157.833 280.392 157.833C146.392 157.833 37.7061 157.677 37.7061 157.482C37.7061 157.287 146.342 157.144 280.392 157.144C414.443 157.144 523.041 157.352 523.041 157.482Z" fill="#E0E0E0"/>
<path d="M523.041 140.797C523.041 140.992 414.392 141.135 280.392 141.135C146.392 141.135 37.7061 140.992 37.7061 140.797C37.7061 140.602 146.342 140.459 280.392 140.459C414.443 140.459 523.041 140.615 523.041 140.797Z" fill="#E0E0E0"/>
<path d="M523.041 175.064C523.041 175.259 414.392 175.402 280.392 175.402C146.392 175.402 37.7061 175.259 37.7061 175.064C37.7061 174.869 146.342 174.726 280.392 174.726C414.443 174.726 523.041 174.882 523.041 175.064Z" fill="#E0E0E0"/>
<path d="M523.041 192.646C523.041 192.828 414.392 192.984 280.392 192.984C146.392 192.984 37.7061 192.828 37.7061 192.646C37.7061 192.464 146.342 192.308 280.392 192.308C414.443 192.308 523.041 192.438 523.041 192.646Z" fill="#E0E0E0"/>
<path d="M523.041 210.227C523.041 210.409 414.392 210.565 280.392 210.565C146.392 210.565 37.7061 210.409 37.7061 210.227C37.7061 210.045 146.342 209.889 280.392 209.889C414.443 209.889 523.041 210.032 523.041 210.227Z" fill="#E0E0E0"/>
<path d="M523.041 227.797C523.041 227.992 414.392 228.135 280.392 228.135C146.392 228.135 37.7061 227.992 37.7061 227.797C37.7061 227.602 146.342 227.459 280.392 227.459C414.443 227.459 523.041 227.615 523.041 227.797Z" fill="#E0E0E0"/>
<path d="M523.041 245.378C523.041 245.56 414.392 245.716 280.392 245.716C146.392 245.716 37.7061 245.56 37.7061 245.378C37.7061 245.196 146.342 245.04 280.392 245.04C414.443 245.04 523.041 245.196 523.041 245.378Z" fill="#E0E0E0"/>
<path d="M523.041 262.96C523.041 263.142 414.392 263.298 280.392 263.298C146.392 263.298 37.7061 263.142 37.7061 262.96C37.7061 262.778 146.342 262.622 280.392 262.622C414.443 262.622 523.041 262.765 523.041 262.96Z" fill="#E0E0E0"/>
<path d="M523.041 280.529C523.041 280.724 414.392 280.88 280.392 280.88C146.392 280.88 37.7061 280.724 37.7061 280.529C37.7061 280.334 146.342 280.191 280.392 280.191C414.443 280.191 523.041 280.347 523.041 280.529Z" fill="#E0E0E0"/>
<path d="M523.041 298.111C523.041 298.306 414.392 298.449 280.392 298.449C146.392 298.449 37.7061 298.306 37.7061 298.111C37.7061 297.916 146.342 297.773 280.392 297.773C414.443 297.773 523.041 297.929 523.041 298.111Z" fill="#E0E0E0"/>
<path d="M523.041 315.692C523.041 315.874 414.392 316.03 280.392 316.03C146.392 316.03 37.7061 315.887 37.7061 315.692C37.7061 315.497 146.342 315.354 280.392 315.354C414.443 315.354 523.041 315.51 523.041 315.692Z" fill="#E0E0E0"/>
<path d="M523.041 333.274C523.041 333.456 414.392 333.612 280.392 333.612C146.392 333.612 37.7061 333.456 37.7061 333.274C37.7061 333.092 146.342 332.937 280.392 332.937C414.443 332.937 523.041 333.079 523.041 333.274Z" fill="#E0E0E0"/>
<path d="M525.724 140.797H55.4268V175.064H525.724V140.797Z" fill="#FF725E"/>
<path d="M425.728 155.546C425.728 155.728 370.377 155.884 302.131 155.884C233.884 155.884 178.533 155.728 178.533 155.546C178.533 155.364 233.859 155.195 302.131 155.195C370.403 155.195 425.728 155.351 425.728 155.546Z" fill="#FAFAFA"/>
<path d="M449.09 165.305C449.09 165.487 379.886 165.643 294.524 165.643C209.162 165.643 139.958 165.487 139.958 165.305C139.958 165.123 209.149 164.967 294.524 164.967C379.899 164.967 449.09 165.149 449.09 165.305Z" fill="#FAFAFA"/>
<path d="M271.313 192.646H125.147V210.228H271.313V192.646Z" fill="#FF725E"/>
<path d="M271.313 208.278H125.147V282.465H271.313V208.278Z" fill="#EBEBEB"/>
<path d="M186.983 218.232C186.983 218.427 174.918 218.57 160.044 218.57C145.171 218.57 133.105 218.427 133.105 218.232C133.105 218.037 145.171 217.895 160.044 217.895C174.918 217.895 186.983 218.05 186.983 218.232Z" fill="#263238"/>
<path d="M165.459 237.529C165.459 237.711 158.218 237.867 149.289 237.867C140.36 237.867 133.105 237.711 133.105 237.529C133.105 237.347 140.347 237.191 149.289 237.191C158.23 237.191 165.459 237.347 165.459 237.529Z" fill="#263238"/>
<path d="M192.184 251.589C192.184 251.771 178.96 251.927 162.651 251.927C146.342 251.927 133.105 251.771 133.105 251.589C133.105 251.407 146.329 251.251 162.651 251.251C178.973 251.251 192.184 251.394 192.184 251.589Z" fill="#263238"/>
<path d="M165.459 223.483C165.459 223.665 158.218 223.821 149.289 223.821C140.36 223.821 133.105 223.665 133.105 223.483C133.105 223.301 140.347 223.132 149.289 223.132C158.23 223.132 165.459 223.288 165.459 223.483Z" fill="#263238"/>
<path d="M265.885 218.232C263.035 218.574 260.163 218.687 257.296 218.57C254.425 218.687 251.549 218.574 248.694 218.232C251.549 217.898 254.425 217.785 257.296 217.894C260.163 217.785 263.034 217.898 265.885 218.232Z" fill="#263238"/>
<path d="M265.885 234.021C263.034 234.355 260.163 234.468 257.296 234.359C254.425 234.468 251.549 234.355 248.694 234.021C251.549 233.679 254.425 233.566 257.296 233.683C260.163 233.566 263.035 233.679 265.885 234.021Z" fill="#263238"/>
<path d="M265.885 251.59C263.034 251.923 260.163 252.036 257.296 251.927C254.425 252.037 251.549 251.924 248.694 251.59C251.549 251.248 254.425 251.135 257.296 251.252C260.163 251.135 263.035 251.248 265.885 251.59Z" fill="#263238"/>
<path d="M264.94 273.069C264.94 273.251 258.857 273.407 251.351 273.407C243.845 273.407 237.762 273.251 237.762 273.069C237.762 272.887 243.845 272.731 251.351 272.731C258.857 272.731 264.94 272.874 264.94 273.069Z" fill="#263238"/>
<path d="M199.099 281.179C198.923 281.179 198.771 265.143 198.771 245.378C198.771 225.614 198.923 209.578 199.099 209.578C199.275 209.578 199.426 225.601 199.426 245.378C199.426 265.156 199.288 281.179 199.099 281.179Z" fill="#E0E0E0"/>
<path d="M270.091 261.4C270.091 261.582 253.92 261.738 233.997 261.738C214.073 261.738 197.902 261.582 197.902 261.4C197.902 261.218 214.06 261.062 233.997 261.062C253.933 261.062 270.091 261.205 270.091 261.4Z" fill="#E0E0E0"/>
<path d="M271.313 315.043H125.147V333.274H271.313V315.043Z" fill="#F5F5F5"/>
<path d="M271.313 298.11H124.908V315.692H271.313V298.11Z" fill="#FF725E"/>
<path d="M193.419 325.049C193.419 325.244 179.629 325.387 162.627 325.387C145.625 325.387 131.822 325.244 131.822 325.049C131.822 324.854 145.676 324.711 162.627 324.711C179.579 324.711 193.419 324.867 193.419 325.049Z" fill="#263238"/>
<path d="M264.94 324.151C264.94 324.333 258.857 324.489 251.351 324.489C243.845 324.489 237.762 324.333 237.762 324.151C237.762 323.969 243.845 323.813 251.351 323.813C258.857 323.813 264.94 323.969 264.94 324.151Z" fill="#263238"/>
<path d="M361.423 253.539H348.778V297.798H361.423V253.539Z" fill="#FF725E"/>
<path d="M438.246 261.57H425.602V297.799H438.246V261.57Z" fill="#FF725E"/>
<path d="M489.453 271.692H476.809V297.799H489.453V271.692Z" fill="#263238"/>
<path d="M387.026 226.393H374.382V297.799H387.026V226.393Z" fill="#455A64"/>
<path d="M412.642 226.393H399.998V297.799H412.642V226.393Z" fill="#263238"/>
<path d="M463.849 209.902H451.205V297.798H463.849V209.902Z" fill="#455A64"/>
<path d="M62.7554 99.1494H51.5342V110.728H62.7554V99.1494Z" fill="#FF725E"/>
<path d="M69.3177 115.77H56.8496V102.905H69.3177V115.77ZM58.109 114.47H68.0583V104.204H58.109V114.47Z" fill="#FF725E"/>
<path d="M96.193 102.216H85.7148V113.027H96.193V102.216Z" fill="#E0E0E0"/>
<path d="M113.233 102.216H102.755V113.027H113.233V102.216Z" fill="#E0E0E0"/>
<path d="M130.26 102.216H119.782V113.027H130.26V102.216Z" fill="#E0E0E0"/>
<path d="M147.299 102.216H136.821V113.027H147.299V102.216Z" fill="#E0E0E0"/>
<path d="M164.327 102.216H153.849V113.027H164.327V102.216Z" fill="#E0E0E0"/>
<path d="M290.67 102.112H179.918V113.145H290.67V102.112Z" fill="#E0E0E0"/>
<path d="M416.622 102.112H305.87V113.145H416.622V102.112Z" fill="#E0E0E0"/>
<path d="M525.724 102.112H430.236V113.145H525.724V102.112Z" fill="#E0E0E0"/>
<path d="M525.951 340.889C525.951 338.836 525.85 235.918 525.699 68.1438L525.951 68.3907L38.4498 68.4817L38.7773 68.1438C38.7773 164.512 38.7773 256.775 38.7773 340.889L38.4624 340.577L526.001 340.889L38.4624 341.214H38.1602V340.889C38.1602 256.775 38.1602 164.512 38.1602 68.1438V67.793H38.5254L526.026 67.8839H526.266V68.1438C526.039 235.918 525.951 338.836 525.951 340.889Z" fill="#263238"/>
<path d="M294.85 369.945L328.854 407.383L379.709 391.789L388.663 412.243C388.663 412.243 329.648 434.932 324.484 432.84C319.32 430.747 288.264 403.589 288.264 403.589L294.85 369.945Z" fill="#FF725E"/>
<path d="M315.405 393.855C314.674 394.817 313.87 395.717 312.999 396.545C311.488 398.17 309.435 400.444 307.282 403.043C303.755 407.331 301.123 411.229 300.217 412.412L299.7 413.088L300.053 412.321C300.217 411.957 300.317 411.788 300.343 411.801C300.368 411.814 300.343 412.009 300.229 412.386L300.065 412.295C302.02 408.865 304.266 405.62 306.778 402.601C308.626 400.346 310.593 398.198 312.672 396.169C313.501 395.3 314.417 394.525 315.405 393.855Z" fill="#FAFAFA"/>
<path d="M312.671 389.464C311.81 390.455 310.889 391.388 309.913 392.258C308.2 393.947 305.896 396.351 303.528 399.197C301.16 402.043 299.208 404.746 297.848 406.76C297.17 407.887 296.417 408.964 295.594 409.982C296.09 408.751 296.715 407.578 297.458 406.487C299.139 403.757 301.004 401.152 303.037 398.69C305.068 396.245 307.265 393.953 309.611 391.829C310.546 390.93 311.572 390.137 312.671 389.464Z" fill="#FAFAFA"/>
<path d="M384.96 502.231L384.116 498.164L362.14 502.647L363.601 511.51L364.986 511.367C371.132 510.717 396.181 507.624 400.06 505.688C404.38 503.518 384.96 502.231 384.96 502.231Z" fill="#FF725E"/>
<g opacity="0.5">
<path d="M371.573 510.015C371.009 508.11 369.785 506.487 368.135 505.454C367.303 504.914 366.363 504.575 365.386 504.462C364.409 504.35 363.42 504.467 362.493 504.804L363.576 511.171L371.573 510.015Z" fill="white"/>
</g>
<g opacity="0.5">
<path d="M394.495 503.207C394.495 503.207 401.371 504.078 400.729 505.338C400.086 506.599 374.873 510.692 363.602 511.511V510.991L392.983 506.456C392.983 506.456 393.223 503.467 394.495 503.207Z" fill="white"/>
</g>
<path d="M363.211 511.028H363.601L364.697 510.912L368.74 510.444C372.14 510.015 376.85 509.352 382.014 508.52C387.177 507.689 391.862 506.818 395.237 506.142L399.217 505.311L400.3 505.064C400.43 505.048 400.558 505.013 400.678 504.96H400.288L399.205 505.155L395.2 505.896C391.825 506.519 387.152 507.351 381.976 508.196C376.8 509.04 372.115 509.716 368.715 510.197L364.684 510.756L363.589 510.912L363.211 511.028Z" fill="#263238"/>
<path d="M393.045 506.805C393.122 506.093 393.27 505.392 393.486 504.712C393.791 504.065 394.172 503.459 394.62 502.906C394.007 503.317 393.53 503.909 393.249 504.604C392.968 505.3 392.897 506.067 393.045 506.805Z" fill="#263238"/>
<path d="M386.006 504.467C386.081 504.467 386.333 504.051 386.573 503.48C386.756 503.14 386.864 502.763 386.887 502.375C386.812 502.375 386.56 502.791 386.321 503.363C386.137 503.702 386.029 504.079 386.006 504.467Z" fill="#263238"/>
<path d="M384.067 503.778C384.13 503.778 384.445 503.531 384.772 503.115C385.1 502.699 385.314 502.323 385.251 502.271C385.188 502.219 384.885 502.517 384.558 502.933C384.231 503.349 384.017 503.726 384.067 503.778Z" fill="#263238"/>
<path d="M382.618 501.816C383.402 501.882 384.191 501.762 384.923 501.465C384.139 501.399 383.35 501.519 382.618 501.816Z" fill="#263238"/>
<path d="M381.988 500.412C382.41 500.609 382.88 500.667 383.336 500.581C383.784 500.583 384.222 500.448 384.595 500.191C383.714 500.274 382.832 500.347 381.95 500.412H381.988Z" fill="#263238"/>
<path d="M386.459 502.348C386.939 502.36 387.417 502.281 387.87 502.114C388.373 501.96 388.862 501.76 389.331 501.516C389.62 501.386 389.892 501.216 390.137 501.01C390.214 500.949 390.278 500.873 390.325 500.786C390.373 500.698 390.403 500.602 390.414 500.503C390.42 500.391 390.395 500.28 390.342 500.183C390.288 500.086 390.208 500.008 390.111 499.957C389.529 499.77 388.902 499.797 388.337 500.034C387.772 500.271 387.304 500.703 387.013 501.257C386.843 501.583 386.736 501.941 386.698 502.309C386.672 502.442 386.672 502.579 386.698 502.712C386.781 502.257 386.934 501.818 387.152 501.413C387.416 500.974 387.796 500.622 388.248 500.399C388.507 500.258 388.791 500.172 389.082 500.145C389.374 500.119 389.668 500.152 389.948 500.243C390.2 500.386 390.162 500.672 389.948 500.867C389.716 501.051 389.467 501.212 389.205 501.348C388.75 501.591 388.279 501.8 387.794 501.971C386.988 502.218 386.447 502.309 386.459 502.348Z" fill="#263238"/>
<path d="M386.837 502.361C386.95 502.024 386.95 501.658 386.837 501.321C386.742 500.943 386.55 500.598 386.283 500.321C386.137 500.124 385.945 499.969 385.724 499.871C385.504 499.773 385.262 499.736 385.024 499.762C384.884 499.815 384.77 499.922 384.707 500.061C384.643 500.199 384.635 500.358 384.684 500.503C384.753 500.733 384.869 500.946 385.024 501.126C385.26 501.417 385.53 501.674 385.83 501.893C386.093 502.12 386.403 502.28 386.737 502.361C386.737 502.361 386.409 502.14 385.956 501.737C385.682 501.51 385.436 501.248 385.225 500.958C384.973 500.685 384.759 500.152 385.112 500.022C385.465 499.892 385.88 500.243 386.132 500.49C386.378 500.744 386.567 501.05 386.686 501.386C386.765 501.706 386.816 502.032 386.837 502.361Z" fill="#263238"/>
<path d="M362.757 504.726C362.757 504.726 363.374 504.558 364.394 504.519C365.713 504.463 367.021 504.787 368.172 505.454C369.319 506.139 370.26 507.138 370.893 508.339C371.384 509.249 371.51 509.911 371.56 509.885C371.561 509.73 371.536 509.576 371.484 509.431C371.382 509.018 371.239 508.617 371.056 508.235C370.456 506.962 369.495 505.907 368.301 505.211C367.107 504.515 365.735 504.21 364.369 504.337C363.942 504.369 363.52 504.447 363.109 504.571C362.984 504.6 362.864 504.653 362.757 504.726Z" fill="#263238"/>
<path d="M374.017 507.339C375.112 507.429 376.213 507.363 377.291 507.144C378.382 507.024 379.453 506.758 380.477 506.352C380.477 506.274 379.029 506.599 377.253 506.871C375.478 507.144 374.017 507.261 374.017 507.339Z" fill="#263238"/>
<path d="M369.684 508.04C369.684 508.105 369.847 508.339 370.049 508.651C370.25 508.962 370.376 509.261 370.452 509.248C370.527 509.235 370.515 508.858 370.276 508.495C370.036 508.131 369.721 507.975 369.684 508.04Z" fill="#263238"/>
<path d="M367.795 506.209C367.795 506.274 367.933 506.495 368.198 506.689C368.462 506.884 368.714 507.001 368.752 506.949C368.79 506.897 368.626 506.663 368.362 506.469C368.097 506.274 367.795 506.157 367.795 506.209Z" fill="#263238"/>
<path d="M365.276 505.61C365.276 505.688 365.604 505.61 365.944 505.701C366.284 505.792 366.548 505.909 366.599 505.844C366.649 505.779 366.41 505.493 365.994 505.428C365.579 505.363 365.276 505.61 365.276 505.61Z" fill="#263238"/>
<path d="M363.526 505.454C363.526 505.532 363.652 505.623 363.854 505.675C364.055 505.727 364.219 505.675 364.232 505.61C364.244 505.545 364.106 505.441 363.904 505.402C363.703 505.363 363.539 505.376 363.526 505.454Z" fill="#263238"/>
<path d="M255.91 475.046L331.474 401.509C333.795 399.076 336.563 397.145 339.617 395.831C342.671 394.516 345.948 393.845 349.257 393.856H350.756C356.647 394.253 362.232 396.702 366.598 400.803C370.964 404.904 373.85 410.413 374.785 416.427L390.464 497.423L358.979 506.519L347.645 440.948L310.329 475.748L255.91 475.046Z" fill="#263238"/>
<path d="M232.019 482.74C231.692 483.675 229.601 510.652 262.245 510.652H349.572C360.617 510.652 369.584 501.972 369.584 491.264C369.584 480.544 360.617 471.863 349.572 471.863H268.303C265.403 471.859 262.535 472.474 259.877 473.67L232.019 482.74Z" fill="#263238"/>
<path d="M357.33 471.824C357.33 472.019 339.295 472.188 317.029 472.188C294.763 472.188 276.729 472.019 276.729 471.824C276.729 471.629 294.763 471.46 317.029 471.46C339.295 471.46 357.33 471.668 357.33 471.824Z" fill="#455A64"/>
<path d="M345.339 423.809C345.541 423.809 345.554 427.707 346.234 432.437C346.914 437.167 347.984 440.897 347.783 440.975C345.639 435.54 344.8 429.65 345.339 423.809Z" fill="#455A64"/>
<path d="M349.043 423.25C349.504 429.163 349.031 435.114 347.645 440.871C347.443 440.871 347.972 436.972 348.375 432.06C348.778 427.148 348.904 423.25 349.043 423.25Z" fill="#455A64"/>
<path d="M355.276 509.885C357.581 508.93 359.73 507.615 361.649 505.987C363.683 504.187 365.337 501.975 366.51 499.49C367.91 496.44 368.522 493.069 368.286 489.704C368.05 486.338 366.974 483.093 365.163 480.284C363.654 478.006 361.708 476.074 359.445 474.605C357.321 473.297 355.014 472.333 352.606 471.746C352.778 471.72 352.952 471.72 353.123 471.746C353.62 471.8 354.112 471.891 354.596 472.019C356.37 472.47 358.068 473.193 359.634 474.163C362.002 475.611 364.041 477.565 365.616 479.894C367.518 482.781 368.648 486.135 368.891 489.617C369.134 493.098 368.483 496.585 367.001 499.724C365.773 502.26 364.034 504.497 361.901 506.286C360.465 507.484 358.865 508.456 357.153 509.171C356.692 509.359 356.221 509.52 355.742 509.651C355.596 509.747 355.44 509.825 355.276 509.885Z" fill="#455A64"/>
<path d="M282.849 300.424L282.144 304.322L271.174 362.733C269.915 369.516 274.537 376.053 281.59 377.404C288.705 378.704 295.594 374.338 296.992 367.502C298.466 360.342 300.128 352.818 300.128 352.818C300.128 352.818 309.397 353.208 313.679 341.552C315.808 335.756 317.457 325.854 318.616 317.72C318.865 315.976 318.767 314.198 318.328 312.494C317.89 310.79 317.12 309.196 316.065 307.809C315.011 306.422 313.694 305.271 312.195 304.426C310.695 303.581 309.045 303.059 307.344 302.893L282.849 300.424Z" fill="#FFBE9D"/>
<path d="M315.58 324.503C315.548 324.707 315.478 324.903 315.372 325.078C315.267 325.254 315.129 325.407 314.966 325.527C314.804 325.648 314.62 325.734 314.425 325.782C314.23 325.829 314.027 325.836 313.83 325.803C313.637 325.775 313.451 325.709 313.283 325.607C313.114 325.506 312.968 325.37 312.85 325.21C312.733 325.049 312.648 324.866 312.6 324.671C312.552 324.476 312.542 324.273 312.57 324.074C312.638 323.661 312.862 323.293 313.192 323.049C313.523 322.806 313.933 322.707 314.334 322.775C314.526 322.802 314.712 322.868 314.879 322.97C315.047 323.072 315.193 323.207 315.309 323.368C315.425 323.529 315.509 323.713 315.556 323.908C315.602 324.102 315.611 324.305 315.58 324.503Z" fill="#263238"/>
<path d="M315.517 322.385C315.291 322.554 314.333 321.436 312.721 321.086C311.109 320.735 309.762 321.332 309.623 321.086C309.485 320.839 309.812 320.657 310.417 320.371C311.213 320.029 312.091 319.943 312.936 320.124C313.778 320.305 314.542 320.761 315.114 321.423C315.53 321.93 315.631 322.385 315.517 322.385Z" fill="#263238"/>
<path d="M299.473 320.721C299.405 321.134 299.181 321.503 298.851 321.746C298.52 321.99 298.11 322.089 297.709 322.021C297.516 321.997 297.329 321.933 297.161 321.833C296.992 321.733 296.844 321.599 296.726 321.439C296.609 321.279 296.524 321.096 296.476 320.901C296.429 320.707 296.42 320.504 296.45 320.306C296.482 320.102 296.553 319.906 296.658 319.73C296.764 319.555 296.902 319.402 297.064 319.281C297.227 319.161 297.411 319.074 297.606 319.027C297.801 318.98 298.003 318.973 298.201 319.006C298.589 319.061 298.941 319.272 299.179 319.593C299.417 319.915 299.523 320.32 299.473 320.721Z" fill="#263238"/>
<path d="M299.612 319.319C299.385 319.475 298.353 318.37 296.803 318.019C295.254 317.669 293.844 318.253 293.718 318.019C293.592 317.786 293.907 317.578 294.499 317.305C295.294 316.959 296.173 316.873 297.018 317.058C297.86 317.238 298.624 317.694 299.196 318.357C299.625 318.851 299.713 319.254 299.612 319.319Z" fill="#263238"/>
<path d="M302.974 332.911C303.88 332.82 304.794 332.846 305.694 332.989C306.11 332.989 306.525 332.989 306.651 332.756C306.772 332.331 306.772 331.88 306.651 331.456C306.475 330.352 306.286 329.182 306.084 327.961C305.504 324.962 305.159 321.92 305.052 318.864C305.863 321.791 306.445 324.781 306.79 327.805C306.966 329.026 307.142 330.196 307.306 331.313C307.454 331.883 307.409 332.488 307.18 333.028C307.088 333.164 306.968 333.276 306.829 333.357C306.689 333.438 306.534 333.485 306.374 333.496C306.136 333.532 305.894 333.532 305.656 333.496C304.742 333.414 303.842 333.218 302.974 332.911Z" fill="#263238"/>
<path d="M300.127 352.832C294.607 351.741 289.489 349.091 285.342 345.178C285.342 345.178 287.483 354.274 299.397 355.651L300.127 352.832Z" fill="#EB996E"/>
<path d="M297.999 333.041C298.264 333.041 297.911 334.886 299.145 336.497C300.379 338.108 302.294 338.29 302.256 338.55C302.218 338.81 301.765 338.81 300.997 338.667C299.971 338.462 299.049 337.892 298.39 337.056C297.756 336.248 297.449 335.22 297.533 334.184C297.596 333.417 297.886 333.002 297.999 333.041Z" fill="#263238"/>
<path d="M301.337 312.886C301.085 313.301 299.523 312.743 297.559 312.574C295.594 312.405 293.982 312.574 293.781 312.145C293.718 311.937 294.07 311.56 294.776 311.261C295.699 310.884 296.698 310.746 297.685 310.858C298.678 310.942 299.637 311.272 300.481 311.82C301.173 312.262 301.45 312.691 301.337 312.886Z" fill="#263238"/>
<path d="M315.895 317.461C315.53 317.786 314.51 317.149 313.175 316.85C311.84 316.551 310.656 316.564 310.48 316.122C310.404 315.901 310.656 315.563 311.223 315.317C311.969 315.014 312.79 314.964 313.565 315.174C314.35 315.348 315.06 315.776 315.593 316.395C315.983 316.889 316.059 317.305 315.895 317.461Z" fill="#263238"/>
<path d="M330.945 303.933C331.144 302.947 331.029 301.922 330.618 301.009C330.457 300.199 330.008 299.48 329.358 298.995C328.531 298.715 327.632 298.766 326.84 299.138C323.981 299.995 320.543 299.853 318.515 297.552C316.966 295.759 316.664 293.004 314.863 291.484C313.062 289.964 309.976 290.262 307.546 291.068C305.115 291.874 302.508 292.952 300.077 292.199C298.389 291.445 296.825 290.423 295.443 289.171C292.666 287.157 289.228 286.362 285.884 286.962C284.235 287.29 282.687 288.023 281.372 289.1C280.056 290.177 279.012 291.565 278.327 293.147C277.684 294.751 277.499 296.51 277.794 298.219C278.088 299.927 278.85 301.513 279.99 302.789C280.103 302.945 280.217 303.088 280.343 303.231C279.184 309.495 277.824 319.474 280.544 320.228C284.562 321.346 285.997 310.716 285.997 310.716C291.425 310.027 292.647 304.544 294.171 303.699C295.695 302.854 301.538 305.271 306.299 308.897C312.205 313.393 322.482 314.095 326.071 314.186C326.385 314.218 326.702 314.218 327.016 314.186H327.356C327.593 314.136 327.825 314.062 328.049 313.965C329.167 313.25 329.986 312.128 330.341 310.82C330.85 309.729 331.08 308.521 331.008 307.311C330.951 306.87 330.798 306.448 330.56 306.077C330.322 305.706 330.006 305.395 329.635 305.167C329.937 305.093 330.216 304.941 330.445 304.725C330.675 304.509 330.847 304.236 330.945 303.933Z" fill="#263238"/>
<path d="M323.943 306.415C324.043 306.197 324.2 306.013 324.396 305.882C324.671 305.673 324.99 305.533 325.327 305.474C325.664 305.416 326.01 305.439 326.336 305.544C326.861 305.742 327.294 306.137 327.548 306.65C327.803 307.163 327.86 307.757 327.709 308.312C327.607 308.661 327.424 308.98 327.176 309.241C326.928 309.501 326.623 309.695 326.286 309.806C325.551 310.066 324.753 310.066 324.019 309.806C322.407 309.26 321.5 307.519 320.82 305.908C320.511 305.013 320.136 304.145 319.699 303.309C319.272 302.461 318.627 301.75 317.835 301.256C317.41 301.039 316.947 300.911 316.474 300.88C316 300.849 315.525 300.915 315.077 301.074C314.107 301.347 313.137 301.841 312.067 302.178C310.96 302.543 309.781 302.61 308.641 302.373C307.487 302.117 306.387 301.651 305.392 300.996C303.499 299.691 301.78 298.136 300.279 296.37C298.905 294.787 297.299 293.436 295.518 292.367C293.882 291.482 291.998 291.215 290.191 291.614C288.24 292.021 286.511 293.177 285.354 294.848C284.197 296.52 283.698 298.582 283.957 300.619C284.079 301.504 284.286 302.375 284.574 303.218C284.435 303.026 284.321 302.817 284.234 302.594C283.974 301.972 283.796 301.316 283.705 300.645C283.52 299.396 283.604 298.121 283.953 296.91C284.301 295.699 284.905 294.583 285.72 293.641C286.978 292.247 288.643 291.315 290.462 290.986C292.281 290.658 294.153 290.951 295.796 291.822C297.653 292.896 299.328 294.274 300.758 295.902C302.242 297.626 303.935 299.146 305.795 300.424C306.726 301.036 307.753 301.476 308.83 301.724C309.865 301.937 310.934 301.879 311.941 301.555C312.961 301.243 313.931 300.749 314.976 300.463C315.502 300.285 316.056 300.217 316.607 300.261C317.158 300.306 317.696 300.463 318.188 300.723C320.102 301.892 320.706 304.024 321.386 305.661C322.067 307.298 322.873 308.897 324.245 309.377C324.875 309.622 325.564 309.649 326.21 309.455C326.5 309.38 326.766 309.231 326.986 309.022C327.206 308.813 327.372 308.551 327.469 308.26C327.606 307.787 327.568 307.279 327.364 306.832C327.159 306.386 326.802 306.034 326.361 305.843C326.067 305.74 325.755 305.704 325.446 305.737C325.137 305.771 324.839 305.873 324.573 306.038C324.094 306.22 323.968 306.441 323.943 306.415Z" fill="#455A64"/>
<path d="M328.564 308.754C328.538 308.927 328.483 309.094 328.401 309.247C328.193 309.708 327.907 310.126 327.557 310.482C326.995 311.059 326.296 311.471 325.529 311.677C324.499 311.951 323.41 311.85 322.444 311.392C321.338 310.757 320.413 309.834 319.761 308.715C319.396 308.165 318.945 307.682 318.426 307.285C318.158 307.097 317.856 306.968 317.537 306.905C317.219 306.842 316.891 306.848 316.575 306.921C315.856 307.098 315.152 307.338 314.472 307.636C313.696 307.923 312.878 308.068 312.054 308.065C310.336 308.038 308.648 307.593 307.129 306.765C304.019 305.089 301.701 302.646 299.208 301.113C297.104 299.573 294.504 298.935 291.954 299.333C291.117 299.533 290.333 299.918 289.655 300.461C288.977 301.003 288.42 301.691 288.024 302.477C287.782 303.084 287.621 303.723 287.546 304.374C287.516 304.198 287.516 304.018 287.546 303.842C287.557 303.333 287.659 302.83 287.848 302.36C288.223 301.502 288.781 300.743 289.481 300.14C290.182 299.537 291.005 299.105 291.891 298.878C293.217 298.624 294.578 298.644 295.897 298.936C297.215 299.228 298.465 299.787 299.573 300.58C302.167 302.152 304.497 304.569 307.469 306.155C308.893 306.948 310.474 307.392 312.091 307.454C312.85 307.462 313.604 307.335 314.32 307.077C315.036 306.777 315.773 306.533 316.524 306.35C316.915 306.271 317.317 306.274 317.706 306.359C318.096 306.444 318.465 306.609 318.791 306.843C319.36 307.285 319.854 307.821 320.252 308.429C320.83 309.503 321.673 310.399 322.695 311.028C323.559 311.477 324.547 311.606 325.491 311.392C326.211 311.222 326.878 310.869 327.431 310.365C327.875 309.881 328.256 309.339 328.564 308.754Z" fill="#455A64"/>
<path d="M281.576 315.952C281.425 315.835 275.28 312.119 273.806 319.136C272.333 326.153 279.461 326.244 279.511 326.049C279.561 325.854 281.576 315.952 281.576 315.952Z" fill="#FFBE9D"/>
<path d="M278 322.917C278 322.917 277.861 322.917 277.647 323.034C277.337 323.091 277.019 323.026 276.753 322.852C276.375 322.466 276.104 321.984 275.967 321.454C275.83 320.924 275.832 320.366 275.972 319.837C276.079 319.23 276.321 318.657 276.677 318.161C276.786 317.956 276.942 317.782 277.13 317.653C277.319 317.524 277.535 317.444 277.76 317.42C277.905 317.414 278.047 317.459 278.162 317.55C278.277 317.64 278.358 317.769 278.39 317.914C278.39 318.135 278.39 318.265 278.39 318.278C278.39 318.291 278.554 318.2 278.566 317.888C278.567 317.707 278.504 317.532 278.39 317.394C278.233 317.207 278.012 317.091 277.773 317.07C277.483 317.064 277.197 317.135 276.941 317.276C276.685 317.417 276.469 317.624 276.312 317.875C275.894 318.417 275.609 319.054 275.481 319.734C275.316 320.352 275.331 321.007 275.523 321.617C275.716 322.226 276.078 322.765 276.564 323.164C276.741 323.25 276.935 323.294 277.131 323.294C277.327 323.294 277.52 323.25 277.697 323.164C277.949 323.086 278.025 322.943 278 322.917Z" fill="#EB996E"/>
<path d="M392.807 392.102C394.759 392.388 407.264 394.337 408.448 395.299C409.632 396.261 409.607 397.612 408.196 397.898C406.786 398.184 398.889 397.638 398.889 397.638C398.889 397.638 409.078 397.885 409.393 398.938C409.884 400.601 406.257 401.536 399.444 400.419C399.444 400.419 409.834 399.275 409.72 401.913C409.72 403.213 400.376 403.33 400.376 403.33C400.161 404.07 409.733 402.03 410.01 403.616C410.136 404.369 408.826 405.136 403.965 405.838C401.03 406.267 396.182 406.89 391.371 407.553V407.618L386.107 408.385L379.936 394.026C380.414 393.545 383.323 391.66 385.301 390.244C386.531 389.362 388.03 388.969 389.52 389.14C390.281 389.227 390.999 389.547 391.582 390.059C392.166 390.57 392.588 391.25 392.794 392.011L392.807 392.102Z" fill="#FFBE9D"/>
<path d="M407.567 398.235C404.316 398.026 401.073 397.696 397.845 397.247C399.468 396.913 401.135 396.883 402.769 397.156C404.419 397.21 406.045 397.576 407.567 398.235Z" fill="#EB996E"/>
<path d="M407.932 400.574C406.492 400.737 405.04 400.737 403.6 400.574C402.15 400.634 400.697 400.534 399.268 400.275C400.683 399.862 402.163 399.734 403.625 399.898C405.09 399.834 406.552 400.063 407.932 400.574Z" fill="#EB996E"/>
<path d="M408.298 402.952C406.879 403.277 405.431 403.447 403.978 403.459C402.547 403.702 401.094 403.785 399.646 403.706C401 403.111 402.455 402.798 403.927 402.783C405.381 402.55 406.865 402.607 408.298 402.952Z" fill="#EB996E"/>
<path d="M428.373 430.917L392.518 425.147C392.103 425.082 391.706 424.933 391.348 424.709C390.989 424.485 390.678 424.19 390.431 423.84C390.184 423.491 390.006 423.095 389.908 422.675C389.81 422.255 389.794 421.818 389.86 421.392L397.417 371.544C397.481 371.116 397.627 370.705 397.845 370.334C398.064 369.964 398.351 369.642 398.69 369.386C399.029 369.13 399.414 368.946 399.822 368.843C400.23 368.741 400.654 368.723 401.069 368.789L426.144 372.818L437.957 389.061L432.025 428.162C431.96 428.59 431.815 429.001 431.596 429.371C431.378 429.742 431.091 430.064 430.752 430.32C430.413 430.576 430.028 430.76 429.62 430.862C429.212 430.965 428.788 430.983 428.373 430.917Z" fill="#FF725E"/>
<path d="M426.117 372.701L424.618 382.616C424.444 383.791 424.728 384.989 425.408 385.948C426.088 386.908 427.108 387.55 428.245 387.736L437.918 389.035L426.117 372.701Z" fill="#FF725E"/>
<g opacity="0.2">
<path d="M426.117 372.7L424.618 382.615C424.444 383.79 424.728 384.988 425.408 385.947C426.088 386.907 427.108 387.549 428.245 387.735L437.918 389.035L426.117 372.7Z" fill="black"/>
</g>
<path d="M424.468 420.196C424.451 420.036 424.451 419.875 424.468 419.715C424.468 419.364 424.569 418.922 424.644 418.415C424.808 417.194 425.035 415.531 425.312 413.438C425.929 409.137 426.785 403.121 427.831 395.896L428.07 396.233L403.6 392.335L403.965 392.062V392.244V392.452V392.868L403.839 393.7C403.751 394.245 403.663 394.791 403.587 395.337L403.096 398.586C402.769 400.717 402.454 402.809 402.139 404.849C401.509 408.916 400.879 412.763 400.376 416.31L400.136 415.972L417.768 418.961L422.806 419.845L424.141 420.092C424.303 420.112 424.463 420.147 424.619 420.196H424.191L422.932 420.014L417.982 419.299L400.136 416.583H399.859V416.284C400.388 412.737 400.955 408.89 401.56 404.81C401.874 402.77 402.189 400.678 402.504 398.547L402.995 395.298C403.071 394.752 403.159 394.206 403.235 393.661L403.361 392.829L403.423 392.413V392.205V392.023L403.801 391.737L428.246 395.636H428.536V395.922C427.377 403.199 426.42 409.267 425.727 413.607C425.387 415.661 425.11 417.298 424.909 418.48C424.821 419 424.745 419.416 424.695 419.78C424.639 419.929 424.562 420.069 424.468 420.196Z" fill="white"/>
<path d="M411.975 418.546C412.259 414.457 412.764 410.388 413.486 406.357C413.988 402.29 414.707 398.256 415.639 394.271C415.355 398.36 414.85 402.429 414.128 406.46C413.627 410.527 412.908 414.561 411.975 418.546Z" fill="white"/>
<path d="M425.287 414.231C421.152 413.909 417.036 413.362 412.957 412.594C408.846 412.043 404.764 411.276 400.729 410.294C404.864 410.607 408.98 411.154 413.058 411.931C417.171 412.473 421.253 413.24 425.287 414.231Z" fill="white"/>
<path d="M426.496 408.149C422.364 407.835 418.253 407.288 414.179 406.512C410.067 405.964 405.985 405.197 401.95 404.212C406.086 404.527 410.202 405.073 414.28 405.849C418.388 406.397 422.465 407.165 426.496 408.149Z" fill="white"/>
<path d="M427.251 401.874C423.146 401.552 419.06 401.01 415.01 400.249C410.929 399.714 406.88 398.947 402.882 397.949C406.983 398.27 411.065 398.813 415.111 399.574C419.196 400.108 423.249 400.876 427.251 401.874Z" fill="white"/>
<path d="M291.01 471.266V466.64L354.849 467.991L391.611 407.384L394.986 409.905L357.33 471.863L291.01 471.266Z" fill="#455A64"/>
<path d="M335.176 451.033L338.388 455.958V466.067C337.949 466.181 337.487 466.148 337.068 465.973C336.65 465.798 336.296 465.49 336.058 465.093C335.395 463.117 334.877 461.093 334.509 459.037L332.96 463.183C332.652 463.995 332.068 464.664 331.317 465.066C330.567 465.467 329.7 465.574 328.879 465.366L317.041 462.299L321.877 448.005L335.176 451.033Z" fill="#FFBE9D"/>
<path d="M389.998 389.19L400.879 392.764C400.895 393.029 400.855 393.293 400.762 393.541C400.669 393.788 400.526 394.012 400.342 394.197C400.158 394.382 399.937 394.524 399.695 394.613C399.453 394.702 399.196 394.736 398.94 394.713C396.937 394.635 391.597 394.115 391.597 394.115C391.597 394.115 391.597 398.014 388.449 398.832C388.449 398.832 384.494 391.763 384.671 391.568C384.847 391.374 389.998 389.19 389.998 389.19Z" fill="#FFBE9D"/>
<path d="M390.803 404.03C390.803 404.03 390.64 403.614 390.287 402.977C389.82 402.098 389.091 401.397 388.209 400.976L387.617 400.69L388.234 400.43C389.464 399.915 390.477 398.966 391.093 397.754C391.633 396.72 391.861 395.543 391.748 394.375V393.998H392.113C393.72 394.05 395.318 394.258 396.886 394.622C395.282 394.779 393.667 394.779 392.063 394.622L392.378 394.271C392.556 395.567 392.326 396.888 391.723 398.039C391.038 399.408 389.884 400.464 388.486 401.002V400.456C389.446 400.964 390.2 401.807 390.615 402.834C390.879 403.562 390.854 404.017 390.803 404.03Z" fill="#EB996E"/>
<path d="M269.801 353.312C269.801 353.312 255.532 361.733 250.243 369.946C244.953 378.158 235.558 387.891 228.997 414.297C223.317 437.349 221.201 468.614 227.347 477.243C229.408 480.35 231.899 483.13 234.74 485.494L245.772 480.829C258.907 475.982 270.859 472.851 281.161 463.156L302.08 443.457L290.972 434.438C290.972 434.438 299.397 387.476 297.155 371.076C295.241 356.73 269.801 353.312 269.801 353.312Z" fill="#FF725E"/>
<path d="M264.335 376.014L252.648 432.346C251.662 437.105 252.377 442.072 254.661 446.33C256.946 450.589 260.646 453.851 265.078 455.515L315.845 465.56L322.142 446.068L280.972 432.839L293.062 378.418L264.335 376.014Z" fill="#FF725E"/>
<path d="M252.22 443.053L252.296 443.391C252.346 443.625 252.409 443.95 252.485 444.366L252.623 445.08L252.926 445.925L253.266 446.9C253.442 447.224 253.631 447.575 253.82 447.952C254.848 449.74 256.25 451.267 257.925 452.422C260.198 453.988 262.723 455.123 265.381 455.775L315.593 465.261L315.253 465.456C317.356 459.271 319.56 452.734 321.865 445.964L322.079 446.393L280.897 433.125L280.582 433.021L280.67 432.683C281.375 429.786 282.144 426.68 282.924 423.587C285.317 413.724 287.559 404.095 289.511 394.7C290.468 390.009 291.375 385.396 292.03 380.835C292.206 379.704 292.206 378.574 292.307 377.456C292.3 376.35 292.178 375.248 291.942 374.168C291.462 372.039 290.499 370.057 289.133 368.386C287.808 366.785 286.154 365.51 284.292 364.651C282.429 363.792 280.405 363.373 278.365 363.422C276.445 363.537 274.567 364.057 272.849 364.951C271.131 365.846 269.61 367.094 268.378 368.62C266.022 371.482 264.268 374.819 263.227 378.418C262.251 381.744 261.473 385.129 260.898 388.554C258.379 401.613 256.376 412.191 254.966 419.533L253.329 427.94C253.14 428.889 252.989 429.617 252.875 430.136C252.762 430.656 252.711 430.877 252.711 430.877C252.731 430.624 252.764 430.372 252.812 430.123C252.9 429.591 253.026 428.824 253.19 427.914C253.543 425.965 254.046 423.119 254.701 419.481C256.049 412.126 258.001 401.535 260.406 388.463C260.969 385.012 261.739 381.601 262.711 378.249C263.763 374.572 265.543 371.161 267.938 368.23C269.218 366.632 270.803 365.322 272.595 364.383C274.387 363.444 276.347 362.896 278.353 362.772C280.488 362.718 282.608 363.156 284.558 364.056C286.508 364.955 288.239 366.292 289.624 367.97C291.062 369.718 292.077 371.793 292.584 374.025C292.836 375.155 292.963 376.31 292.962 377.469C292.874 378.626 292.874 379.808 292.685 380.952C292.068 385.539 291.161 390.165 290.166 394.856C288.214 404.251 285.934 413.854 283.579 423.743C282.799 426.875 282.03 429.981 281.312 432.839L281.086 432.411L322.268 445.691L322.583 445.795L322.482 446.12L315.833 465.612L315.744 465.859H315.493C294.712 461.843 277.408 458.569 265.293 456.113C262.593 455.433 260.034 454.257 257.736 452.643C256.046 451.447 254.642 449.87 253.631 448.03C253.429 447.653 253.253 447.289 253.077 446.952L252.749 445.951L252.472 445.106C252.472 444.838 252.434 444.591 252.359 444.366L252.208 443.378C252.199 443.27 252.203 443.16 252.22 443.053Z" fill="#263238"/>
<path d="M273.894 440.156C273.818 440.156 273.742 439.493 274.007 438.479C274.365 437.144 275.07 435.935 276.047 434.984C277.008 434.016 278.205 433.334 279.51 433.008C280.518 432.788 281.148 432.892 281.148 433.008C281.148 433.125 280.543 433.216 279.649 433.541C278.485 433.974 277.423 434.655 276.532 435.539C275.64 436.424 274.938 437.492 274.473 438.674C274.108 439.545 274.007 440.169 273.894 440.156Z" fill="#263238"/>
<g opacity="0.2">
<path d="M263.14 375.261C257.229 394.872 253.135 415.017 250.911 435.426C250.156 440.105 250.067 444.872 250.646 449.577C251.427 454.255 253.656 458.855 257.51 461.428C261.253 463.686 265.689 464.387 269.915 463.391C274.134 462.559 280.947 461.597 284.814 459.713L262.145 454.879C262.145 454.879 247.498 453.943 253.795 424.991C260.092 396.039 263.14 375.261 263.14 375.261Z" fill="black"/>
</g>
<path d="M290.972 434.439C290.988 433.688 291.068 432.94 291.211 432.204C291.425 430.657 291.702 428.604 292.042 426.122C292.773 420.924 293.768 413.842 294.851 406.058C295.934 398.275 296.866 391.128 297.495 385.982L298.238 379.887C298.283 379.138 298.392 378.394 298.566 377.665C298.591 378.415 298.566 379.166 298.49 379.913C298.39 381.368 298.213 383.461 297.949 386.034C297.432 391.231 296.576 398.314 295.493 406.162C294.41 414.011 293.352 421.08 292.508 426.187C292.08 428.786 291.727 430.813 291.463 432.243C291.359 432.988 291.195 433.722 290.972 434.439Z" fill="#263238"/>
<path d="M290.254 393.454C290.254 393.558 288.63 392.921 286.035 392.089C279.262 389.892 272.191 388.826 265.091 388.931C262.371 388.931 260.683 389.113 260.671 388.996C261.05 388.865 261.443 388.787 261.842 388.763C262.598 388.646 263.706 388.529 265.079 388.451C272.249 388.072 279.421 389.154 286.186 391.634C287.446 392.115 288.504 392.544 289.196 392.934C289.569 393.059 289.925 393.234 290.254 393.454Z" fill="#FAFAFA"/>
<path d="M288.894 399.248C288.894 399.352 287.257 398.702 284.612 397.949C277.715 395.837 270.504 395.032 263.328 395.571C260.583 395.779 258.883 396.051 258.87 395.934C259.245 395.774 259.639 395.664 260.041 395.61C260.797 395.441 261.905 395.259 263.291 395.103C266.898 394.695 270.539 394.695 274.147 395.103C277.753 395.511 281.308 396.312 284.751 397.494C286.073 397.962 287.118 398.39 287.824 398.715C288.529 399.04 288.919 399.196 288.894 399.248Z" fill="#FAFAFA"/>
<path d="M306.878 357.744C306.882 356.919 306.643 356.113 306.193 355.431C305.743 354.749 305.104 354.223 304.359 353.924C302.979 353.598 301.545 353.598 300.165 353.924C295.151 354.44 290.116 353.185 285.884 350.363C282.106 347.764 279.02 344.035 274.826 342.268C273.755 341.773 272.586 341.546 271.413 341.605C270.826 341.639 270.254 341.811 269.741 342.108C269.228 342.405 268.787 342.82 268.454 343.32C267.434 344.97 268.114 347.218 269.285 348.765C267.031 349.947 265.872 353.001 267.32 355.145C277.633 356.62 286.97 362.221 293.314 370.739C294.272 372.341 295.562 373.704 297.092 374.728C300.077 376.314 304.032 374.429 305.455 371.298C306.067 369.684 306.272 367.936 306.052 366.218C305.832 364.5 305.193 362.868 304.195 361.474C304.957 361.207 305.622 360.707 306.101 360.041C306.58 359.375 306.851 358.574 306.878 357.744Z" fill="#455A64"/>
<path d="M303.868 361.161C303.491 361.463 303.065 361.692 302.609 361.837C301.444 362.333 300.22 362.665 298.969 362.825C297.101 363.07 295.205 362.955 293.378 362.487C291.153 361.862 289.063 360.808 287.219 359.381C285.242 357.913 283.529 356.327 281.93 354.976C280.532 353.754 279.041 352.65 277.471 351.675C275.994 350.833 274.432 350.162 272.812 349.674C273.276 349.659 273.739 349.72 274.184 349.856C275.411 350.158 276.593 350.63 277.698 351.26C279.325 352.189 280.867 353.268 282.307 354.482C283.945 355.782 285.657 357.393 287.597 358.822C289.376 360.207 291.387 361.242 293.529 361.876C295.284 362.362 297.109 362.521 298.919 362.344C300.606 362.138 302.265 361.742 303.868 361.161Z" fill="#263238"/>
<path d="M299.158 375.443C299.459 375.348 299.754 375.231 300.039 375.092C300.804 374.671 301.434 374.03 301.853 373.247C302.471 372.085 302.738 370.759 302.621 369.439C302.512 367.822 302.211 366.225 301.727 364.683C301.591 364.239 301.341 363.84 301.004 363.529C300.668 363.218 300.256 363.006 299.812 362.916H299.586L299.787 362.669C300.561 361.674 301.002 360.448 301.047 359.174C301.074 358.166 300.848 357.167 300.392 356.276C299.969 355.474 299.4 354.764 298.717 354.184C298.925 354.304 299.119 354.448 299.296 354.612C299.8 355.063 300.226 355.599 300.556 356.198C301.053 357.105 301.309 358.131 301.299 359.174C301.271 360.503 300.83 361.788 300.039 362.838L299.787 362.669C300.28 362.759 300.74 362.987 301.116 363.328C301.491 363.67 301.768 364.112 301.916 364.605C302.421 366.178 302.726 367.812 302.822 369.465C302.921 370.824 302.623 372.182 301.966 373.364C301.515 374.159 300.844 374.797 300.039 375.196C299.762 375.331 299.463 375.415 299.158 375.443Z" fill="#FAFAFA"/>
<path d="M291.563 353.065C292.175 353.672 292.659 354.402 292.987 355.21C293.843 357.164 293.968 359.377 293.339 361.421L293.138 361.98V361.863C293.601 362.743 293.879 363.714 293.955 364.712C294.031 365.711 293.903 366.714 293.579 367.658C293.339 368.437 292.929 369.148 292.382 369.738C292.797 369.068 293.139 368.353 293.402 367.606C293.692 366.687 293.797 365.717 293.713 364.754C293.628 363.792 293.356 362.857 292.911 362.006V361.941V361.876L293.1 361.343C293.707 359.356 293.613 357.211 292.835 355.288C292.49 354.502 292.063 353.757 291.563 353.065Z" fill="#FAFAFA"/>
<path d="M286.273 350.337C286.374 350.457 286.455 350.593 286.513 350.74C286.696 351.134 286.836 351.548 286.928 351.974C287.225 353.4 287.047 354.888 286.425 356.197C286.209 356.663 285.938 357.1 285.619 357.497V357.419C285.57 357.975 285.412 358.516 285.154 359.007C284.896 359.499 284.545 359.931 284.12 360.278C283.877 360.484 283.605 360.651 283.314 360.772C283.217 360.829 283.11 360.864 282.999 360.876C283.353 360.659 283.693 360.42 284.019 360.161C284.789 359.451 285.27 358.467 285.367 357.406C285.663 357.032 285.92 356.627 286.135 356.197C286.729 354.935 286.923 353.512 286.689 352.13C286.588 351.524 286.45 350.925 286.273 350.337Z" fill="#FAFAFA"/>
<path d="M279.436 345.27C278.942 345.695 278.498 346.18 278.114 346.712C277.677 347.364 277.375 348.103 277.228 348.881C277.08 349.659 277.09 350.46 277.257 351.234V351.494V351.624H277.131C276.416 351.803 275.765 352.188 275.252 352.733C274.74 353.278 274.387 353.961 274.235 354.704C274.136 355.328 274.136 355.964 274.235 356.588C274.156 356.434 274.105 356.267 274.084 356.094C273.998 355.622 273.998 355.137 274.084 354.665C274.219 353.872 274.576 353.137 275.111 352.551C275.646 351.964 276.335 351.552 277.094 351.364L277.005 351.533L276.93 351.26C276.757 350.45 276.753 349.611 276.921 348.8C277.088 347.988 277.422 347.223 277.9 346.556C278.19 346.157 278.533 345.803 278.92 345.503C279.078 345.397 279.253 345.318 279.436 345.27Z" fill="#FAFAFA"/>
<path d="M268.87 355.34C268.7 355.211 268.559 355.047 268.454 354.859C268.144 354.366 267.934 353.814 267.837 353.235C267.695 352.348 267.832 351.437 268.227 350.636C268.723 349.657 269.56 348.909 270.57 348.544L270.507 348.751L270.305 348.453C269.706 347.481 269.486 346.311 269.688 345.178C269.854 344.272 270.295 343.443 270.948 342.813C271.385 342.385 271.91 342.066 272.484 341.877C272.69 341.797 272.907 341.749 273.126 341.734C272.363 341.973 271.661 342.386 271.074 342.943C270.469 343.567 270.061 344.364 269.902 345.23C269.726 346.294 269.942 347.388 270.507 348.297C270.562 348.397 270.626 348.493 270.696 348.583L270.796 348.738H270.633C269.683 349.078 268.892 349.774 268.416 350.688C268.026 351.43 267.88 352.283 268.001 353.118C268.104 353.922 268.403 354.686 268.87 355.34Z" fill="#FAFAFA"/>
<path d="M113.131 452.827C115.598 446.185 118.82 439.869 122.728 434.01C123.905 431.926 125.66 430.251 127.766 429.202C131.38 427.786 135.322 430.073 138.521 432.269L146.002 437.35C146.236 437.467 146.446 437.633 146.617 437.836C146.788 438.039 146.917 438.276 146.997 438.533C147.122 439.494 145.976 440.04 145.044 440.157C141.851 440.535 138.632 439.714 135.977 437.844C133.962 436.414 131.997 434.296 129.566 434.556C126.556 434.881 125.209 438.455 124.038 441.391C121.484 447.664 116.983 452.884 111.242 456.231" fill="#FF725E"/>
<path d="M113.119 454.1C113.699 438.65 114.291 423.082 117.867 408.086C121.444 393.09 128.295 378.497 139.554 368.31C138.068 381.304 133.484 393.714 128.95 405.994C122.829 422.454 116.713 438.914 110.601 455.374" fill="#FF725E"/>
<path d="M110.512 459.714C108.391 445.65 104.584 431.913 99.1771 418.82C98.5628 416.817 97.3561 415.063 95.7264 413.804C93.2076 412.218 89.8828 413.258 87.1499 414.518C80.6522 417.52 74.6382 421.529 69.3168 426.409C68.8552 426.748 68.518 427.238 68.3596 427.799C68.3386 428.232 68.4679 428.658 68.7241 429.001C68.9804 429.344 69.3468 429.581 69.7576 429.67C70.5964 429.84 71.4632 429.786 72.2764 429.514L87.238 425.941C88.7191 425.425 90.316 425.38 91.8222 425.811C93.5728 426.526 94.5551 428.41 95.3989 430.164L110.096 460.728" fill="#FF725E"/>
<g opacity="0.4">
<path d="M113.131 452.827C115.598 446.185 118.82 439.869 122.728 434.01C123.905 431.926 125.66 430.251 127.766 429.202C131.38 427.786 135.322 430.073 138.521 432.269L146.002 437.35C146.236 437.467 146.446 437.633 146.617 437.836C146.788 438.039 146.917 438.276 146.997 438.533C147.122 439.494 145.976 440.04 145.044 440.157C141.851 440.535 138.632 439.714 135.977 437.844C133.962 436.414 131.997 434.296 129.566 434.556C126.556 434.881 125.209 438.455 124.038 441.391C121.484 447.664 116.983 452.884 111.242 456.231" fill="black"/>
</g>
<g opacity="0.4">
<path d="M113.118 454.1C113.698 438.65 114.29 423.082 117.866 408.086C121.443 393.09 128.294 378.497 139.553 368.31C138.067 381.304 133.483 393.714 128.949 405.994C122.828 422.454 116.712 438.914 110.6 455.374" fill="black"/>
</g>
<g opacity="0.3">
<path d="M110.512 459.714C108.391 445.65 104.584 431.913 99.1771 418.82C98.5628 416.817 97.3561 415.063 95.7264 413.804C93.2076 412.218 89.8828 413.258 87.1499 414.518C80.6522 417.52 74.6382 421.529 69.3168 426.409C68.8552 426.748 68.518 427.238 68.3596 427.799C68.3386 428.232 68.4679 428.658 68.7241 429.001C68.9804 429.344 69.3468 429.581 69.7576 429.67C70.5964 429.84 71.4632 429.786 72.2764 429.514L87.238 425.941C88.7191 425.425 90.316 425.38 91.8222 425.811C93.5728 426.526 94.5551 428.41 95.3989 430.164L110.096 460.728" fill="black"/>
</g>
<path d="M133.244 343.281C120.748 358.587 113.431 377.68 112.401 397.664C110.991 430.541 109.114 454.23 109.114 454.23H112.628C112.628 454.23 119.655 387.957 124.34 376.392C129.025 364.826 136.292 348.375 133.244 343.281Z" fill="#FF725E"/>
<path d="M133.244 343.281C133.132 343.647 132.984 343.999 132.803 344.334L131.456 347.297C130.297 349.896 128.685 353.638 126.897 358.368C125.108 363.098 123.118 368.764 121.28 375.261C119.213 382.212 117.577 389.291 116.381 396.455C115.751 400.263 115.461 404.031 115.197 407.683C114.932 411.334 114.718 414.856 114.529 418.209C114.151 424.927 113.748 430.982 113.207 436.037C112.665 441.092 112.036 445.134 111.481 447.966C111.23 449.37 110.965 450.435 110.801 451.176C110.741 451.549 110.644 451.915 110.512 452.268C110.538 451.887 110.593 451.509 110.675 451.137C110.801 450.409 111.015 449.331 111.242 447.914C111.708 445.121 112.287 441.053 112.753 435.985C113.219 430.917 113.572 424.888 113.925 418.17C114.101 414.817 114.29 411.282 114.554 407.631C114.766 403.849 115.161 400.08 115.738 396.339C116.931 389.133 118.589 382.018 120.7 375.04C122.602 368.543 124.617 362.89 126.468 358.147C128.32 353.404 129.995 349.675 131.229 347.128C131.833 345.828 132.35 344.88 132.69 344.217C132.857 343.894 133.042 343.582 133.244 343.281Z" fill="#263238"/>
<path d="M146.303 374.065C146.303 374.065 122.576 397.456 119.856 419.547C117.136 441.638 115.914 453.346 115.914 453.346H118.257C118.257 453.346 123.823 421.925 131.027 412.049C138.231 402.173 147.953 376.716 146.303 374.065Z" fill="#FF725E"/>
<path d="M146.027 375.586C145.931 375.844 145.813 376.091 145.674 376.327L144.566 378.393L140.435 385.943C136.959 392.31 132.148 401.146 127.841 411.347C124.054 420.038 121.207 429.133 119.352 438.467C118.672 442.054 118.282 444.965 118.093 447.018C117.967 448.031 117.917 448.824 117.841 449.357C117.826 449.632 117.789 449.906 117.728 450.175C117.697 449.899 117.697 449.62 117.728 449.344C117.728 448.811 117.728 448.044 117.841 446.992C118.054 444.102 118.416 441.226 118.924 438.376C120.653 428.973 123.452 419.814 127.262 411.087C131.074 402.384 135.363 393.91 140.107 385.709C141.896 382.551 143.382 380.017 144.427 378.276L145.687 376.275C145.775 376.033 145.889 375.802 146.027 375.586Z" fill="#263238"/>
<path d="M100.449 378.172C100.449 378.172 96.935 424.342 105.134 451.891H107.942C107.942 451.891 109.819 392.193 100.449 378.172Z" fill="#FF725E"/>
<path d="M102.389 386.904C102.46 387.113 102.498 387.333 102.502 387.554L102.691 389.425C102.842 391.154 103.044 393.48 103.283 396.312C103.736 402.134 104.341 410.178 104.958 419.053C105.575 427.929 106.091 435.946 106.431 441.82C106.595 444.666 106.721 447.018 106.809 448.733C106.809 449.474 106.809 450.032 106.809 450.604C106.839 450.824 106.839 451.047 106.809 451.267C106.74 451.057 106.702 450.838 106.696 450.617L106.507 448.746C106.356 447.018 106.167 444.692 105.928 441.859C105.462 436.037 104.87 427.993 104.253 419.105C103.635 410.217 103.107 402.212 102.766 396.338C102.615 393.506 102.489 391.141 102.389 389.438C102.389 388.685 102.389 388.061 102.389 387.554C102.367 387.338 102.367 387.12 102.389 386.904Z" fill="#263238"/>
<path d="M94.8693 449.215C94.8693 449.215 103.471 455.595 103.03 458.558C102.589 461.521 81.9101 477.452 83.1695 490.018C84.4289 502.584 94.4285 511.199 111.418 510.511C128.407 509.822 139.893 498.893 138.344 487.744C136.795 476.595 119.931 458.831 119.692 457.96C119.138 455.504 127.248 449.215 127.248 449.215H94.8693Z" fill="#263238"/>
<path d="M125.8 465.405C125.8 465.587 119.503 465.743 111.808 465.743C104.113 465.743 97.8164 465.587 97.8164 465.405C97.8164 465.223 104.113 465.067 111.808 465.067C119.503 465.067 125.8 465.21 125.8 465.405Z" fill="#FAFAFA"/>
<path d="M127.779 468.434C127.779 468.616 120.399 468.771 111.293 468.771C102.188 468.771 94.7949 468.616 94.7949 468.434C94.7949 468.252 102.188 468.096 111.293 468.096C120.399 468.096 127.779 468.252 127.779 468.434Z" fill="#FAFAFA"/>
<path d="M130.751 471.824C130.751 472.006 122.036 472.162 111.268 472.162C100.5 472.162 91.7852 472.006 91.7852 471.824C91.7852 471.642 100.513 471.486 111.268 471.486C122.023 471.486 130.751 471.603 130.751 471.824Z" fill="#FAFAFA"/>
<path d="M133.383 476.256C133.383 476.438 123.308 476.594 110.928 476.594C98.5478 476.594 88.46 476.438 88.46 476.256C88.46 476.074 98.5352 475.918 110.928 475.918C123.32 475.918 133.383 476.061 133.383 476.256Z" fill="#FAFAFA"/>
</svg>
