<svg width="22" height="22" viewBox="0 0 22 22" fill="none" xmlns="http://www.w3.org/2000/svg">
<path d="M21.1834 10.836L12.1271 1.78443L11.5201 1.1774C11.3818 1.04 11.1948 0.962891 10.9998 0.962891C10.8048 0.962891 10.6178 1.04 10.4795 1.1774L0.81621 10.836C0.674486 10.9772 0.56248 11.1453 0.486801 11.3305C0.411123 11.5156 0.373307 11.7141 0.375585 11.9141C0.38496 12.7391 1.07168 13.3977 1.89668 13.3977H2.89277V21.0313H19.1068V13.3977H20.124C20.5248 13.3977 20.9021 13.2407 21.1857 12.9571C21.3254 12.8179 21.436 12.6524 21.5113 12.4701C21.5865 12.2879 21.6248 12.0925 21.624 11.8954C21.624 11.4969 21.467 11.1196 21.1834 10.836ZM12.3123 19.3438H9.6873V14.5626H12.3123V19.3438ZM17.4193 11.7102V19.3438H13.8123V14.0001C13.8123 13.4821 13.3928 13.0626 12.8748 13.0626H9.1248C8.60684 13.0626 8.1873 13.4821 8.1873 14.0001V19.3438H4.58027V11.7102H2.33027L11.0021 3.04537L11.5436 3.58678L19.6717 11.7102H17.4193Z" fill="white"/>
<path d="M21.1834 10.836L12.1271 1.78443L11.5201 1.1774C11.3818 1.04 11.1948 0.962891 10.9998 0.962891C10.8048 0.962891 10.6178 1.04 10.4795 1.1774L0.81621 10.836C0.674486 10.9772 0.56248 11.1453 0.486801 11.3305C0.411123 11.5156 0.373307 11.7141 0.375585 11.9141C0.38496 12.7391 1.07168 13.3977 1.89668 13.3977H2.89277V21.0313H19.1068V13.3977H20.124C20.5248 13.3977 20.9021 13.2407 21.1857 12.9571C21.3254 12.8179 21.436 12.6524 21.5113 12.4701C21.5865 12.2879 21.6248 12.0925 21.624 11.8954C21.624 11.4969 21.467 11.1196 21.1834 10.836ZM12.3123 19.3438H9.6873V14.5626H12.3123V19.3438ZM17.4193 11.7102V19.3438H13.8123V14.0001C13.8123 13.4821 13.3928 13.0626 12.8748 13.0626H9.1248C8.60684 13.0626 8.1873 13.4821 8.1873 14.0001V19.3438H4.58027V11.7102H2.33027L11.0021 3.04537L11.5436 3.58678L19.6717 11.7102H17.4193Z" fill="#04045E"/>
</svg>
