<svg width="62" height="62" viewBox="0 0 62 62" fill="none" xmlns="http://www.w3.org/2000/svg">
<circle cx="31" cy="31" r="29.5" stroke="white" stroke-width="3"/>
<circle cx="31" cy="31" r="29.5" stroke="#04045E" stroke-width="3"/>
<path fill-rule="evenodd" clip-rule="evenodd" d="M31 47.3569C24.5283 47.3569 19 46.3778 19 42.4581C19 38.5384 24.4926 34.9734 31 34.9734C37.4717 34.9734 43 38.5045 43 42.4225C43 46.3405 37.5074 47.3569 31 47.3569Z" stroke="white" stroke-width="3" stroke-linecap="round" stroke-linejoin="round"/>
<path fill-rule="evenodd" clip-rule="evenodd" d="M31 47.3569C24.5283 47.3569 19 46.3778 19 42.4581C19 38.5384 24.4926 34.9734 31 34.9734C37.4717 34.9734 43 38.5045 43 42.4225C43 46.3405 37.5074 47.3569 31 47.3569Z" stroke="#04045E" stroke-width="3" stroke-linecap="round" stroke-linejoin="round"/>
<path fill-rule="evenodd" clip-rule="evenodd" d="M31.0004 29.3835C35.2476 29.3835 38.6922 25.9389 38.6922 21.6917C38.6922 17.4429 35.2476 14 31.0004 14C26.7533 14 23.3086 17.4429 23.3086 21.6917C23.2934 25.9236 26.7142 29.3682 30.9461 29.3835H31.0004Z" stroke="white" stroke-width="3" stroke-linecap="round" stroke-linejoin="round"/>
<path fill-rule="evenodd" clip-rule="evenodd" d="M31.0004 29.3835C35.2476 29.3835 38.6922 25.9389 38.6922 21.6917C38.6922 17.4429 35.2476 14 31.0004 14C26.7533 14 23.3086 17.4429 23.3086 21.6917C23.2934 25.9236 26.7142 29.3682 30.9461 29.3835H31.0004Z" stroke="#04045E" stroke-width="3" stroke-linecap="round" stroke-linejoin="round"/>
</svg>
