<svg width="575" height="498" viewBox="0 0 575 498" fill="none" xmlns="http://www.w3.org/2000/svg">
<path d="M298.543 91.8638H386.259V119.561H298.543C296.664 119.561 294.862 118.732 293.533 117.257C292.204 115.781 291.457 113.78 291.457 111.693V99.7159C291.461 97.632 292.209 95.6348 293.537 94.1627C294.866 92.6906 296.666 91.8638 298.543 91.8638V91.8638Z" fill="#92E3A9"/>
<path d="M386.258 57.3105H303.93C300.632 57.3105 297.47 58.7647 295.139 61.3532C292.807 63.9417 291.498 67.4525 291.498 71.1131V71.1131C291.498 74.7738 292.807 78.2845 295.139 80.873C297.47 83.4615 300.632 84.9157 303.93 84.9157H386.258V57.3105Z" fill="#92E3A9"/>
<path d="M423.68 25.458H393.746V118.242H423.68V25.458Z" fill="#92E3A9"/>
<path d="M461.101 25.458H431.167V118.242H461.101V25.458Z" fill="#92E3A9"/>
<path d="M498.521 25.458H468.587V118.242H498.521V25.458Z" fill="#92E3A9"/>
<path opacity="0.4" d="M298.543 91.8638H386.259V119.561H298.543C296.664 119.561 294.862 118.732 293.533 117.257C292.204 115.781 291.457 113.78 291.457 111.693V99.7159C291.461 97.632 292.209 95.6348 293.537 94.1627C294.866 92.6906 296.666 91.8638 298.543 91.8638V91.8638Z" fill="white"/>
<path opacity="0.4" d="M386.258 57.3105H303.93C300.632 57.3105 297.47 58.7647 295.139 61.3532C292.807 63.9417 291.498 67.4525 291.498 71.1131V71.1131C291.498 74.7738 292.807 78.2845 295.139 80.873C297.47 83.4615 300.632 84.9157 303.93 84.9157H386.258V57.3105Z" fill="white"/>
<path opacity="0.4" d="M423.68 25.458H393.746V118.242H423.68V25.458Z" fill="white"/>
<path opacity="0.4" d="M461.101 25.458H431.167V118.242H461.101V25.458Z" fill="white"/>
<path opacity="0.4" d="M498.521 25.458H468.587V118.242H498.521V25.458Z" fill="white"/>
<path d="M516.603 120.726H281.525V136.185H300.601V174.525H311.956V136.185H480.633V174.525H491.988V136.185H516.603V120.726Z" fill="#92E3A9"/>
<path opacity="0.1" d="M516.603 120.726H281.525V136.185H300.601V174.525H311.956V136.185H480.633V174.525H491.988V136.185H516.603V120.726Z" fill="black"/>
<path d="M235.83 166.736C233.155 167.7 230.531 168.832 227.97 170.125C229.352 168.975 230.733 167.809 232.115 166.598C238.36 161.045 244.296 155.079 249.893 148.731C243.307 155.825 236.272 162.385 228.841 168.361C229.859 166.384 230.759 164.335 231.534 162.227C232.916 158.362 233.178 154.559 229.849 152.396C225.705 149.85 220.801 153.669 222.114 160.218C222.897 163.852 224.439 167.23 226.617 170.079C221.789 173.797 216.745 177.158 211.519 180.139L211.021 180.415C212.127 178.293 213.101 176.09 213.936 173.821C215.317 169.956 215.594 166.076 212.265 163.99C208.12 161.429 203.203 165.248 204.529 171.812C205.301 175.4 206.814 178.739 208.949 181.566C202.664 185.001 196.172 187.915 189.707 191.089L188.768 191.565C190.03 190.057 191.202 188.458 192.276 186.78C194.376 183.36 195.509 179.664 192.705 176.781C189.265 173.238 183.629 175.677 183.532 182.394C183.539 186.119 184.319 189.793 185.812 193.129C179.772 196.236 174.033 200.018 168.683 204.417L168.517 204.555C169.248 203.287 169.908 201.971 170.492 200.613C172.081 196.871 172.661 192.945 169.484 190.675C168.836 190.176 168.095 189.846 167.315 189.712C166.536 189.578 165.739 189.643 164.986 189.901C164.232 190.16 163.541 190.606 162.966 191.205C162.391 191.804 161.946 192.541 161.666 193.359C161.251 192.624 160.676 192.017 159.994 191.596C156.789 189.54 153.64 191.764 150.946 194.908C150.242 195.721 149.565 196.595 148.943 197.485C151.031 191.058 153.653 184.861 156.776 178.974C159.74 180.428 162.942 181.19 166.183 181.213C172.564 181.213 175.258 175.308 172.122 171.643C169.581 168.668 165.989 169.803 162.605 171.965C161.486 172.686 160.395 173.499 159.373 174.327C162.629 168.901 166.328 163.818 170.423 159.144C173.091 161.538 176.191 163.269 179.513 164.22C185.715 165.923 189.61 160.923 187.359 156.552C185.535 152.979 181.833 153.117 178.048 154.313C176.28 154.907 174.546 155.619 172.855 156.445C174.54 154.62 176.294 152.856 178.062 151.123C180.397 148.915 182.8 146.783 185.245 144.713C187.883 147.043 190.933 148.731 194.196 149.666C200.385 151.369 204.28 146.369 202.042 141.998C200.219 138.425 196.517 138.578 192.732 139.775C191.862 140.051 190.978 140.388 190.121 140.741C193.354 138.18 196.641 135.68 199.929 133.18L202.968 130.88C205.713 133.419 208.93 135.252 212.389 136.247C218.591 137.95 222.473 132.95 220.235 128.579C218.412 124.99 214.709 125.144 210.925 126.34C209.455 126.82 208.011 127.394 206.601 128.058V128.058C207.236 127.567 207.858 127.061 208.48 126.524C209.64 125.604 210.773 124.668 211.905 123.702C213.287 122.537 214.668 121.233 216.049 120.006C216.823 119.316 217.569 118.58 218.315 117.828C221.055 120.414 224.292 122.271 227.777 123.257C233.979 124.96 237.875 119.975 235.637 115.589C233.814 112.016 230.112 112.154 226.313 113.35C224.236 114.062 222.201 114.917 220.221 115.911V115.911C222.749 113.304 225.194 110.59 227.515 107.753C227.68 107.553 227.819 107.354 227.97 107.154C228.979 105.928 229.96 104.685 230.913 103.412C231.866 102.139 233.081 100.345 234.131 98.8115C238.386 92.6178 241.883 85.8263 244.533 78.6138C241.768 85.7652 238.148 92.4711 233.772 98.5508C229.462 104.654 224.653 110.301 219.406 115.421L218.84 115.957C220.041 113.662 221.102 111.279 222.017 108.826C223.398 104.961 223.674 101.081 220.345 98.9956C216.201 96.4498 211.284 100.253 212.61 106.817C213.454 110.676 215.138 114.246 217.514 117.215L216.284 118.381C215.801 118.825 215.303 119.285 214.806 119.715C213.991 120.451 213.162 121.156 212.334 121.847L210.952 122.981C209.764 123.948 208.549 124.914 207.333 125.849L205.441 127.137L203.451 128.671C204.609 126.466 205.629 124.176 206.504 121.816C207.886 117.951 208.162 114.071 204.833 111.985C200.689 109.424 195.771 113.243 197.083 119.807C197.902 123.543 199.512 127.007 201.78 129.913L200.302 130.972L194.777 134.928L193.713 135.71C192.691 136.447 191.682 137.244 190.674 137.965C190.232 138.287 189.79 138.609 189.362 138.946C187.98 140.02 186.53 141.109 185.135 142.228C186.308 139.986 187.346 137.66 188.243 135.266C189.624 131.401 189.9 127.506 186.571 125.435C182.427 122.874 177.51 126.693 178.822 133.241C179.65 137.036 181.295 140.552 183.615 143.486C181.239 145.418 178.891 147.412 176.598 149.482C174.94 151.016 173.297 152.642 171.694 154.267C172.393 152.831 173.016 151.352 173.559 149.835C174.94 145.97 175.217 142.167 171.888 140.005C167.744 137.459 162.826 141.262 164.138 147.826C164.923 151.416 166.44 154.758 168.572 157.595C164.037 162.597 159.952 168.077 156.375 173.959C156.784 172.265 157.093 170.544 157.301 168.806C157.756 164.696 157.218 160.831 153.543 159.712C149.012 158.331 145.02 163.362 147.728 169.373C149.282 172.674 151.504 175.53 154.22 177.716C150.701 184.096 147.758 190.846 145.435 197.868C145.376 196.399 145.243 194.934 145.034 193.482C144.413 189.402 142.921 185.814 139.108 185.952C134.412 186.044 131.87 192.086 136 197.04C138.206 199.588 140.896 201.558 143.874 202.806C142.283 208.243 140.982 213.778 139.978 219.385C139.826 220.274 139.688 221.164 139.55 222.053C139.371 222.211 139.205 222.385 139.053 222.575C138.887 221.808 138.694 221.041 138.473 220.29C137.285 216.363 135.323 213.128 131.566 213.864C126.938 214.769 125.281 221.21 130.033 225.35C132.454 227.408 135.249 228.857 138.224 229.599C138.267 229.752 138.323 229.901 138.39 230.043C137.879 234.261 137.492 238.494 137.257 242.757C137.082 245.927 136.967 249.111 136.912 252.312C132.906 252.312 130.005 257.173 132.851 262.464C134.008 264.655 135.494 266.61 137.243 268.246C137.589 274.227 138.114 280.208 138.832 286.143C138.265 285.563 137.572 285.157 136.821 284.966C136.07 284.775 135.287 284.806 134.55 285.054C132.022 285.806 130.889 288.122 130.488 290.836C129.608 291.868 129.114 293.233 129.107 294.655C127.228 291.588 125.46 288.382 123.747 285.162C126.371 282.924 128.544 280.104 130.129 276.88C133.141 270.638 129.756 265.209 125.364 266.543C121.786 267.617 120.999 271.666 121.109 276.006C121.169 277.649 121.308 279.287 121.524 280.914L119.797 277.187C118.25 274.12 116.937 271.052 115.487 267.862C115.114 267.111 114.796 266.329 114.492 265.547C117.445 263.897 120.056 261.583 122.159 258.753C126.165 253.247 123.747 247.205 119.217 247.603C115.515 247.91 114.064 251.729 113.443 256.008C113.192 257.877 113.039 259.762 112.987 261.651L111.605 258.277C108.799 250.634 106.491 242.777 104.699 234.767C108.024 233.467 111.051 231.373 113.567 228.632C118.056 223.587 116.205 217.314 111.647 217.192C107.945 217.1 106.121 220.734 105.141 224.86C104.646 227.112 104.277 229.397 104.036 231.7C103.055 227.099 102.212 222.498 101.522 217.79C101.038 214.891 100.734 211.962 100.403 209.033C103.997 208.259 107.382 206.574 110.293 204.11C115.335 199.77 114.216 193.282 109.713 192.5C106.066 191.872 103.856 195.215 102.364 199.233C101.491 201.782 100.762 204.389 100.182 207.039C99.8915 203.634 99.5738 200.245 99.4357 196.84C99.0351 189.812 99.0628 182.762 99.5186 175.738C98.8694 182.758 98.6479 189.818 98.8555 196.871C98.8555 200.122 99.1042 203.358 99.2837 206.61C98.4999 204.398 97.5767 202.251 96.521 200.184C94.6148 196.626 92.0593 193.942 88.5368 195.583C84.1856 197.561 83.8126 204.263 89.2551 207.177C92.4636 208.808 95.9809 209.55 99.5048 209.34C99.7534 212.238 99.9744 215.137 100.361 218.004C100.914 222.605 101.618 227.206 102.433 231.669C101.544 229.937 100.551 228.271 99.4633 226.685C97.1426 223.433 94.3109 221.133 90.9956 223.234C86.8516 225.826 87.3212 232.512 93.0677 234.614C96.3239 235.743 99.7746 236 103.138 235.365C104.722 243.469 106.822 251.439 109.423 259.213L110.252 261.544C109.506 260.486 108.705 259.397 107.862 258.477C105.265 255.501 102.24 253.538 99.1318 255.992C95.3055 259.059 96.3691 265.639 102.212 267.096C105.483 267.836 108.863 267.725 112.089 266.774C112.379 267.571 112.669 268.307 113.014 269.151C114.396 272.341 115.667 275.623 117.158 278.766C117.573 279.671 118.001 280.561 118.429 281.45C117.697 280.76 116.937 280.085 116.15 279.472C113.111 277.079 109.796 275.776 107.157 278.843C103.925 282.616 106.025 288.904 112.075 289.103C115.191 289.15 118.278 288.443 121.123 287.033C122.85 290.514 124.645 293.949 126.565 297.323C127.284 298.611 128.03 299.884 128.776 301.157C127.679 300.021 126.522 298.961 125.308 297.983C122.256 295.59 118.94 294.287 116.316 297.354C113.07 301.127 115.169 307.414 121.22 307.614C124.679 307.659 128.098 306.786 131.193 305.068C132.188 306.602 133.224 308.135 134.301 309.669C132.049 312.567 132.782 317.49 137.354 319.668C139.597 320.699 141.987 321.28 144.413 321.386C144.689 321.646 144.979 321.892 145.269 322.122L145.421 322.245C146.485 326.661 147.645 331.048 148.86 335.403H128.361V407.652H179.692V335.357H155.781C153.723 327.551 151.996 320.757 151.637 320.573L150.919 320.19C153.613 319.166 156.117 317.607 158.309 315.589C163.171 310.988 161.79 304.562 157.273 304.025C153.585 303.565 151.513 307.016 150.2 311.11C149.822 312.277 149.499 313.464 149.233 314.668C148.971 313.58 148.709 312.491 148.46 311.402C147.714 308.181 147.079 304.93 146.388 301.694C149.314 300.654 152.03 298.992 154.386 296.802C159.248 292.201 157.867 285.79 153.35 285.238C149.662 284.794 147.603 288.306 146.277 292.324C145.896 293.511 145.569 294.719 145.297 295.943C144.868 293.581 144.468 291.219 144.095 288.842C143.819 287.063 143.57 285.3 143.335 283.536C143.238 281.021 143.211 278.49 143.238 275.975C143.238 274.58 143.238 273.199 143.349 271.804C146.089 272.788 148.969 273.198 151.844 273.015C158.226 272.555 160.574 266.497 157.245 263.047C154.483 260.256 151.015 261.636 147.755 264.028C146.313 265.135 144.93 266.334 143.611 267.617C144.003 261.686 144.816 255.799 146.042 250.011C146.77 246.616 147.664 243.267 148.722 239.981C151.65 241.105 154.747 241.585 157.839 241.392C164.207 240.947 166.569 234.874 163.24 231.439C160.478 228.632 157.01 230.028 153.75 232.42C152.594 233.292 151.478 234.228 150.408 235.227C151.635 232.016 153.066 228.905 154.69 225.918C157.944 219.906 162.016 214.49 166.763 209.861C169.208 212.348 172.091 214.243 175.23 215.428C181.308 217.636 185.522 212.974 183.519 208.404C181.944 204.693 178.214 204.524 174.374 205.337C172.923 205.695 171.489 206.135 170.078 206.656H170.175C175.384 202.132 180.999 198.216 186.931 194.969C189.03 198.014 191.697 200.52 194.749 202.316C200.426 205.567 205.261 201.733 204.004 196.871C202.982 192.914 199.321 192.102 195.412 192.27C193.88 192.365 192.353 192.554 190.84 192.838C197.153 189.525 203.59 186.397 209.806 182.747L209.944 182.67C212.738 185.334 216.046 187.249 219.613 188.268C225.816 189.97 229.711 184.97 227.459 180.599C225.65 177.011 221.934 177.164 218.149 178.36C217.099 178.682 216.063 179.112 215.041 179.541C219.186 176.861 223.207 173.948 227.086 170.815L227.418 171.198C227.41 171.142 227.41 171.086 227.418 171.03C230.208 173.717 233.516 175.658 237.087 176.704C243.29 178.391 247.185 173.407 244.947 169.036C243.262 165.478 239.532 165.478 235.83 166.736ZM137.962 307.537C136.705 305.896 135.489 304.179 134.315 302.446C134.605 302.154 134.909 301.832 135.213 301.495C136.96 302.105 138.77 302.465 140.6 302.568V302.89L141.456 302.706C141.898 305.145 142.368 307.599 142.838 310.037C142.262 309.205 141.512 308.542 140.652 308.106C139.792 307.671 138.85 307.475 137.906 307.537H137.962ZM142.534 249.045C142.106 250.87 141.733 252.71 141.387 254.551L141.18 254.229C141.18 250.446 141.231 246.668 141.332 242.895C141.429 240.242 141.608 237.604 141.816 234.982C142.956 236.289 144.221 237.456 145.587 238.463C144.378 241.925 143.341 245.458 142.479 249.045H142.534ZM148.28 231.638C148.28 230.948 148.418 230.243 148.46 229.568C148.46 229.215 148.46 228.862 148.46 228.525C148.957 228.356 149.468 228.157 149.979 227.927C149.344 229.154 148.805 230.381 148.225 231.638H148.28ZM155.56 218.495C155.317 217.883 154.966 217.331 154.527 216.872C154.088 216.414 153.57 216.058 153.005 215.827C149.551 214.293 146.747 217.084 144.523 220.642L144.413 220.826L144.191 220.75L143.473 220.642C143.473 220.428 143.542 220.213 143.57 219.998C144.458 214.391 145.653 208.85 147.148 203.404C150.361 203.849 153.622 203.568 156.734 202.576C158.638 202.039 160.305 200.76 161.431 198.972C162.057 202.099 163.23 205.059 164.884 207.683C161.433 210.922 158.291 214.545 155.505 218.495H155.56Z" fill="#92E3A9"/>
<path d="M264.368 191.949H509.931C512.861 191.949 515.672 193.241 517.745 195.542C519.817 197.843 520.981 200.964 520.981 204.218V395.521H253.358V204.172C253.369 200.934 254.533 197.832 256.595 195.542C258.657 193.253 261.451 191.961 264.368 191.949Z" fill="#263238" stroke="#263238" stroke-width="0.976822" stroke-linecap="round" stroke-linejoin="round"/>
<path d="M561.082 485.499H213.216L253.358 395.506H520.94L561.082 485.499Z" fill="white" stroke="#263238" stroke-width="0.976822" stroke-linecap="round" stroke-linejoin="round"/>
<path d="M504.736 208.067H269.561V379.388H504.736V208.067Z" fill="#92E3A9" stroke="#263238" stroke-width="0.976822" stroke-linecap="round" stroke-linejoin="round"/>
<path d="M375.981 423.985L376.451 413.02H362.306L361.367 423.985H375.981Z" fill="#263238" stroke="white" stroke-width="0.976822" stroke-linecap="round" stroke-linejoin="round"/>
<path d="M405.21 423.985L404.727 413.02H390.582L390.595 423.985H405.21Z" fill="#263238" stroke="white" stroke-width="0.976822" stroke-linecap="round" stroke-linejoin="round"/>
<path d="M481.309 435.717H496.421L492.871 423.985H478.27L481.309 435.717Z" fill="#263238" stroke="white" stroke-width="0.976822" stroke-linecap="round" stroke-linejoin="round"/>
<path d="M361.366 423.985L362.305 413.02H348.174L346.765 423.985H361.366Z" fill="#263238" stroke="white" stroke-width="0.976822" stroke-linecap="round" stroke-linejoin="round"/>
<path d="M332.151 423.985L334.029 413.02H319.898L317.536 423.985H332.151Z" fill="#263238" stroke="white" stroke-width="0.976822" stroke-linecap="round" stroke-linejoin="round"/>
<path d="M463.656 423.985L461.28 413.02H447.148L449.041 423.985H463.656Z" fill="#263238" stroke="white" stroke-width="0.976822" stroke-linecap="round" stroke-linejoin="round"/>
<path d="M478.27 423.985L475.424 413.02H461.279L463.655 423.985H478.27Z" fill="#263238" stroke="white" stroke-width="0.976822" stroke-linecap="round" stroke-linejoin="round"/>
<path d="M317.537 423.985L319.899 413.02H305.754L302.922 423.985H317.537Z" fill="#263238" stroke="white" stroke-width="0.976822" stroke-linecap="round" stroke-linejoin="round"/>
<path d="M419.811 423.985L418.858 413.02H404.727L405.21 423.985H419.811Z" fill="#263238" stroke="white" stroke-width="0.976822" stroke-linecap="round" stroke-linejoin="round"/>
<path d="M492.871 423.985L489.556 413.02H475.424L478.27 423.985H492.871Z" fill="#263238" stroke="white" stroke-width="0.976822" stroke-linecap="round" stroke-linejoin="round"/>
<path d="M449.041 423.985L447.148 413.02H433.003L434.426 423.985H449.041Z" fill="#263238" stroke="white" stroke-width="0.976822" stroke-linecap="round" stroke-linejoin="round"/>
<path d="M434.425 423.985L433.002 413.02H418.857L419.81 423.985H434.425Z" fill="#263238" stroke="white" stroke-width="0.976822" stroke-linecap="round" stroke-linejoin="round"/>
<path d="M390.595 423.985L390.582 413.02H376.45L375.981 423.985H390.595Z" fill="#263238" stroke="white" stroke-width="0.976822" stroke-linecap="round" stroke-linejoin="round"/>
<path d="M288.321 423.985H273.706L269.672 435.717H284.784L288.321 423.985Z" fill="#263238" stroke="white" stroke-width="0.976822" stroke-linecap="round" stroke-linejoin="round"/>
<path d="M291.608 413.02H277.477L273.706 423.985H288.321L291.608 413.02Z" fill="#263238" stroke="white" stroke-width="0.976822" stroke-linecap="round" stroke-linejoin="round"/>
<path d="M302.922 423.985L305.754 413.02H291.609L288.321 423.985H302.922Z" fill="#263238" stroke="white" stroke-width="0.976822" stroke-linecap="round" stroke-linejoin="round"/>
<path d="M265.349 448.278L260.694 461.774H276.939L281 448.278H265.349Z" fill="#263238" stroke="white" stroke-width="0.976822" stroke-linecap="round" stroke-linejoin="round"/>
<path d="M284.784 435.718H269.672L265.348 448.278H280.999L284.784 435.718Z" fill="#263238" stroke="white" stroke-width="0.976822" stroke-linecap="round" stroke-linejoin="round"/>
<path d="M280.999 448.278L276.938 461.774H293.182L296.663 448.278H280.999Z" fill="#263238" stroke="white" stroke-width="0.976822" stroke-linecap="round" stroke-linejoin="round"/>
<path d="M346.766 423.985L348.175 413.02H334.029L332.151 423.985H346.766Z" fill="#263238" stroke="white" stroke-width="0.976822" stroke-linecap="round" stroke-linejoin="round"/>
<path d="M345.246 435.717L346.766 423.985H332.151L330.134 435.717H345.246Z" fill="#263238" stroke="white" stroke-width="0.976822" stroke-linecap="round" stroke-linejoin="round"/>
<path d="M330.133 435.717L332.15 423.985H317.535L315.021 435.717H330.133Z" fill="#263238" stroke="white" stroke-width="0.976822" stroke-linecap="round" stroke-linejoin="round"/>
<path d="M360.372 435.717L361.366 423.985H346.766L345.246 435.717H360.372Z" fill="#263238" stroke="white" stroke-width="0.976822" stroke-linecap="round" stroke-linejoin="round"/>
<path d="M302.921 423.985H288.32L284.784 435.717H299.896L302.921 423.985Z" fill="#263238" stroke="white" stroke-width="0.976822" stroke-linecap="round" stroke-linejoin="round"/>
<path d="M484.568 448.278H500.233L496.42 435.718H481.308L484.568 448.278Z" fill="#263238" stroke="white" stroke-width="0.976822" stroke-linecap="round" stroke-linejoin="round"/>
<path d="M315.022 435.717L317.536 423.985H302.921L299.896 435.717H315.022Z" fill="#263238" stroke="white" stroke-width="0.976822" stroke-linecap="round" stroke-linejoin="round"/>
<path d="M284.784 435.718L280.999 448.278H296.663L299.896 435.718H284.784Z" fill="#263238" stroke="white" stroke-width="0.976822" stroke-linecap="round" stroke-linejoin="round"/>
<path d="M451.071 435.717L449.041 423.985H434.426L435.959 435.717H451.071Z" fill="#263238" stroke="white" stroke-width="0.976822" stroke-linecap="round" stroke-linejoin="round"/>
<path d="M435.959 435.717L434.425 423.985H419.811L420.833 435.717H435.959Z" fill="#263238" stroke="white" stroke-width="0.976822" stroke-linecap="round" stroke-linejoin="round"/>
<path d="M481.309 435.717L478.27 423.985H463.655L466.183 435.717H481.309Z" fill="#263238" stroke="white" stroke-width="0.976822" stroke-linecap="round" stroke-linejoin="round"/>
<path d="M390.609 435.717L390.595 423.985H375.98L375.483 435.717H390.609Z" fill="#263238" stroke="white" stroke-width="0.976822" stroke-linecap="round" stroke-linejoin="round"/>
<path d="M420.833 435.717L419.811 423.985H405.21L405.721 435.717H420.833Z" fill="#263238" stroke="white" stroke-width="0.976822" stroke-linecap="round" stroke-linejoin="round"/>
<path d="M405.721 435.717L405.21 423.985H390.596L390.609 435.717H405.721Z" fill="#263238" stroke="white" stroke-width="0.976822" stroke-linecap="round" stroke-linejoin="round"/>
<path d="M375.484 435.717L375.982 423.985H361.367L360.372 435.717H375.484Z" fill="#263238" stroke="white" stroke-width="0.976822" stroke-linecap="round" stroke-linejoin="round"/>
<path d="M420.834 435.718L421.939 448.278H437.59L435.96 435.718H420.834Z" fill="#263238" stroke="white" stroke-width="0.976822" stroke-linecap="round" stroke-linejoin="round"/>
<path d="M435.959 435.718L437.589 448.278H453.254L451.071 435.718H435.959Z" fill="#263238" stroke="white" stroke-width="0.976822" stroke-linecap="round" stroke-linejoin="round"/>
<path d="M299.896 435.718L296.664 448.278H312.329L315.022 435.718H299.896Z" fill="#263238" stroke="white" stroke-width="0.976822" stroke-linecap="round" stroke-linejoin="round"/>
<path d="M451.071 435.718L453.254 448.278H468.905L466.183 435.718H451.071Z" fill="#263238" stroke="white" stroke-width="0.976822" stroke-linecap="round" stroke-linejoin="round"/>
<path d="M390.609 435.718V448.278H406.274L405.721 435.718H390.609Z" fill="#263238" stroke="white" stroke-width="0.976822" stroke-linecap="round" stroke-linejoin="round"/>
<path d="M466.183 435.718L468.904 448.278H484.569L481.309 435.718H466.183Z" fill="#263238" stroke="white" stroke-width="0.976822" stroke-linecap="round" stroke-linejoin="round"/>
<path d="M405.721 435.718L406.274 448.278H421.938L420.833 435.718H405.721Z" fill="#263238" stroke="white" stroke-width="0.976822" stroke-linecap="round" stroke-linejoin="round"/>
<path d="M330.134 435.718L327.979 448.278H343.644L345.246 435.718H330.134Z" fill="#263238" stroke="white" stroke-width="0.976822" stroke-linecap="round" stroke-linejoin="round"/>
<path d="M315.022 435.718L312.328 448.278H327.979L330.134 435.718H315.022Z" fill="#263238" stroke="white" stroke-width="0.976822" stroke-linecap="round" stroke-linejoin="round"/>
<path d="M375.483 435.718L374.958 448.278H390.609V435.718H375.483Z" fill="#263238" stroke="white" stroke-width="0.976822" stroke-linecap="round" stroke-linejoin="round"/>
<path d="M360.371 435.718L359.293 448.278H374.958L375.483 435.718H360.371Z" fill="#263238" stroke="white" stroke-width="0.976822" stroke-linecap="round" stroke-linejoin="round"/>
<path d="M345.246 435.718L343.644 448.278H359.295L360.372 435.718H345.246Z" fill="#263238" stroke="white" stroke-width="0.976822" stroke-linecap="round" stroke-linejoin="round"/>
<path d="M466.184 435.717L463.656 423.985H449.041L451.072 435.717H466.184Z" fill="#263238" stroke="white" stroke-width="0.976822" stroke-linecap="round" stroke-linejoin="round"/>
<path d="M291.608 413.02L294.992 401.794H281.33L277.476 413.02H291.608Z" fill="#263238" stroke="white" stroke-width="0.976822" stroke-linecap="round" stroke-linejoin="round"/>
<path d="M277.476 413.02H264.422L260.209 423.985H273.705L277.476 413.02Z" fill="#263238" stroke="white" stroke-width="0.976822" stroke-linecap="round" stroke-linejoin="round"/>
<path d="M281.331 401.794H268.733L264.424 413.02H277.477L281.331 401.794Z" fill="#263238" stroke="white" stroke-width="0.976822" stroke-linecap="round" stroke-linejoin="round"/>
<path d="M273.705 423.985H260.209L255.72 435.717H269.672L273.705 423.985Z" fill="#263238" stroke="white" stroke-width="0.976822" stroke-linecap="round" stroke-linejoin="round"/>
<path d="M269.672 435.718H255.721L250.886 448.278H265.349L269.672 435.718Z" fill="#263238" stroke="white" stroke-width="0.976822" stroke-linecap="round" stroke-linejoin="round"/>
<path d="M265.348 448.278H250.885L245.705 461.774H260.693L265.348 448.278Z" fill="#263238" stroke="white" stroke-width="0.976822" stroke-linecap="round" stroke-linejoin="round"/>
<path d="M507.486 423.985L511.548 435.717H524.919L520.416 423.985H507.486Z" fill="#263238" stroke="white" stroke-width="0.976822" stroke-linecap="round" stroke-linejoin="round"/>
<path d="M515.884 448.278H529.739L524.918 435.718H511.546L515.884 448.278Z" fill="#263238" stroke="white" stroke-width="0.976822" stroke-linecap="round" stroke-linejoin="round"/>
<path d="M520.552 461.774H534.918L529.738 448.278H515.883L520.552 461.774Z" fill="#263238" stroke="white" stroke-width="0.976822" stroke-linecap="round" stroke-linejoin="round"/>
<path d="M404.727 413.02L404.229 401.794H390.582V413.02H404.727Z" fill="#263238" stroke="white" stroke-width="0.976822" stroke-linecap="round" stroke-linejoin="round"/>
<path d="M507.486 423.985H520.415L516.202 413.02H503.701L507.486 423.985Z" fill="#263238" stroke="white" stroke-width="0.976822" stroke-linecap="round" stroke-linejoin="round"/>
<path d="M500.233 448.278H515.884L511.547 435.718H496.421L500.233 448.278Z" fill="#263238" stroke="white" stroke-width="0.976822" stroke-linecap="round" stroke-linejoin="round"/>
<path d="M305.753 413.02L308.64 401.794H294.993L291.608 413.02H305.753Z" fill="#263238" stroke="white" stroke-width="0.976822" stroke-linecap="round" stroke-linejoin="round"/>
<path d="M489.556 413.02L492.871 423.985H507.486L503.701 413.02H489.556Z" fill="#263238" stroke="white" stroke-width="0.976822" stroke-linecap="round" stroke-linejoin="round"/>
<path d="M516.201 413.02L511.891 401.794H499.818L503.7 413.02H516.201Z" fill="#263238" stroke="white" stroke-width="0.976822" stroke-linecap="round" stroke-linejoin="round"/>
<path d="M503.701 413.02L499.819 401.794H486.158L489.556 413.02H503.701Z" fill="#263238" stroke="white" stroke-width="0.976822" stroke-linecap="round" stroke-linejoin="round"/>
<path d="M453.253 448.278L455.587 461.774H471.832L468.904 448.278H453.253Z" fill="#263238" stroke="white" stroke-width="0.976822" stroke-linecap="round" stroke-linejoin="round"/>
<path d="M504.308 461.774H520.552L515.883 448.278H500.233L504.308 461.774Z" fill="#263238" stroke="white" stroke-width="0.976822" stroke-linecap="round" stroke-linejoin="round"/>
<path d="M489.555 413.02L486.157 401.794H472.509L475.424 413.02H489.555Z" fill="#263238" stroke="white" stroke-width="0.976822" stroke-linecap="round" stroke-linejoin="round"/>
<path d="M484.569 448.278L488.078 461.774H504.309L500.234 448.278H484.569Z" fill="#263238" stroke="white" stroke-width="0.976822" stroke-linecap="round" stroke-linejoin="round"/>
<path d="M468.904 448.278L471.832 461.774H488.077L484.568 448.278H468.904Z" fill="#263238" stroke="white" stroke-width="0.976822" stroke-linecap="round" stroke-linejoin="round"/>
<path d="M496.421 435.717H511.547L507.486 423.985H492.871L496.421 435.717Z" fill="#263238" stroke="white" stroke-width="0.976822" stroke-linecap="round" stroke-linejoin="round"/>
<path d="M362.305 413.02L363.272 401.794H349.61L348.174 413.02H362.305Z" fill="#263238" stroke="white" stroke-width="0.976822" stroke-linecap="round" stroke-linejoin="round"/>
<path d="M475.424 413.02L472.509 401.794H458.848L461.279 413.02H475.424Z" fill="#263238" stroke="white" stroke-width="0.976822" stroke-linecap="round" stroke-linejoin="round"/>
<path d="M348.174 413.02L349.611 401.794H335.963L334.029 413.02H348.174Z" fill="#263238" stroke="white" stroke-width="0.976822" stroke-linecap="round" stroke-linejoin="round"/>
<path d="M390.582 413.02V401.794H376.921L376.451 413.02H390.582Z" fill="#263238" stroke="white" stroke-width="0.976822" stroke-linecap="round" stroke-linejoin="round"/>
<path d="M334.029 413.02L335.963 401.794H322.301L319.897 413.02H334.029Z" fill="#263238" stroke="white" stroke-width="0.976822" stroke-linecap="round" stroke-linejoin="round"/>
<path d="M319.898 413.02L322.302 401.794H308.64L305.753 413.02H319.898Z" fill="#263238" stroke="white" stroke-width="0.976822" stroke-linecap="round" stroke-linejoin="round"/>
<path d="M376.45 413.02L376.919 401.794H363.272L362.305 413.02H376.45Z" fill="#263238" stroke="white" stroke-width="0.976822" stroke-linecap="round" stroke-linejoin="round"/>
<path d="M461.279 413.02L458.848 401.794H445.2L447.148 413.02H461.279Z" fill="#263238" stroke="white" stroke-width="0.976822" stroke-linecap="round" stroke-linejoin="round"/>
<path d="M447.148 413.02L445.201 401.794H431.539L433.003 413.02H447.148Z" fill="#263238" stroke="white" stroke-width="0.976822" stroke-linecap="round" stroke-linejoin="round"/>
<path d="M418.858 413.02L417.892 401.794H404.23L404.727 413.02H418.858Z" fill="#263238" stroke="white" stroke-width="0.976822" stroke-linecap="round" stroke-linejoin="round"/>
<path d="M453.253 448.278H437.589H421.938H406.274H390.609H374.958H359.294H343.643H327.979H312.328H296.663L293.182 461.774H309.427H325.658H341.903H358.147H374.392H390.623H406.868H423.112H439.343H455.588L453.253 448.278Z" fill="#263238" stroke="white" stroke-width="0.976822" stroke-linecap="round" stroke-linejoin="round"/>
<path d="M433.002 413.02L431.538 401.794H417.89L418.857 413.02H433.002Z" fill="#263238" stroke="white" stroke-width="0.976822" stroke-linecap="round" stroke-linejoin="round"/>
<path d="M561.234 485.484H213.216V490.959H561.234V485.484Z" fill="#263238" stroke="#263238" stroke-width="0.976822" stroke-linecap="round" stroke-linejoin="round"/>
<path opacity="0.15" d="M480.205 247.142V394.508L441.624 450.347L435.132 453.046L237.212 485.467V492.675L164.718 497V417.926H288.322V246.437L480.205 247.142Z" fill="black"/>
<path d="M120.266 402.115C111.356 402.606 101.701 410.151 101.701 410.151L1 497H164.718C164.718 497 268.084 410.396 271.179 407.912C276.082 403.986 285.807 401.992 285.807 401.992L281.207 402.115H120.266Z" fill="white" stroke="#263238" stroke-width="0.976822" stroke-linecap="round" stroke-linejoin="round"/>
<path d="M496.906 247.281H277.81" stroke="#263238" stroke-width="0.976822" stroke-linecap="round" stroke-linejoin="round"/>
<path d="M463.864 194.861C461.716 194.859 459.589 195.328 457.605 196.24C455.62 197.152 453.818 198.489 452.3 200.176C450.782 201.863 449.578 203.866 448.759 206.069C447.939 208.273 447.519 210.635 447.522 213.019V436.023C447.517 438.964 446.877 441.861 445.656 444.471C444.434 447.081 442.668 449.328 440.503 451.023C438.339 452.719 435.84 453.814 433.215 454.217C430.591 454.619 427.918 454.318 425.421 453.338L301.472 404.461C294.971 401.891 287.94 401.454 281.221 403.204V213.019C281.221 208.208 282.943 203.593 286.008 200.191C289.072 196.788 293.229 194.877 297.563 194.877L463.864 194.861Z" fill="white"/>
<path d="M316.694 410.474L425.407 453.338C427.904 454.319 430.577 454.62 433.201 454.218C435.826 453.815 438.325 452.72 440.489 451.024C442.654 449.329 444.42 447.082 445.642 444.472C446.863 441.862 447.503 438.965 447.508 436.024V410.474H316.694Z" fill="#92E3A9"/>
<path opacity="0.6" d="M316.694 410.474L425.407 453.338C427.904 454.319 430.577 454.62 433.201 454.218C435.826 453.815 438.325 452.72 440.489 451.024C442.654 449.329 444.42 447.082 445.642 444.472C446.863 441.862 447.503 438.965 447.508 436.024V410.474H316.694Z" fill="white"/>
<path d="M316.694 439.843L425.407 482.784C427.905 483.765 430.58 484.066 433.205 483.663C435.83 483.259 438.33 482.163 440.495 480.466C442.659 478.768 444.426 476.519 445.646 473.907C446.867 471.295 447.505 468.397 447.508 465.454V439.843H316.694Z" fill="#92E3A9"/>
<path d="M463.864 194.861C461.716 194.859 459.589 195.328 457.605 196.24C455.62 197.152 453.818 198.489 452.3 200.176C450.782 201.863 449.578 203.866 448.759 206.069C447.939 208.273 447.519 210.635 447.522 213.019V436.023C447.517 438.964 446.877 441.861 445.656 444.471C444.434 447.081 442.668 449.328 440.503 451.023C438.339 452.719 435.84 453.814 433.215 454.217C430.591 454.619 427.918 454.318 425.421 453.338L301.472 404.461C294.971 401.891 287.94 401.454 281.221 403.204V213.019C281.221 208.208 282.943 203.593 286.008 200.191C289.072 196.788 293.229 194.877 297.563 194.877L463.864 194.861Z" stroke="#263238" stroke-width="0.976822" stroke-linecap="round" stroke-linejoin="round"/>
<path d="M288.252 402.115H281.207" stroke="#263238" stroke-width="0.976822" stroke-linecap="round" stroke-linejoin="round"/>
<path d="M430.974 454.426H264.659C262.775 454.417 260.906 454.049 259.134 453.338L230.416 442.127L266.124 411.608C270.945 407.096 276.745 404.063 282.948 402.809C289.152 401.555 295.542 402.125 301.486 404.461L425.435 453.338C427.212 454.05 429.085 454.418 430.974 454.426V454.426Z" fill="white"/>
<path d="M430.973 454.426H264.658C262.774 454.417 260.905 454.049 259.133 453.338L228.633 441.529L266.095 411.608C270.916 407.096 276.716 404.063 282.919 402.809C289.123 401.555 295.514 402.125 301.457 404.461L425.406 453.338C427.191 454.053 429.075 454.422 430.973 454.426V454.426Z" fill="#92E3A9"/>
<path opacity="0.2" d="M430.973 454.426H264.658C262.774 454.417 260.905 454.049 259.133 453.338L228.633 441.529L266.095 411.608C270.916 407.096 276.716 404.063 282.919 402.809C289.123 401.555 295.514 402.125 301.457 404.461L425.406 453.338C427.191 454.053 429.075 454.422 430.973 454.426V454.426Z" fill="black"/>
<path d="M430.974 454.426H264.659C262.775 454.417 260.906 454.049 259.134 453.338L230.416 442.127L266.124 411.608C270.945 407.096 276.745 404.063 282.948 402.809C289.152 401.555 295.542 402.125 301.486 404.461L425.435 453.338C427.212 454.05 429.085 454.418 430.974 454.426V454.426Z" stroke="#263238" stroke-width="0.976822" stroke-linecap="round" stroke-linejoin="round"/>
<path d="M264.658 454.427H264.299" stroke="#263238" stroke-width="0.976822" stroke-linecap="round" stroke-linejoin="round"/>
<path d="M431.292 454.427H430.974" stroke="#263238" stroke-width="0.976822" stroke-linecap="round" stroke-linejoin="round"/>
<path d="M475.411 200.183C473.899 198.492 472.1 197.15 470.118 196.237C468.135 195.323 466.009 194.856 463.863 194.861C446.845 194.861 447.522 213.004 447.522 213.004V247.142H480.205V213.019C480.21 210.634 479.789 208.272 478.966 206.068C478.143 203.865 476.935 201.864 475.411 200.183V200.183Z" fill="white"/>
<path d="M475.411 200.184C473.899 198.492 472.099 197.151 470.117 196.237C468.135 195.324 466.009 194.856 463.862 194.862C446.844 194.862 447.521 213.005 447.521 213.005V247.143H480.204V213.02C480.209 210.635 479.788 208.272 478.965 206.069C478.143 203.865 476.934 201.865 475.411 200.184V200.184Z" fill="#92E3A9"/>
<path opacity="0.2" d="M475.411 200.184C473.899 198.492 472.099 197.151 470.117 196.237C468.135 195.324 466.009 194.856 463.862 194.862C446.844 194.862 447.521 213.005 447.521 213.005V247.143H480.204V213.02C480.209 210.635 479.788 208.272 478.965 206.069C478.143 203.865 476.934 201.865 475.411 200.184V200.184Z" fill="black"/>
<path d="M475.411 200.183C473.899 198.492 472.1 197.15 470.118 196.237C468.135 195.323 466.009 194.856 463.863 194.861C446.845 194.861 447.522 213.004 447.522 213.004V247.142H480.205V213.019C480.21 210.634 479.789 208.272 478.966 206.068C478.143 203.865 476.935 201.864 475.411 200.183V200.183Z" stroke="#263238" stroke-width="0.976822" stroke-linecap="round" stroke-linejoin="round"/>
<g opacity="0.15">
<path d="M296.471 226.117V226.439V234.184V234.506V242.251V242.573V250.302V250.624V258.369V258.691V266.436V266.758V274.487V274.809V282.554V282.876V290.621V290.943V298.672V298.995V306.739V307.061V315.128H312.26V307.061V306.739V298.995V298.672V290.943V290.621V282.876V282.554V274.809V274.487V266.758V266.436V258.691V258.369V250.624V250.302V242.573V242.251V234.506V234.184V226.439V226.117V218.065H296.471V226.117Z" fill="black"/>
<path d="M420.958 218.065H420.626H405.514H405.169H390.057H389.712H374.614H374.268H359.156H358.811H343.713H343.367H328.255H327.91H312.467V226.439H327.91H328.255H343.367H343.713H358.811H359.156H374.268H374.614H389.712H390.057H405.169H405.514H420.626H420.958H436.415V218.065H420.958Z" fill="black"/>
</g>
<path d="M312.26 218.065H296.471V226.454H312.26V218.065Z" stroke="#263238" stroke-width="0.244206" stroke-linecap="round" stroke-linejoin="round"/>
<path d="M312.26 226.117H296.471V234.506H312.26V226.117Z" stroke="#263238" stroke-width="0.244206" stroke-linecap="round" stroke-linejoin="round"/>
<path d="M312.26 234.184H296.471V242.572H312.26V234.184Z" stroke="#263238" stroke-width="0.244206" stroke-linecap="round" stroke-linejoin="round"/>
<path d="M312.26 242.251H296.471V250.64H312.26V242.251Z" stroke="#263238" stroke-width="0.244206" stroke-linecap="round" stroke-linejoin="round"/>
<path d="M312.26 250.302H296.471V258.691H312.26V250.302Z" stroke="#263238" stroke-width="0.244206" stroke-linecap="round" stroke-linejoin="round"/>
<path d="M312.26 258.369H296.471V266.758H312.26V258.369Z" stroke="#263238" stroke-width="0.244206" stroke-linecap="round" stroke-linejoin="round"/>
<path d="M312.26 266.436H296.471V274.824H312.26V266.436Z" stroke="#263238" stroke-width="0.244206" stroke-linecap="round" stroke-linejoin="round"/>
<path d="M312.26 274.488H296.471V282.877H312.26V274.488Z" stroke="#263238" stroke-width="0.244206" stroke-linecap="round" stroke-linejoin="round"/>
<path d="M312.26 282.554H296.471V290.943H312.26V282.554Z" stroke="#263238" stroke-width="0.244206" stroke-linecap="round" stroke-linejoin="round"/>
<path d="M312.26 290.621H296.471V299.01H312.26V290.621Z" stroke="#263238" stroke-width="0.244206" stroke-linecap="round" stroke-linejoin="round"/>
<path d="M312.26 298.672H296.471V307.061H312.26V298.672Z" stroke="#263238" stroke-width="0.244206" stroke-linecap="round" stroke-linejoin="round"/>
<path d="M312.26 306.74H296.471V315.129H312.26V306.74Z" stroke="#263238" stroke-width="0.244206" stroke-linecap="round" stroke-linejoin="round"/>
<path d="M328.257 218.065H312.468V226.454H328.257V218.065Z" stroke="#263238" stroke-width="0.244206" stroke-linecap="round" stroke-linejoin="round"/>
<path d="M343.7 218.065H327.911V226.454H343.7V218.065Z" stroke="#263238" stroke-width="0.244206" stroke-linecap="round" stroke-linejoin="round"/>
<path d="M359.157 218.065H343.369V226.454H359.157V218.065Z" stroke="#263238" stroke-width="0.244206" stroke-linecap="round" stroke-linejoin="round"/>
<path d="M374.601 218.065H358.812V226.454H374.601V218.065Z" stroke="#263238" stroke-width="0.244206" stroke-linecap="round" stroke-linejoin="round"/>
<path d="M390.057 218.065H374.269V226.454H390.057V218.065Z" stroke="#263238" stroke-width="0.244206" stroke-linecap="round" stroke-linejoin="round"/>
<path d="M405.502 218.065H389.713V226.454H405.502V218.065Z" stroke="#263238" stroke-width="0.244206" stroke-linecap="round" stroke-linejoin="round"/>
<path d="M420.959 218.065H405.17V226.454H420.959V218.065Z" stroke="#263238" stroke-width="0.244206" stroke-linecap="round" stroke-linejoin="round"/>
<path d="M436.417 218.065H420.628V226.454H436.417V218.065Z" stroke="#263238" stroke-width="0.244206" stroke-linecap="round" stroke-linejoin="round"/>
<path d="M436.402 226.438H312.26V315.112H436.402V226.438Z" stroke="#263238" stroke-width="0.244206" stroke-linecap="round" stroke-linejoin="round"/>
<path d="M328.05 226.438V315.097" stroke="#263238" stroke-width="0.244206" stroke-linecap="round" stroke-linejoin="round"/>
<path d="M343.506 226.438V315.097" stroke="#263238" stroke-width="0.244206" stroke-linecap="round" stroke-linejoin="round"/>
<path d="M358.964 226.438V315.097" stroke="#263238" stroke-width="0.244206" stroke-linecap="round" stroke-linejoin="round"/>
<path d="M374.42 226.438V315.097" stroke="#263238" stroke-width="0.244206" stroke-linecap="round" stroke-linejoin="round"/>
<path d="M389.865 226.438V315.097" stroke="#263238" stroke-width="0.244206" stroke-linecap="round" stroke-linejoin="round"/>
<path d="M405.322 226.438V315.097" stroke="#263238" stroke-width="0.244206" stroke-linecap="round" stroke-linejoin="round"/>
<path d="M420.78 226.438V315.097" stroke="#263238" stroke-width="0.244206" stroke-linecap="round" stroke-linejoin="round"/>
<path d="M312.26 234.506H436.32" stroke="#263238" stroke-width="0.244206" stroke-linecap="round" stroke-linejoin="round"/>
<path d="M312.26 242.542H436.32" stroke="#263238" stroke-width="0.244206" stroke-linecap="round" stroke-linejoin="round"/>
<path d="M312.26 250.578H436.32" stroke="#263238" stroke-width="0.244206" stroke-linecap="round" stroke-linejoin="round"/>
<path d="M312.26 258.614H436.32" stroke="#263238" stroke-width="0.244206" stroke-linecap="round" stroke-linejoin="round"/>
<path d="M312.26 266.65H436.32" stroke="#263238" stroke-width="0.244206" stroke-linecap="round" stroke-linejoin="round"/>
<path d="M312.26 274.672H436.32" stroke="#263238" stroke-width="0.244206" stroke-linecap="round" stroke-linejoin="round"/>
<path d="M312.26 282.707H436.32" stroke="#263238" stroke-width="0.244206" stroke-linecap="round" stroke-linejoin="round"/>
<path d="M312.26 290.743H436.32" stroke="#263238" stroke-width="0.244206" stroke-linecap="round" stroke-linejoin="round"/>
<path d="M312.26 298.78H436.32" stroke="#263238" stroke-width="0.244206" stroke-linecap="round" stroke-linejoin="round"/>
<path d="M312.26 306.816H436.32" stroke="#263238" stroke-width="0.244206" stroke-linecap="round" stroke-linejoin="round"/>
<path d="M233.124 423.709H100.03L109.216 415.964H242.31L233.124 423.709Z" fill="#92E3A9"/>
<path d="M29.5945 485.882H26.3345L109.216 415.964H112.489L29.5945 485.882Z" fill="#92E3A9"/>
<path d="M203.796 448.4H70.7163L81.1179 439.75H214.197L203.796 448.4Z" fill="#263238"/>
<path d="M158.999 486.235H25.9053L109.215 415.964H242.308L158.999 486.235Z" stroke="#263238" stroke-width="0.244206" stroke-linecap="round" stroke-linejoin="round"/>
<path d="M122.932 416.225L39.9814 486.188" stroke="#263238" stroke-width="0.244206" stroke-linecap="round" stroke-linejoin="round"/>
<path d="M136.304 416.225L53.354 486.188" stroke="#263238" stroke-width="0.244206" stroke-linecap="round" stroke-linejoin="round"/>
<path d="M149.661 416.225L66.7109 486.188" stroke="#263238" stroke-width="0.244206" stroke-linecap="round" stroke-linejoin="round"/>
<path d="M163.033 416.225L80.083 486.188" stroke="#263238" stroke-width="0.244206" stroke-linecap="round" stroke-linejoin="round"/>
<path d="M176.404 416.225L93.4541 486.188" stroke="#263238" stroke-width="0.244206" stroke-linecap="round" stroke-linejoin="round"/>
<path d="M189.775 416.225L106.811 486.188" stroke="#263238" stroke-width="0.244206" stroke-linecap="round" stroke-linejoin="round"/>
<path d="M203.133 416.225L120.183 486.188" stroke="#263238" stroke-width="0.244206" stroke-linecap="round" stroke-linejoin="round"/>
<path d="M216.504 416.225L133.554 486.188" stroke="#263238" stroke-width="0.244206" stroke-linecap="round" stroke-linejoin="round"/>
<path d="M229.876 416.225L146.912 486.188" stroke="#263238" stroke-width="0.244206" stroke-linecap="round" stroke-linejoin="round"/>
<path d="M91.8799 430.778H224.573" stroke="#263238" stroke-width="0.244206" stroke-linecap="round" stroke-linejoin="round"/>
<path d="M81.2852 439.719H213.978" stroke="#263238" stroke-width="0.244206" stroke-linecap="round" stroke-linejoin="round"/>
<path d="M70.6899 448.661H203.383" stroke="#263238" stroke-width="0.244206" stroke-linecap="round" stroke-linejoin="round"/>
<path d="M60.0938 457.585H192.786" stroke="#263238" stroke-width="0.244206" stroke-linecap="round" stroke-linejoin="round"/>
<path d="M49.499 466.527H182.192" stroke="#263238" stroke-width="0.244206" stroke-linecap="round" stroke-linejoin="round"/>
<path d="M38.9038 475.468H171.596" stroke="#263238" stroke-width="0.244206" stroke-linecap="round" stroke-linejoin="round"/>
<path d="M436.623 321.892H296.347V327.612H436.623V321.892Z" fill="#92E3A9"/>
<path d="M299.786 321.892H296.347V395.567H299.786V321.892Z" fill="#92E3A9"/>
<path d="M436.623 321.892H296.347V395.95H436.623V321.892Z" stroke="#263238" stroke-width="0.244206" stroke-linecap="round" stroke-linejoin="round"/>
<path d="M311.127 322.167V395.904" stroke="#263238" stroke-width="0.244206" stroke-linecap="round" stroke-linejoin="round"/>
<path d="M325.218 322.167V395.904" stroke="#263238" stroke-width="0.244206" stroke-linecap="round" stroke-linejoin="round"/>
<path d="M339.306 322.167V395.904" stroke="#263238" stroke-width="0.244206" stroke-linecap="round" stroke-linejoin="round"/>
<path d="M353.397 322.167V395.904" stroke="#263238" stroke-width="0.244206" stroke-linecap="round" stroke-linejoin="round"/>
<path d="M367.487 322.167V395.904" stroke="#263238" stroke-width="0.244206" stroke-linecap="round" stroke-linejoin="round"/>
<path d="M381.576 322.167V395.904" stroke="#263238" stroke-width="0.244206" stroke-linecap="round" stroke-linejoin="round"/>
<path d="M395.666 322.167V395.904" stroke="#263238" stroke-width="0.244206" stroke-linecap="round" stroke-linejoin="round"/>
<path d="M409.742 322.167V395.904" stroke="#263238" stroke-width="0.244206" stroke-linecap="round" stroke-linejoin="round"/>
<path d="M423.832 322.167V395.904" stroke="#263238" stroke-width="0.244206" stroke-linecap="round" stroke-linejoin="round"/>
<path d="M296.582 337.504H436.443" stroke="#263238" stroke-width="0.244206" stroke-linecap="round" stroke-linejoin="round"/>
<path d="M296.582 346.936H436.443" stroke="#263238" stroke-width="0.244206" stroke-linecap="round" stroke-linejoin="round"/>
<path d="M296.582 356.352H436.443" stroke="#263238" stroke-width="0.244206" stroke-linecap="round" stroke-linejoin="round"/>
<path d="M296.582 365.769H436.443" stroke="#263238" stroke-width="0.244206" stroke-linecap="round" stroke-linejoin="round"/>
<path d="M296.582 375.185H436.443" stroke="#263238" stroke-width="0.244206" stroke-linecap="round" stroke-linejoin="round"/>
<path d="M296.582 384.601H436.443" stroke="#263238" stroke-width="0.244206" stroke-linecap="round" stroke-linejoin="round"/>
<path d="M390.182 369.158H384.339V384.31H390.182V369.158Z" fill="#263238" stroke="#263238" stroke-width="0.488411" stroke-miterlimit="10"/>
<path d="M399.547 360.079H393.704V384.326H399.547V360.079Z" fill="#92E3A9" stroke="#263238" stroke-width="0.488411" stroke-miterlimit="10"/>
<path d="M408.9 344.926H403.057V384.325H408.9V344.926Z" fill="#263238" stroke="#263238" stroke-width="0.488411" stroke-miterlimit="10"/>
<path d="M418.265 359.634H412.422V384.31H418.265V359.634Z" fill="#92E3A9" stroke="#263238" stroke-width="0.488411" stroke-miterlimit="10"/>
<path d="M427.617 344.926H421.774V384.325H427.617V344.926Z" fill="#263238" stroke="#263238" stroke-width="0.488411" stroke-miterlimit="10"/>
<path d="M330.024 366.105V384.11C325.723 384.11 321.598 382.213 318.557 378.837C315.515 375.46 313.807 370.88 313.807 366.105C313.807 361.33 315.515 356.751 318.557 353.374C321.598 349.998 325.723 348.101 330.024 348.101V348.101V366.105Z" fill="#92E3A9" stroke="#263238" stroke-width="0.488411" stroke-miterlimit="10"/>
<path d="M330.024 366.106L345.44 360.539C346.104 362.789 346.361 365.161 346.197 367.521C346.033 369.881 345.452 372.182 344.485 374.292C343.519 376.402 342.187 378.28 340.566 379.817C338.945 381.355 337.066 382.522 335.038 383.252C333.422 383.853 331.728 384.153 330.024 384.141V366.106Z" fill="white" stroke="#263238" stroke-width="0.488411" stroke-miterlimit="10"/>
<path d="M330.024 366.106V348.101C333.457 348.057 336.811 349.243 339.588 351.484C342.365 353.725 344.418 356.9 345.44 360.539L330.024 366.106Z" fill="#263238" stroke="#263238" stroke-width="0.488411" stroke-miterlimit="10"/>
</svg>
