<svg width="590" height="512" viewBox="0 0 590 512" fill="none" xmlns="http://www.w3.org/2000/svg">
<path d="M295 511.51C457.924 511.51 590 440.757 590 353.478C590 266.199 457.924 195.446 295 195.446C132.076 195.446 0 266.199 0 353.478C0 440.757 132.076 511.51 295 511.51Z" fill="#FAFAFA"/>
<path d="M456.599 455.164C489.239 455.164 515.699 440.991 515.699 423.509C515.699 406.027 489.239 391.854 456.599 391.854C423.958 391.854 397.498 406.027 397.498 423.509C397.498 440.991 423.958 455.164 456.599 455.164Z" fill="#E0E0E0"/>
<path d="M72.3899 409.325L23.9302 383.369C21.1964 381.902 21.1964 379.536 23.9302 378.069L305.813 227.066C307.348 226.352 309.042 225.979 310.76 225.979C312.477 225.979 314.171 226.352 315.706 227.066L364.178 253.033C366.912 254.489 366.912 256.866 364.178 258.333L82.2952 409.325C80.7606 410.048 79.0638 410.425 77.3426 410.425C75.6214 410.425 73.9245 410.048 72.3899 409.325Z" fill="#E0E0E0"/>
<path d="M104.925 25.3568L94.0024 31.2259C94.0024 30.771 94.0883 30.3274 94.0883 29.8838V26.9378C94.0883 21.6943 90.1286 19.5673 85.225 22.1948C83.1235 23.3946 81.3255 25.0007 79.9536 26.9037C79.1446 20.3066 73.579 17.8043 66.7998 21.4782C59.4444 25.4023 53.5478 34.9339 53.5478 42.7822V47.184C53.4945 48.9431 53.8761 50.6901 54.6634 52.2911L45.555 57.1706C44.1282 58.038 42.9411 59.2042 42.0894 60.5754C41.2376 61.9465 40.745 63.4842 40.6514 65.0644C40.6514 67.9762 42.858 69.1591 45.555 67.7032L104.925 35.8894C106.353 35.0227 107.54 33.8566 108.392 32.4853C109.244 31.114 109.736 29.576 109.829 27.9956C109.829 25.0838 107.671 23.9009 104.925 25.3568Z" fill="#EBEBEB"/>
<path d="M161.708 49.7205L153.434 54.1565C153.482 53.8171 153.507 53.4752 153.507 53.1328V50.858C153.507 46.8997 150.516 45.2959 146.826 47.2751C145.236 48.1751 143.876 49.3862 142.842 50.8238C142.229 45.8533 138.024 43.9993 132.912 46.7405C127.396 49.6978 122.909 56.8977 122.909 62.8123V66.145C122.874 67.4693 123.163 68.7838 123.755 69.9895L116.89 73.6747C115.816 74.3312 114.924 75.2126 114.285 76.2479C113.646 77.2833 113.278 78.4435 113.212 79.6349C113.212 81.8301 114.879 82.7173 116.89 81.6254L161.708 57.6143C162.781 56.9572 163.673 56.0756 164.312 55.0404C164.951 54.0052 165.319 52.8453 165.386 51.6541C165.423 49.5385 163.768 48.6286 161.708 49.7205Z" fill="#EBEBEB"/>
<path d="M246.588 363.066L288.269 340.716C292.572 338.441 294.717 335.393 294.717 332.379C294.717 329.365 294.717 327.01 294.717 327.01L251.492 304.387C250.285 303.656 249.282 302.672 248.562 301.514C247.842 300.356 247.426 299.057 247.348 297.722V250.064L174.579 289.078V336.735C174.659 338.07 175.075 339.368 175.795 340.526C176.515 341.684 177.517 342.668 178.723 343.401L215.5 363.066C224.069 367.662 237.995 367.662 246.588 363.066Z" fill="#263238"/>
<path d="M192.036 345.175V350.532L178.699 343.401C177.494 342.669 176.493 341.684 175.775 340.526C175.057 339.368 174.644 338.069 174.567 336.735V289.089L188.42 281.661C188.714 284.926 189.021 288.304 189.315 291.591L179.594 296.812V334.051C179.666 335.387 180.08 336.688 180.8 337.847C181.521 339.005 182.527 339.989 183.737 340.716L192.036 345.175Z" fill="black"/>
<path d="M179.594 334.062C179.671 335.397 180.087 336.696 180.807 337.854C181.527 339.012 182.531 339.997 183.737 340.727L215.476 357.686C224.057 362.293 237.996 362.293 246.589 357.686L288.27 335.347C296.851 330.798 296.851 323.291 288.27 318.684L256.507 301.703C255.298 300.974 254.293 299.99 253.572 298.832C252.852 297.673 252.438 296.373 252.363 295.038V257.81L179.606 296.823L179.594 334.062Z" fill="#37474F"/>
<path d="M264.953 306.241L256.507 301.691C255.298 300.963 254.293 299.979 253.572 298.82C252.852 297.662 252.438 296.362 252.363 295.026V257.81L179.594 296.823V334.062C179.671 335.397 180.087 336.696 180.807 337.854C181.527 339.012 182.531 339.997 183.737 340.727L192.037 345.163L264.953 306.241Z" fill="#263238"/>
<path d="M294.705 327.067V332.447C294.705 335.461 292.547 338.464 288.257 340.773L246.576 363.112C242.009 365.373 236.907 366.545 231.73 366.524V361.167C236.908 361.194 242.011 360.021 246.576 357.755L288.257 335.393C292.547 333.05 294.705 330.036 294.705 327.067Z" fill="#455A64"/>
<path d="M62.7526 380.344C64.3232 381.048 66.0504 381.4 67.7945 381.37C69.5387 381.34 71.2509 380.93 72.7927 380.173L354.21 229.42C355.721 228.511 356.979 227.282 357.88 225.835C358.781 224.388 359.3 222.764 359.395 221.095V9.18319C359.325 7.56222 358.844 5.97937 357.992 4.56264C357.141 3.1459 355.941 1.93503 354.492 1.02794C352.921 0.323633 351.194 -0.0279085 349.45 0.00173007C347.706 0.0313686 345.993 0.441356 344.452 1.19855L63.0713 151.906C61.5622 152.817 60.3061 154.046 59.4051 155.493C58.5041 156.94 57.9835 158.563 57.8857 160.232V372.188C57.952 373.806 58.427 375.387 59.2723 376.804C60.1177 378.22 61.3097 379.433 62.7526 380.344Z" fill="#455A64"/>
<path d="M72.7924 380.162L354.21 229.42C355.719 228.509 356.975 227.279 357.876 225.833C358.777 224.386 359.297 222.763 359.395 221.094V9.18303C359.395 6.11201 357.078 4.87224 354.21 6.40774L72.8047 157.149C71.2956 158.061 70.0395 159.29 69.1385 160.736C68.2375 162.183 67.7169 163.807 67.6191 165.475V377.386C67.6191 380.457 69.9361 381.663 72.7924 380.162Z" fill="#BA68C8"/>
<path d="M72.7924 380.162L354.21 229.42C355.719 228.509 356.975 227.279 357.876 225.833C358.777 224.386 359.297 222.763 359.395 221.094V9.18303C359.395 6.11201 357.078 4.87224 354.21 6.40774L72.8047 157.149C71.2956 158.061 70.0395 159.29 69.1385 160.736C68.2375 162.183 67.7169 163.807 67.6191 165.475V377.386C67.6191 380.457 69.9361 381.663 72.7924 380.162Z" fill="#37474F"/>
<path d="M72.0328 385.656C70.5603 386.245 68.9685 386.533 67.3653 386.502C65.7621 386.471 64.1849 386.12 62.7405 385.474C61.2892 384.566 60.089 383.353 59.2371 381.934C58.3851 380.515 57.9055 378.93 57.8369 377.307V358.073L67.5583 363.294V382.528C67.6073 385.326 69.5197 386.589 72.0328 385.656Z" fill="#263238"/>
<path d="M67.6074 363.294V382.517C67.6074 385.588 69.9244 386.827 72.7807 385.292L354.21 234.551C355.721 233.638 356.978 232.407 357.879 230.958C358.78 229.509 359.3 227.884 359.396 226.213V206.957L67.6074 363.294Z" fill="#37474F"/>
<path opacity="0.2" d="M67.6191 363.249V382.517C67.6191 385.588 69.9361 386.827 72.7924 385.292L354.21 234.551C355.72 233.638 356.977 232.407 357.878 230.958C358.779 229.509 359.299 227.884 359.395 226.213V206.957L67.6191 363.249Z" fill="black"/>
<path d="M77.3408 339.158V168.478C77.3998 167.476 77.7124 166.5 78.2534 165.631C78.7944 164.761 79.5485 164.022 80.4546 163.474L346.548 20.9332C348.276 20.0119 349.662 20.7626 349.662 22.5938V193.285C349.603 194.288 349.29 195.263 348.749 196.133C348.208 197.002 347.454 197.741 346.548 198.29L80.4056 340.83C78.7261 341.752 77.3408 341.001 77.3408 339.158Z" fill="#BA68C8"/>
<path opacity="0.3" d="M77.3408 339.158V168.478C77.3998 167.476 77.7124 166.5 78.2534 165.631C78.7944 164.761 79.5485 164.022 80.4546 163.474L346.548 20.9332C348.276 20.0119 349.662 20.7626 349.662 22.5938V193.285C349.603 194.288 349.29 195.263 348.749 196.133C348.208 197.002 347.454 197.741 346.548 198.29L80.4056 340.83C78.7261 341.752 77.3408 341.001 77.3408 339.158Z" fill="black"/>
<path d="M213.501 291.239C212.079 292.091 210.894 293.243 210.042 294.601C209.19 295.959 208.695 297.484 208.598 299.053C208.598 301.93 210.78 303.102 213.501 301.657C214.925 300.806 216.111 299.654 216.963 298.296C217.816 296.938 218.31 295.412 218.405 293.843C218.368 290.966 216.186 289.794 213.501 291.239Z" fill="#455A64"/>
<path d="M69.1395 160.721C68.2161 162.165 67.6899 163.798 67.6071 165.475V363.294L57.8857 358.073V160.277C57.9567 158.598 58.4838 156.963 59.4181 155.523L69.1395 160.721Z" fill="#263238"/>
<path d="M398.589 8.18209C398.17 7.98673 397.702 7.90146 397.236 7.93555C396.769 7.96964 396.321 8.12179 395.941 8.37545L115.468 158.662C114.402 159.296 113.514 160.156 112.875 161.17C112.235 162.184 111.864 163.324 111.79 164.497V339.943C111.747 340.512 111.865 341.081 112.134 341.595C112.403 342.108 112.813 342.546 113.322 342.866C113.911 343.161 117 344.845 117.956 345.311C118.287 345.468 118.656 345.54 119.027 345.521C119.398 345.501 119.756 345.389 120.065 345.197L400.575 194.854C401.641 194.22 402.53 193.361 403.169 192.347C403.808 191.333 404.18 190.192 404.252 189.019V12.7204C404.314 12.2812 404.241 11.8347 404.041 11.4323C403.842 11.0299 403.524 10.6879 403.125 10.4455C402.438 10.2294 399.251 8.59156 398.589 8.18209Z" fill="#BA68C8"/>
<path d="M120.114 161.108L400.575 10.867C402.586 9.79779 404.253 10.6736 404.253 12.8233V189.122C404.18 190.295 403.809 191.435 403.169 192.45C402.53 193.464 401.641 194.323 400.575 194.957L120.114 345.198C118.104 346.267 116.437 344.527 116.437 342.377V166.943C116.509 165.77 116.881 164.63 117.52 163.615C118.159 162.601 119.048 161.742 120.114 161.108Z" fill="#FAFAFA"/>
<path d="M402.206 11.492C402.88 11.492 402.99 12.2882 402.99 12.7659V189.065C402.924 190.035 402.616 190.977 402.091 191.818C401.565 192.659 400.837 193.375 399.962 193.91L119.501 344.208C119.328 344.319 119.124 344.382 118.913 344.39C118.275 344.39 117.687 343.446 117.687 342.377V166.942C117.753 165.971 118.061 165.027 118.586 164.184C119.112 163.341 119.84 162.623 120.715 162.085L401.188 11.7991C401.494 11.6191 401.844 11.5135 402.206 11.492ZM402.206 10.3546C401.629 10.3748 401.068 10.5314 400.575 10.8095L120.114 161.107C119.048 161.741 118.159 162.601 117.52 163.615C116.881 164.629 116.509 165.769 116.437 166.942V342.377C116.437 344.083 117.454 345.527 118.888 345.527C119.322 345.524 119.746 345.41 120.114 345.198L400.575 194.854C401.641 194.22 402.53 193.361 403.169 192.347C403.809 191.333 404.18 190.192 404.253 189.019V12.7204C404.253 11.1849 403.431 10.3091 402.242 10.3091L402.206 10.3546Z" fill="#E0E0E0"/>
<path d="M113.359 342.866C113.751 343.059 116.583 344.56 117.821 345.209C117.374 344.868 117.019 344.433 116.787 343.941C116.555 343.449 116.451 342.913 116.485 342.377V177.964L111.826 175.438V339.942C111.788 340.511 111.909 341.079 112.177 341.591C112.446 342.104 112.853 342.543 113.359 342.866Z" fill="#F0F0F0"/>
<path d="M404.216 12.732C404.216 10.605 402.573 9.74061 400.538 10.8098L120.114 161.107C119.048 161.742 118.159 162.601 117.52 163.615C116.881 164.629 116.509 165.769 116.437 166.942V177.964L404.216 23.799V12.732Z" fill="#BA68C8"/>
<g opacity="0.4">
<path d="M400.574 10.8664L120.113 161.107C119.042 161.724 118.16 162.586 117.551 163.61L112.941 161.13C113.541 160.12 114.411 159.27 115.467 158.662L395.94 8.37551C396.318 8.12336 396.763 7.97114 397.227 7.93509C397.691 7.89903 398.157 7.98049 398.576 8.17078C399.225 8.54612 402.253 10.1385 403.013 10.5138C402.606 10.3863 402.172 10.3517 401.747 10.4131C401.322 10.4745 400.92 10.63 400.574 10.8664Z" fill="white"/>
</g>
<path opacity="0.15" d="M111.827 175.451V164.497C111.873 163.289 112.257 162.113 112.943 161.085L117.564 163.553C116.898 164.562 116.527 165.715 116.486 166.897V177.919L111.827 175.451Z" fill="black"/>
<path d="M116.485 177.964L116.473 197.823L404.203 43.6813V23.7993L116.485 177.964Z" fill="#EBEBEB"/>
<path d="M128.462 176.497L147.072 166.579V176.463L128.45 186.438L128.462 176.497Z" fill="#E0E0E0"/>
<path d="M151.669 164.065V167.978L160.949 162.996V159.094L151.669 164.065Z" fill="#E0E0E0"/>
<path d="M151.669 170.105V174.018L160.949 169.036V165.134L151.669 170.105Z" fill="#E0E0E0"/>
<path d="M165.594 156.603V160.516L174.874 155.545V151.632L165.594 156.603Z" fill="#E0E0E0"/>
<path d="M165.594 162.643V166.556L174.874 161.585V157.672L165.594 162.643Z" fill="#E0E0E0"/>
<path d="M179.508 149.142V153.055L188.788 148.084V144.171L179.508 149.142Z" fill="#E0E0E0"/>
<path d="M179.508 155.181V159.094L188.788 154.123V150.21L179.508 155.181Z" fill="#E0E0E0"/>
<path d="M221.274 126.769V130.682L230.554 125.712V121.799L221.274 126.769Z" fill="#E0E0E0"/>
<path d="M221.274 132.82V136.721L230.554 131.751V127.838L221.274 132.82Z" fill="#E0E0E0"/>
<path d="M235.201 119.319V123.22L244.481 118.25V114.337L235.201 119.319Z" fill="#E0E0E0"/>
<path d="M235.201 125.359V129.26L244.481 124.29V120.377L235.201 125.359Z" fill="#E0E0E0"/>
<path d="M249.115 111.857L249.128 115.77L258.408 110.799V106.887L249.115 111.857Z" fill="#E0E0E0"/>
<path d="M249.115 117.897L249.128 121.81L258.408 116.828V112.927L249.115 117.897Z" fill="#E0E0E0"/>
<path d="M193.435 141.692L216.641 129.26V139.201L193.435 151.633V141.692Z" fill="#E0E0E0"/>
<path d="M263.054 104.396L281.663 94.4775V104.373L263.042 114.348L263.054 104.396Z" fill="#E0E0E0"/>
<path d="M286.248 91.9642L286.26 95.877L295.54 90.9064V86.9937L286.248 91.9642Z" fill="#E0E0E0"/>
<path d="M286.248 98.0038L286.26 101.917L295.54 96.946V93.0332L286.248 98.0038Z" fill="#E0E0E0"/>
<path d="M300.173 84.5142V88.4269L309.453 83.445V79.5322L300.173 84.5142Z" fill="#E0E0E0"/>
<path d="M300.173 90.5537V94.4665L309.453 89.4845V85.5718L300.173 90.5537Z" fill="#E0E0E0"/>
<path d="M314.1 77.0527V80.9655L323.38 75.9836V72.0708L314.1 77.0527Z" fill="#E0E0E0"/>
<path d="M314.1 83.0921V87.0049L323.38 82.023V78.1216L314.1 83.0921Z" fill="#E0E0E0"/>
<path d="M355.866 54.6797V58.5924L365.146 53.6105V49.6978L355.866 54.6797Z" fill="#E0E0E0"/>
<path d="M355.866 60.7196V64.6323L365.146 59.6504V55.749L355.866 60.7196Z" fill="#E0E0E0"/>
<path d="M369.793 47.2181V51.1309L379.073 46.1603V42.2476L369.793 47.2181Z" fill="#E0E0E0"/>
<path d="M369.793 53.2582V57.1709L379.073 52.2003V48.2876L369.793 53.2582Z" fill="#E0E0E0"/>
<path d="M383.707 39.7567V43.6694L392.999 38.6989V34.7861L383.707 39.7567Z" fill="#E0E0E0"/>
<path d="M383.707 45.7962V49.709L392.999 44.7384V40.8257L383.707 45.7962Z" fill="#E0E0E0"/>
<path d="M328.026 69.5908L351.233 57.1587V67.1112L328.026 79.5319V69.5908Z" fill="#E0E0E0"/>
<path d="M116.486 177.964L111.827 175.438V195.332L116.473 197.823L116.486 177.964Z" fill="#E0E0E0"/>
<path d="M329.963 55.7489V56.4883C329.963 57.6257 330.846 58.1262 331.937 57.5461L388.328 27.3474C388.903 26.9971 389.381 26.5264 389.724 25.9732C390.067 25.42 390.265 24.7998 390.302 24.1626V23.4346C390.302 22.2972 389.419 21.7854 388.328 22.3768L331.937 52.5755C331.361 52.9226 330.882 53.3911 330.539 53.9426C330.196 54.4941 329.999 55.1131 329.963 55.7489Z" fill="#F5F5F5"/>
<path d="M390.289 24.1626V23.4346C390.289 22.2972 389.406 21.7854 388.315 22.3768L380.96 26.2896V31.2601L388.315 27.3474C388.89 26.9971 389.368 26.5264 389.711 25.9732C390.054 25.42 390.252 24.7998 390.289 24.1626Z" fill="#455A64"/>
<path d="M121.118 200.291L399.581 51.1538V61.072L144.312 197.823V327.09L121.118 339.511V200.291Z" fill="#F0F0F0"/>
<path d="M144.312 197.823L167.506 185.402V195.321L144.312 207.764V197.823Z" fill="#BA68C8"/>
<path d="M144.312 277.363L167.506 264.942V274.86L144.312 287.304V277.363Z" fill="#BA68C8"/>
<path d="M144.312 287.303L167.506 274.882V284.801L144.312 297.244V287.303Z" fill="#BA68C8"/>
<path opacity="0.8" d="M144.312 287.303L167.506 274.882V284.801L144.312 297.244V287.303Z" fill="white"/>
<path d="M283.525 202.782L306.719 190.361V200.28L283.525 212.723V202.782Z" fill="#BA68C8"/>
<path opacity="0.3" d="M283.525 202.782L306.719 190.361V200.28L283.525 212.723V202.782Z" fill="black"/>
<path d="M283.525 212.723L306.719 200.303V210.221L283.525 222.665V212.723Z" fill="#BA68C8"/>
<path opacity="0.4" d="M283.525 212.723L306.719 200.303V210.221L283.525 222.665V212.723Z" fill="black"/>
<path d="M283.525 222.675L306.719 210.254V220.173L283.525 232.616V222.675Z" fill="#BA68C8"/>
<path opacity="0.5" d="M283.525 222.675L306.719 210.254V220.173L283.525 232.616V222.675Z" fill="black"/>
<path d="M283.525 232.617L306.719 220.196V230.114L283.525 242.558V232.617Z" fill="#BA68C8"/>
<path opacity="0.3" d="M283.525 232.617L306.719 220.196V230.114L283.525 242.558V232.617Z" fill="black"/>
<path d="M260.344 135.664L283.525 123.243V172.96L260.344 185.404V135.664Z" fill="#BA68C8"/>
<path d="M260.344 195.332L283.525 182.911V252.509L260.344 264.953V195.332Z" fill="#BA68C8"/>
<path d="M167.507 245.049L190.689 232.628V242.546L167.507 254.99V245.049Z" fill="#BA68C8"/>
<path opacity="0.3" d="M167.507 245.049L190.689 232.628V242.546L167.507 254.99V245.049Z" fill="black"/>
<path d="M213.932 170.468L237.126 158.047V167.966L213.932 180.409V170.468Z" fill="#BA68C8"/>
<path opacity="0.6" d="M213.932 170.468L237.126 158.047V167.966L213.932 180.409V170.468Z" fill="white"/>
<path d="M329.962 167.977L353.144 155.557V165.475L329.962 177.918V167.977Z" fill="#BA68C8"/>
<path opacity="0.8" d="M329.962 167.977L353.144 155.557V165.475L329.962 177.918V167.977Z" fill="white"/>
<path d="M329.962 187.87L353.144 175.45V185.368L329.962 197.812V187.87Z" fill="#BA68C8"/>
<path d="M120.861 199.848L120.579 199.996V340.443L399.851 190.817L400.145 190.669V50.2212L120.861 199.848ZM399.03 180.136L376.963 191.954V183.23L399.03 171.424V180.136ZM121.695 210.551L143.761 198.733V207.457L121.695 219.275V210.551ZM259.78 196.265V204.989L237.714 216.807V208.083L259.78 196.265ZM237.714 206.854V198.13L259.78 186.313V195.037L237.714 206.854ZM260.92 195.651L282.986 183.833V192.557L260.92 204.375V195.651ZM260.92 194.422V185.71L282.986 173.881V182.616L260.92 194.422ZM260.92 184.481V175.792L282.986 163.974V172.698L260.92 184.481ZM260.92 174.529V165.816L282.986 153.987V162.711L260.92 174.529ZM259.78 175.143L237.714 186.961V178.237L259.78 166.419V175.143ZM259.78 176.372V185.096L237.714 196.913V188.189L259.78 176.372ZM236.574 197.528L214.507 209.345V200.621L236.574 188.804V197.528ZM236.574 198.745V207.468L214.507 219.286V210.562L236.574 198.745ZM236.574 208.697V217.421L214.507 229.239V220.515L236.574 208.697ZM236.574 218.638V227.362L214.507 239.18V230.456L236.574 218.638ZM237.714 218.024L259.78 206.206V214.93L237.714 226.748V218.024ZM259.78 216.158V224.882L237.714 236.7V227.976L259.78 216.158ZM260.92 215.544L282.986 203.726V212.45L260.92 224.268V215.544ZM260.92 214.316V205.592L282.986 193.774V202.498L260.92 214.316ZM284.126 193.171L306.192 181.354V190.077L284.126 201.895V193.171ZM284.126 191.943V183.219L306.192 171.401V180.125L284.126 191.943ZM284.126 182.002V173.278L306.192 161.46V170.184L284.126 182.002ZM284.126 172.049V163.28L306.192 151.462V160.186L284.126 172.049ZM284.126 162.108V153.385L306.192 141.567V150.279L284.126 162.108ZM284.126 152.156V143.432L306.192 131.614V140.338L284.126 152.156ZM282.986 152.77L260.92 164.588V155.864L282.986 144.046V152.77ZM259.78 165.202L237.714 177.02V168.296L259.78 156.478V165.202ZM236.574 177.634L214.507 189.452V180.728L236.574 168.91V177.634ZM236.574 178.851V187.575L214.507 199.393V190.669L236.574 178.851ZM213.367 200.007L191.301 211.825V203.089L213.367 191.272V200.007ZM213.367 201.235V209.914L191.301 221.743V213.019L213.367 201.235ZM213.367 211.176V219.9L191.301 231.718V222.994L213.367 211.176ZM213.367 221.129V229.841L191.301 241.671V232.947L213.367 221.129ZM213.367 231.07V239.794L191.301 251.611V242.899L213.367 231.07ZM213.367 241.022V249.723L191.301 261.552V252.829L213.367 241.022ZM214.507 240.408L236.574 228.59V237.314L214.507 249.132V240.408ZM236.574 238.531V247.255L214.507 259.073V250.349L236.574 238.531ZM237.714 237.917L259.78 226.099V234.823L237.714 246.641V237.917ZM260.92 225.485L282.986 213.667V222.425L260.92 234.243V225.485ZM284.126 213.065L306.192 201.247V209.971L284.126 221.789V213.065ZM284.126 211.836V203.089L306.192 191.272V199.996L284.126 211.836ZM307.332 190.68L329.398 178.863V187.587L307.332 199.404V190.68ZM307.332 189.463V180.739L329.398 168.922V177.646L307.332 189.463ZM307.332 179.511V170.787L329.398 158.969V167.693L307.332 179.511ZM307.332 169.57V160.846L329.398 149.028V157.752L307.332 169.57ZM307.332 159.618V150.894L329.398 139.076V147.8L307.332 159.618ZM307.332 149.677V140.953L329.398 129.135V137.859L307.332 149.677ZM307.332 139.724V131L329.398 119.183V127.906L307.332 139.724ZM307.332 129.783V121.059L329.398 109.242V117.965L307.332 129.783ZM306.192 130.386L284.126 142.215V133.491L306.192 121.673V130.386ZM282.986 142.807L260.92 154.624V145.912L282.986 134.083V142.807ZM259.78 155.238L237.714 167.056V158.332L259.78 146.515V155.238ZM236.574 167.67L214.507 179.488V170.764L236.574 158.946V167.67ZM213.367 180.114L191.301 191.931V183.207L213.367 171.39V180.114ZM213.367 181.342V190.055L191.301 201.884V193.16L213.367 181.342ZM190.161 202.487L168.095 214.304V205.592L190.161 193.763V202.487ZM190.161 203.715V212.439L168.095 224.257V215.533L190.161 203.715ZM190.161 213.656V222.425L168.095 234.243V225.519L190.161 213.656ZM190.161 223.608V232.332L168.095 244.15V235.426L190.161 223.608ZM190.161 233.549V242.273L168.095 254.091V245.378L190.161 233.549ZM190.161 243.502V252.226L168.095 264.043V255.319L190.161 243.502ZM190.161 253.443V262.167L168.095 273.984V265.272L190.161 253.443ZM190.161 263.395V272.119L168.095 283.937V275.213L190.161 263.395ZM191.301 262.781L213.367 250.963V259.687L191.301 271.505V262.781ZM213.367 260.915V269.639L191.301 281.457V272.733L213.367 260.915ZM214.507 260.301L236.574 248.484V257.208L214.507 269.025V260.301ZM237.714 247.869L259.78 236.052V244.776L237.714 256.593V247.869ZM260.92 235.437L282.986 223.62V232.344L260.92 244.161V235.437ZM284.126 223.006L306.192 211.188V219.912L284.126 231.729V223.006ZM307.332 210.574L329.398 198.756V207.48L307.332 219.298V210.574ZM307.332 209.357V200.633L329.398 188.815V197.539L307.332 209.357ZM330.49 188.201L352.556 176.383V185.107L330.49 196.925V188.201ZM330.49 186.972V178.248L352.556 166.431V175.155L330.49 186.972ZM330.49 177.031V168.307L352.556 156.456V165.179L330.49 177.031ZM330.49 167.079V158.355L352.556 146.537V155.318L330.49 167.079ZM330.49 157.138V148.414L352.556 136.596V145.32L330.49 157.138ZM330.49 147.186V138.462L352.556 126.644V135.368L330.49 147.186ZM330.49 137.245V128.521L352.556 116.703V125.427L330.49 137.245ZM330.49 127.292V118.568L352.556 106.751V115.509L330.49 127.292ZM330.49 117.351V108.684L352.556 96.8665V105.59L330.49 117.351ZM330.49 107.399V98.675L352.556 86.8573V95.5812L330.49 107.399ZM329.35 108.013L307.283 119.831V111.107L329.35 99.2892V108.013ZM306.143 120.445L284.077 132.263V123.539L306.143 111.721V120.445ZM282.937 132.877L260.871 144.695V135.982L282.937 124.164V132.877ZM259.78 145.309L237.714 157.127V148.403L259.78 136.585V145.309ZM236.574 157.741L214.507 169.559V160.835L236.574 149.017V157.741ZM213.367 170.161L191.301 181.99V173.266L213.367 161.449V170.161ZM190.161 182.616L168.095 194.434V185.721L190.161 173.892V182.616ZM190.161 183.844V192.568L168.095 204.386V195.662L190.161 183.844ZM166.955 205L144.889 216.818V208.094L166.955 196.276V205ZM166.955 206.217V214.941L144.889 226.759V218.035L166.955 206.217ZM166.955 216.17V224.894L144.889 236.711V227.987L166.955 216.17ZM166.955 226.111V234.835L144.889 246.652V237.928L166.955 226.111ZM166.955 236.063V244.787L144.889 256.548V247.824L166.955 236.063ZM166.955 246.004V254.728L144.889 266.546V257.799L166.955 246.004ZM166.955 255.956V264.68L144.889 276.498V267.774L166.955 255.956ZM166.955 265.897V274.621L144.889 286.439V277.715L166.955 265.897ZM166.955 275.85V284.574L144.889 296.357V287.633L166.955 275.85ZM166.955 285.791V294.515L144.889 306.332V297.608L166.955 285.791ZM168.095 285.188L190.161 273.359V282.083L168.095 293.9V285.188ZM190.161 283.311V292.035L168.095 303.853V295.106L190.161 283.311ZM191.301 282.697L213.367 270.879V279.603L191.301 291.421V282.697ZM214.507 270.197L236.574 258.379V267.103L214.507 278.921V270.197ZM237.714 257.765L259.78 245.947V254.671L237.714 266.489V257.765ZM260.92 245.344L282.986 233.515V242.239L260.92 254.057V245.344ZM284.126 232.912L306.192 221.095V229.819L284.126 241.636V232.912ZM307.332 220.48L329.398 208.663V217.387L307.332 229.204V220.48ZM330.49 208.094L352.556 196.265V204.989L330.49 216.807V208.094ZM330.49 206.866V198.142L352.556 186.324V195.048L330.49 206.866ZM353.782 185.721L375.848 173.892V182.616L353.782 194.434V185.721ZM353.782 184.493V175.792L375.848 163.974V172.698L353.782 184.493ZM353.782 174.54V165.828L375.848 153.999V162.723L353.782 174.54ZM353.782 164.599V155.875L375.848 144.058V152.782L353.782 164.599ZM353.782 154.647V145.934L375.848 134.105V142.807L353.782 154.647ZM353.782 144.706V135.982L375.848 124.164V132.888L353.782 144.706ZM353.782 134.754V126.041L375.848 114.212V122.936L353.782 134.754ZM353.782 124.813V116.089L375.848 104.271V112.995L353.782 124.813ZM353.782 114.86V106.148L375.848 94.3187V102.997L353.782 114.86ZM353.782 104.919V96.1727L375.848 84.3549V93.0789L353.782 104.919ZM353.782 94.967V86.2544L375.848 74.4253V83.1493L353.782 94.967ZM353.782 85.026V76.3021L375.848 64.4843V73.2083L353.782 85.026ZM352.629 85.6402L330.563 97.4579V88.734L352.629 76.9163V85.6402ZM329.435 98.0721L307.369 109.89V101.166L329.435 89.3482V98.0721ZM306.229 110.493L284.163 122.322V113.598L306.229 101.78V110.493ZM283.023 122.925L260.957 134.742V126.03L283.023 114.212V122.925ZM259.817 135.357L237.75 147.174V138.462L259.817 126.644V135.357ZM236.61 147.788L214.544 159.606V150.894L236.61 139.076V147.788ZM213.404 160.22L191.338 172.038V163.28L213.404 151.462V160.22ZM190.198 172.652L168.132 184.47V175.792L190.198 163.962V172.652ZM166.955 185.084L144.889 196.902V188.178L166.955 176.36V185.084ZM166.955 186.301V195.025L144.889 206.843V198.119L166.955 186.301ZM121.695 220.503L143.761 208.686V217.409L121.695 229.227V220.503ZM121.695 230.444L143.761 218.627V227.35L121.695 239.168V230.444ZM121.695 240.397L143.761 228.579V237.303L121.695 249.121V240.397ZM121.695 250.338L143.761 238.52V247.244L121.695 259.062V250.338ZM121.695 260.29L143.761 248.472V257.196L121.695 269.014V260.29ZM121.695 270.231L143.761 258.413V267.137L121.695 278.955V270.231ZM121.695 280.183L143.761 268.366V277.09L121.695 288.907V280.183ZM121.695 290.124L143.761 278.307V287.03L121.695 298.848V290.124ZM121.695 300.077L143.761 288.259V296.983L121.695 308.801V300.077ZM121.695 310.018L143.761 298.2V306.924L121.695 318.742V310.018ZM121.695 319.97L143.761 308.152V316.831L121.695 328.648V319.97ZM144.889 307.538L166.955 295.72V304.444L144.889 316.262V307.538ZM166.955 305.661V314.351L144.889 326.18V317.479L166.955 305.661ZM168.095 305.047L190.161 293.229V301.931L168.095 313.748V305.047ZM191.301 292.627L213.367 280.809V289.533L191.301 301.351V292.627ZM214.507 280.195L236.574 268.377V277.021L214.507 288.839V280.195ZM237.714 267.763L259.78 255.945V264.635L237.714 276.453V267.763ZM260.92 255.331L282.986 243.513V252.203L260.92 264.021V255.331ZM284.126 242.899L306.192 231.081V239.771L284.126 251.589V242.899ZM307.332 230.467L329.398 218.649V227.339L307.332 239.157V230.467ZM330.49 218.035L352.556 206.217V214.907L330.49 226.725V218.035ZM353.782 205.615L375.848 193.785V202.475L353.782 214.293V205.615ZM353.782 204.386V195.662L375.848 183.844V192.568L353.782 204.386ZM399.042 170.195L376.976 182.013V173.289L399.042 161.472V170.195ZM399.042 160.243L376.976 172.061V163.337L399.042 151.531V160.243ZM399.042 150.302L376.951 162.143V153.419L399.017 141.601L399.042 150.302ZM399.042 140.35L376.976 152.167V143.444L399.042 131.626V140.35ZM399.042 130.409L376.976 142.227V133.503L399.042 121.685V130.409ZM399.042 120.456L376.976 132.274V123.55L399.042 111.732V120.456ZM399.042 110.515L376.951 122.333V113.609L399.017 101.791L399.042 110.515ZM399.042 100.563L376.976 112.381V103.657L399.042 91.8391V100.563ZM399.042 90.6221L376.976 102.44V93.7159L399.042 81.8981V90.6221ZM399.042 80.6697L376.976 92.4874V83.7635L399.042 71.9458V80.6697ZM399.042 70.7287L376.951 82.5237V73.8225L399.017 62.0048L399.042 70.7287ZM399.042 60.7764L376.976 72.5941V63.8815L399.042 52.0638V60.7764ZM143.749 188.792V197.516L121.682 209.322V200.61L143.749 188.792ZM121.682 329.911L143.749 318.093V326.783L121.682 338.601V329.911ZM376.951 201.872V193.183L399.017 181.365V190.055L376.951 201.872Z" fill="#E0E0E0"/>
<path d="M306.72 110.788L399.581 61.083V110.822L306.72 160.504V110.788Z" fill="#FAFAFA"/>
<path d="M306.094 161.493V110.458L306.4 110.299L400.181 60.1045V111.152L306.094 161.493ZM307.32 111.117V159.526L398.955 110.492V62.0495L307.32 111.117Z" fill="#E0E0E0"/>
<path d="M311.402 148.494H311.255C311.139 148.453 311.045 148.372 310.993 148.268C310.94 148.165 310.933 148.046 310.973 147.937L323.526 116.089C323.551 116.032 323.588 115.98 323.636 115.937C323.684 115.895 323.741 115.862 323.804 115.842C323.867 115.821 323.933 115.813 324 115.819C324.066 115.824 324.13 115.843 324.188 115.873L337.759 123.471L351.452 110.527C351.535 110.464 351.639 110.43 351.746 110.43C351.853 110.43 351.957 110.464 352.04 110.527L365.525 118.751L379.218 87.4487C379.244 87.3944 379.28 87.3455 379.326 87.305C379.373 87.2644 379.427 87.233 379.487 87.2128C379.547 87.1925 379.61 87.1838 379.674 87.1872C379.737 87.1906 379.799 87.2061 379.856 87.2326L393.77 93.8524C393.823 93.8778 393.87 93.9126 393.909 93.955C393.947 93.9973 393.977 94.0462 393.995 94.0991C394.013 94.1519 394.02 94.2075 394.015 94.2627C394.01 94.318 393.993 94.3718 393.966 94.4211C393.939 94.4704 393.901 94.5142 393.855 94.55C393.81 94.5858 393.757 94.613 393.7 94.6299C393.643 94.6468 393.583 94.6531 393.524 94.6485C393.464 94.6439 393.406 94.6285 393.353 94.6031L379.868 88.1994L366.138 119.558C366.112 119.616 366.072 119.668 366.021 119.71C365.97 119.751 365.909 119.781 365.844 119.797C365.785 119.825 365.72 119.84 365.654 119.84C365.588 119.84 365.523 119.825 365.464 119.797L351.856 111.483L338.175 124.415C338.103 124.483 338.008 124.526 337.906 124.538C337.804 124.551 337.7 124.531 337.612 124.483L324.212 117.045L311.855 148.358C311.799 148.416 311.728 148.458 311.648 148.482C311.569 148.506 311.484 148.51 311.402 148.494Z" fill="#455A64"/>
<path d="M323.955 114.803C323.544 115.052 323.203 115.388 322.96 115.783C322.717 116.179 322.579 116.623 322.558 117.078C322.558 117.908 323.183 118.215 323.955 117.828C324.365 117.579 324.706 117.242 324.949 116.847C325.192 116.451 325.33 116.008 325.353 115.553C325.353 114.723 324.727 114.37 323.955 114.803Z" fill="#BA68C8"/>
<path d="M337.845 122.492C337.436 122.743 337.096 123.079 336.854 123.475C336.611 123.87 336.472 124.312 336.447 124.767C336.447 125.597 337.072 125.904 337.845 125.517C338.254 125.266 338.593 124.93 338.836 124.535C339.079 124.139 339.218 123.697 339.242 123.243C339.267 122.424 338.642 122.082 337.845 122.492Z" fill="#BA68C8"/>
<path d="M351.783 109.31C351.374 109.561 351.035 109.897 350.792 110.293C350.549 110.688 350.41 111.13 350.386 111.585C350.386 112.415 351.011 112.722 351.783 112.335C352.193 112.086 352.534 111.749 352.777 111.354C353.02 110.958 353.158 110.515 353.181 110.06C353.181 109.241 352.556 108.9 351.783 109.31Z" fill="#BA68C8"/>
<path d="M365.697 117.783C365.286 118.032 364.945 118.368 364.702 118.764C364.459 119.159 364.321 119.603 364.3 120.058C364.3 120.888 364.925 121.195 365.697 120.809C366.108 120.56 366.449 120.223 366.692 119.828C366.935 119.432 367.073 118.989 367.095 118.534C367.095 117.783 366.47 117.408 365.697 117.783Z" fill="#BA68C8"/>
<path d="M379.611 86.0382C379.2 86.2871 378.859 86.6233 378.616 87.0189C378.373 87.4145 378.235 87.8581 378.214 88.3131C378.214 89.1434 378.839 89.4505 379.611 89.0638C380.022 88.8142 380.362 88.4778 380.605 88.0824C380.848 87.6869 380.986 87.2436 381.009 86.7889C381.009 85.9358 380.384 85.6174 379.611 86.0382Z" fill="#BA68C8"/>
<path d="M393.525 92.6581C393.115 92.907 392.773 93.2432 392.53 93.6388C392.287 94.0344 392.149 94.478 392.128 94.9329C392.128 95.7632 392.753 96.0703 393.525 95.6836C393.936 95.4347 394.278 95.0985 394.521 94.7029C394.764 94.3073 394.902 93.8637 394.923 93.4088C394.923 92.5784 394.298 92.2372 393.525 92.6581Z" fill="#BA68C8"/>
<path d="M438.209 244.252L413.52 257.481L438.209 270.709L462.899 257.481L438.209 244.252Z" fill="#455A64"/>
<path d="M462.899 257.458V310.064L438.209 323.292V270.72L462.899 257.458Z" fill="#37474F"/>
<path d="M438.209 270.72V323.292L413.52 310.064V257.458L438.209 270.72Z" fill="#263238"/>
<path d="M405.724 284.471L381.034 297.699L405.724 310.928L430.413 297.699L405.724 284.471Z" fill="#BA68C8"/>
<path opacity="0.3" d="M405.724 284.471L381.034 297.699L405.724 310.928L430.413 297.699L405.724 284.471Z" fill="white"/>
<path d="M430.413 297.665V327.466L405.724 340.694V310.927L430.413 297.665Z" fill="#BA68C8"/>
<path d="M405.724 310.928V340.694L381.034 327.466V297.677L405.724 310.928Z" fill="#BA68C8"/>
<path opacity="0.1" d="M405.724 310.928V340.694L381.034 327.466V297.677L405.724 310.928Z" fill="black"/>
<path d="M373.236 289.499L348.547 302.727L373.236 315.955L397.926 302.727L373.236 289.499Z" fill="#BA68C8"/>
<path opacity="0.88" d="M373.236 289.499L348.547 302.727L373.236 315.955L397.926 302.727L373.236 289.499Z" fill="white"/>
<path d="M397.926 302.704V344.869L373.236 358.097V315.955L397.926 302.704Z" fill="#BA68C8"/>
<path opacity="0.75" d="M397.926 302.704V344.869L373.236 358.097V315.955L397.926 302.704Z" fill="white"/>
<path d="M373.236 315.955V358.097L348.547 344.869V302.704L373.236 315.955Z" fill="#BA68C8"/>
<path opacity="0.6" d="M373.236 315.955V358.097L348.547 344.869V302.704L373.236 315.955Z" fill="white"/>
<path d="M340.75 334.176L316.061 347.405L340.75 360.633L365.44 347.405L340.75 334.176Z" fill="#BA68C8"/>
<path opacity="0.3" d="M340.75 334.176L316.061 347.405L340.75 360.633L365.44 347.405L340.75 334.176Z" fill="black"/>
<path d="M365.44 347.371V362.271L340.75 375.499V360.633L365.44 347.371Z" fill="#BA68C8"/>
<path opacity="0.4" d="M365.44 347.371V362.271L340.75 375.499V360.633L365.44 347.371Z" fill="black"/>
<path d="M340.75 360.633V375.499L316.061 362.271V347.371L340.75 360.633Z" fill="#BA68C8"/>
<path opacity="0.55" d="M340.75 360.633V375.499L316.061 362.271V347.371L340.75 360.633Z" fill="black"/>
<path d="M206.245 426.706V435.384L197.014 412.101V403.445L206.245 426.706Z" fill="#263238"/>
<path d="M206.257 426.717V435.384L244.333 423.123V414.456L206.257 426.717Z" fill="#37474F"/>
<path d="M197.014 403.434L206.257 426.717L244.333 414.455C233.876 405.993 215.696 401.762 197.014 403.434Z" fill="#455A64"/>
<path d="M157.233 428.298C157.227 428.385 157.227 428.473 157.233 428.56V428.298Z" fill="#BA68C8"/>
<path d="M202.456 437.648L196.866 462.33C173.782 460.237 157.098 449.409 157.294 437.022V428.583C157.294 440.867 173.929 451.593 196.878 453.663L200.752 436.704L202.456 437.648Z" fill="#BA68C8"/>
<path opacity="0.4" d="M202.456 437.648L196.866 462.33C173.782 460.237 157.098 449.409 157.294 437.022V428.583C157.294 440.867 173.929 451.593 196.878 453.663L200.752 436.704L202.456 437.648Z" fill="black"/>
<path d="M201.132 453.947V462.615C210.661 463.112 220.204 461.888 229.229 459.009C240.115 455.506 247.802 449.91 250.879 443.347C251.781 441.437 252.265 439.38 252.301 437.295C252.301 436.465 252.301 428.332 252.301 428.332C252.301 428.332 249.665 428.139 246.576 425.091L239.441 427.366L206.795 437.876L201.132 453.947Z" fill="#BA68C8"/>
<path opacity="0.6" d="M201.132 453.947V462.615C210.661 463.112 220.204 461.888 229.229 459.009C240.115 455.506 247.802 449.91 250.879 443.347C251.781 441.437 252.265 439.38 252.301 437.295C252.301 436.465 252.301 428.332 252.301 428.332C252.301 428.332 249.665 428.139 246.576 425.091L239.441 427.366L206.795 437.876L201.132 453.947Z" fill="white"/>
<path d="M172.717 418.415L201.084 433.611V424.944L172.717 409.748V418.415Z" fill="#BA68C8"/>
<path opacity="0.1" d="M172.717 418.415L201.084 433.611V424.944L172.717 409.748V418.415Z" fill="black"/>
<path d="M157.638 425.455C154.537 439.001 171.993 451.411 196.867 453.663L202.518 428.981L169.689 411.396C162.775 415.388 158.864 419.995 157.638 425.455Z" fill="#BA68C8"/>
<path opacity="0.3" d="M157.638 425.455C154.537 439.001 171.993 451.411 196.867 453.663L202.518 428.981L169.689 411.396C162.775 415.388 158.864 419.995 157.638 425.455Z" fill="black"/>
<path d="M201.291 453.231L201.132 453.947C210.658 454.46 220.2 453.251 229.229 450.387C240.115 446.884 247.802 441.288 250.879 434.725C253.772 428.503 252.24 422.065 246.576 416.526L239.441 418.801L206.795 429.311L201.291 453.231Z" fill="#BA68C8"/>
<path opacity="0.75" d="M201.291 453.231L201.132 453.947C210.658 454.46 220.2 453.251 229.229 450.387C240.115 446.884 247.802 441.288 250.879 434.725C253.772 428.503 252.24 422.065 246.576 416.526L239.441 418.801L206.795 429.311L201.291 453.231Z" fill="white"/>
<path d="M172.717 409.746L201.084 424.942L192.748 403.923C185.745 404.719 178.957 406.693 172.717 409.746Z" fill="#BA68C8"/>
<path d="M202.457 437.648V428.98L196.793 453.663V462.33L202.457 437.648Z" fill="#BA68C8"/>
<path opacity="0.55" d="M202.457 437.648V428.98L196.793 453.663V462.33L202.457 437.648Z" fill="black"/>
<path d="M238.645 390.434L232.467 393.744L238.645 397.054L244.824 393.744L238.645 390.434Z" fill="#BA68C8"/>
<path opacity="0.3" d="M238.645 390.434L232.467 393.744L238.645 397.054L244.824 393.744L238.645 390.434Z" fill="black"/>
<path d="M244.824 393.744V397.065L238.646 400.375V397.054L244.824 393.744Z" fill="#BA68C8"/>
<path opacity="0.4" d="M244.824 393.744V397.065L238.646 400.375V397.054L244.824 393.744Z" fill="black"/>
<path d="M238.645 397.054V400.375L232.467 397.065V393.744L238.645 397.054Z" fill="#BA68C8"/>
<path opacity="0.55" d="M238.645 397.054V400.375L232.467 397.065V393.744L238.645 397.054Z" fill="black"/>
<path d="M248.084 387.863L270.984 375.601C271.72 375.239 272.537 375.043 273.37 375.03C274.203 375.016 275.028 375.184 275.777 375.522C277.003 376.204 277.003 377.353 275.618 378.092L252.718 390.354C251.981 390.713 251.164 390.908 250.332 390.922C249.499 390.935 248.675 390.768 247.925 390.433C246.65 389.751 246.711 388.602 248.084 387.863Z" fill="#E0E0E0"/>
<path d="M252.571 397.895L246.393 401.204L252.571 404.514L258.75 401.204L252.571 397.895Z" fill="#BA68C8"/>
<path opacity="0.88" d="M252.571 397.895L246.393 401.204L252.571 404.514L258.75 401.204L252.571 397.895Z" fill="white"/>
<path d="M258.75 401.193V404.515L252.571 407.825V404.515L258.75 401.193Z" fill="#BA68C8"/>
<path opacity="0.75" d="M258.75 401.193V404.515L252.571 407.825V404.515L258.75 401.193Z" fill="white"/>
<path d="M252.571 404.515V407.825L246.393 404.515V401.193L252.571 404.515Z" fill="#BA68C8"/>
<path opacity="0.6" d="M252.571 404.515V407.825L246.393 404.515V401.193L252.571 404.515Z" fill="white"/>
<path d="M262.01 395.313L284.898 383.052C285.633 382.688 286.45 382.49 287.283 382.474C288.116 382.458 288.941 382.625 289.691 382.961C290.978 383.655 290.917 384.803 289.544 385.531L266.644 397.816C265.907 398.175 265.09 398.369 264.258 398.383C263.425 398.397 262.601 398.23 261.851 397.895C260.613 397.201 260.613 396.053 262.01 395.313Z" fill="#E0E0E0"/>
<path d="M266.485 405.356L260.307 408.666L266.497 411.976L272.676 408.666L266.485 405.356Z" fill="#BA68C8"/>
<path opacity="0.3" d="M266.485 405.356L260.307 408.666L266.497 411.976L272.676 408.666L266.485 405.356Z" fill="white"/>
<path d="M272.676 408.655V411.976L266.497 415.286V411.976L272.676 408.655Z" fill="#BA68C8"/>
<path d="M266.497 411.976V415.286L260.307 411.976V408.655L266.497 411.976Z" fill="#BA68C8"/>
<path opacity="0.1" d="M266.497 411.976V415.286L260.307 411.976V408.655L266.497 411.976Z" fill="black"/>
<path d="M275.925 402.786L298.824 390.513C299.561 390.154 300.379 389.959 301.211 389.946C302.043 389.932 302.867 390.099 303.618 390.434C304.905 391.128 304.844 392.276 303.471 393.004L280.571 405.266C279.836 405.63 279.019 405.828 278.186 405.843C277.353 405.859 276.528 405.692 275.778 405.357C274.49 404.663 274.564 403.514 275.925 402.786Z" fill="#E0E0E0"/>
<path d="M280.411 412.807L274.232 416.117L280.411 419.426L286.589 416.117L280.411 412.807Z" fill="#455A64"/>
<path d="M286.59 416.116V419.437L280.411 422.747V419.426L286.59 416.116Z" fill="#37474F"/>
<path d="M280.411 419.426V422.747L274.232 419.437V416.116L280.411 419.426Z" fill="#263238"/>
<path d="M289.85 410.248L312.75 397.975C313.487 397.615 314.304 397.421 315.137 397.407C315.969 397.393 316.793 397.56 317.544 397.895C318.831 398.578 318.769 399.726 317.384 400.466L294.497 412.727C293.761 413.089 292.943 413.285 292.11 413.299C291.277 413.313 290.453 413.144 289.703 412.807C288.416 412.124 288.49 410.976 289.85 410.248Z" fill="#E0E0E0"/>
<path d="M474.202 233.208C482.698 233.208 486.731 235.483 489.796 242.967C492.86 250.451 500.963 267.82 501.123 272.961C501.294 278.296 482.734 294.47 483.445 294.197C483.642 294.106 477.794 284.392 477.794 284.392L488.214 272.552L482.244 256.48L474.202 233.208Z" fill="#FFA8A7"/>
<path d="M484.72 409.928C485.247 410.394 485.345 410.838 485.32 412.521C485.296 414.205 486.068 416.081 485.136 417.651C484.45 418.788 480.895 419.63 479.093 418.788C477.522 417.834 476.117 416.665 474.925 415.319C473.804 414.133 472.573 413.041 471.247 412.055C469.715 410.997 467.937 410.292 466.343 409.325C465.094 408.574 464.045 407.57 463.276 406.388C462.507 405.205 462.039 403.876 461.906 402.5C461.803 401.603 461.999 400.697 462.47 399.907C462.851 399.483 463.353 399.167 463.919 398.994C464.484 398.821 465.091 398.798 465.669 398.929C467.398 399.191 473.257 402.227 474.606 403.092C476.371 404.161 484.18 409.45 484.72 409.928Z" fill="#263238"/>
<path d="M476.114 402.966C476.053 404.172 470.573 401.351 468.33 401.624H468.268C466.172 402.557 467.913 405.275 469.85 406.663C471.787 408.051 478.137 412.35 478.137 412.35L479.436 405.378L476.114 402.966Z" fill="#FFA8A7"/>
<path d="M452.332 422.61C453.35 422.61 453.803 425.704 454 428.081C454.134 429.924 454.895 432.938 454.183 434.291C453.472 435.645 450.812 436.486 446.681 436.407C443.996 436.407 439.804 437.988 436.935 439.432C434.047 440.722 430.784 441.102 427.643 440.513C423.965 440.069 420.189 438.045 419.613 436.634C419.037 435.224 419.822 434.541 428.525 431.22C428.611 431.22 437.72 427.501 442.01 423.258L452.332 422.61Z" fill="#263238"/>
<path d="M428.561 431.22C427.335 431.675 426.318 432.085 425.398 432.449C425.165 433.211 425.484 434.428 429.333 435.019C435.193 435.929 452.429 423.884 452.429 423.884C452.429 423.884 449.978 424.521 449.499 423.213H442.009C437.719 427.501 428.561 431.186 428.561 431.22Z" fill="#FFA8A7"/>
<path d="M488.213 370.369C488.304 365.067 487.737 359.774 486.522 354.593C486.522 354.593 487.551 334.279 487.662 321.517C487.895 296.266 487.38 292.558 481.361 281.707C481.361 281.707 446.214 277.897 444.731 293.787C442.892 313.578 440.747 346.688 440.796 356.117C440.796 363.135 441.703 370.744 442.12 386.657C442.389 396.893 443.542 411.247 441.973 423.304C443.959 426.398 449.328 426.341 452.393 423.93C453.275 412.123 459.601 389.511 460.582 381.629C461.113 375.935 460.858 370.202 459.822 364.568C459.822 364.568 464.48 330.855 465.301 325.725C466.494 331.15 467.175 336.661 467.336 342.195C467.336 344.47 468.17 351.943 469.555 364.568C470.401 372.257 476.261 402.307 477.536 411.964C480.478 414.603 484.278 412.783 484.45 411.645C485.431 399.862 488.213 377.728 488.213 370.369Z" fill="#FFA8A7"/>
<path opacity="0.15" d="M465.338 325.691L468.439 309.323C473.73 308.565 478.599 306.196 482.28 302.59C482.28 302.59 480.416 309.13 471.247 311.359L467.569 326.146L466.956 339.647L465.338 325.691Z" fill="black"/>
<path d="M456.487 227.714L457.946 242.546L471.995 241.761L470.916 225.303L456.487 227.714Z" fill="#FFA8A7"/>
<path d="M484.683 285.655C483.072 281.708 481.018 277.93 478.553 274.383C484.56 256.434 486.485 250.395 485.32 242.717C484.572 237.837 480.417 232.958 475.317 233.22H471.467C471.247 236.632 461.06 236.78 457.198 234.437L453.631 234.528C451.118 235.358 442.598 247.039 441.617 254.717C440.845 260.984 446.153 266.421 446.153 266.421C446.172 269.082 446.004 271.742 445.65 274.383C445.65 274.383 445.65 289.568 445.65 297.132C445.65 297.132 447.624 302.955 468.243 301.135C486.632 299.52 487.024 293.708 487.024 293.708C486.585 290.948 485.799 288.245 484.683 285.655Z" fill="#BA68C8"/>
<g opacity="0.3">
<path d="M484.684 285.655C483.073 281.708 481.019 277.93 478.554 274.383C484.561 256.434 486.486 250.395 485.321 242.717C484.573 237.837 480.417 232.958 475.318 233.22H471.468C471.248 236.632 461.061 236.78 457.199 234.437L453.632 234.528C451.119 235.358 442.599 247.039 441.618 254.717C440.845 260.984 446.154 266.421 446.154 266.421C446.173 269.082 446.005 271.742 445.651 274.383C445.651 274.383 445.651 289.568 445.651 297.132C445.651 297.132 447.625 302.955 468.244 301.135C486.633 299.52 487.025 293.708 487.025 293.708C486.586 290.948 485.8 288.245 484.684 285.655Z" fill="black"/>
</g>
<path d="M458.608 193.001C456.535 192.748 454.428 192.962 452.463 193.623C450.498 194.284 448.733 195.374 447.317 196.8C440.133 204.307 448.016 209.835 448.016 209.835L458.608 193.001Z" fill="#263238"/>
<path d="M446.116 211.403C446.116 211.403 442.99 215.76 443.395 216.226C444.12 216.673 444.925 216.996 445.773 217.181L446.116 211.403Z" fill="#F28F8F"/>
<path d="M455.654 197.607C452.626 199.052 447.391 201.713 446.018 212.041C444.608 222.653 447.146 226.338 448.703 227.738C449.745 228.682 455.176 229.034 458.008 228.227C461.563 227.214 469.249 223.677 472.853 218.24C477.107 211.814 478.014 203.226 473.135 199.848C466.27 195.127 458.216 196.39 455.654 197.607Z" fill="#FFA8A7"/>
<path d="M454.146 209.812C447.808 206.82 449.426 199.018 449.426 199.018C449.426 199.018 458.473 187.018 475.17 194.775C480.944 197.459 484.413 203.556 484.279 210.699C484.279 215.158 482.37 219.433 478.972 222.586C475.574 225.739 470.965 227.51 466.16 227.51C463.357 227.51 460.669 226.477 458.688 224.638C456.706 222.8 455.593 220.306 455.593 217.705V217.057L456.132 217.216C456.994 217.405 457.893 217.393 458.749 217.181C459.605 216.969 460.39 216.563 461.036 215.999C463.818 213.724 464.149 209.414 460.631 208.322C457.113 207.23 455.286 211.052 455.286 211.052L453.925 214.464C453.597 214.353 453.295 214.184 453.037 213.965C452.78 213.746 452.571 213.483 452.423 213.189C452.275 212.895 452.191 212.578 452.175 212.254C452.159 211.93 452.213 211.606 452.332 211.302C452.48 210.935 452.723 210.607 453.039 210.347C453.356 210.088 453.736 209.904 454.146 209.812Z" fill="#263238"/>
<path d="M415.837 212.2L385.704 226.202L399.875 264.09L428.022 250.031L415.837 212.2Z" fill="#BA68C8"/>
<path d="M414.402 215.863L389.124 227.612L401.677 260.2L425.288 248.405L414.402 215.863Z" fill="#F5F5F5"/>
<path opacity="0.15" d="M409.057 219.275L408.591 218.137C408.334 217.5 406.238 217.853 403.908 218.922L399.458 220.958C397.141 222.027 395.462 223.415 395.719 224.063L396.185 225.201L409.057 219.275Z" fill="black"/>
<path d="M408.653 214.668C408.493 214.258 407.586 214.315 406.618 214.782L404.877 215.612C404.877 215.612 403.859 213.11 399.851 214.77C395.842 216.431 396.7 219.32 396.7 219.32L394.849 220.23C393.831 220.73 393.096 221.47 393.206 221.868L393.415 222.607L408.947 215.407L408.653 214.668Z" fill="#37474F"/>
<path d="M406.961 216.306C405.514 216.943 404.951 217.25 405.343 218.239C405.735 219.229 406.213 220.173 406.213 220.173L399.348 223.369C399.348 223.369 398.809 221.936 398.564 221.39C398.318 220.844 397.84 220.56 396.749 221.072L396.345 220.662L407.182 215.76L406.961 216.306Z" fill="#263238"/>
<path d="M409.339 219.342L408.885 218.205C408.628 217.568 406.532 217.909 404.203 218.979L399.752 221.026C397.423 222.095 395.756 223.483 396.014 224.12L396.467 225.257L409.339 219.342Z" fill="#37474F"/>
<path d="M453.594 234.527C448.85 234.459 445.982 234.846 439.509 243.763C433.036 252.681 421.022 269.06 419.625 271.232C417.663 274.189 417.173 278.728 418.816 281.469C420.299 284.051 422.922 284.949 430.388 277.59C435.905 272.142 447.551 257.674 447.551 257.674C447.551 257.674 456.561 242.08 453.594 234.527Z" fill="#FFA8A7"/>
<path d="M421.758 283.368C417.847 284.506 403.492 268.65 399.508 263.884C396.302 259.914 392.533 256.363 388.303 253.329C382.774 249.405 383.694 243.524 386.231 238.167C387.114 236.302 389.909 237.564 389.909 237.564L390.877 240.146L392.545 244.616C393.709 245.651 394.383 245.992 394.457 245.685C394.616 245.117 393.648 242.717 393.709 240.226C393.795 237.234 396.026 239.236 396.676 240.294C397.57 241.904 398.336 243.573 398.968 245.287C400.047 247.983 399.532 250.679 400.881 252.533C402.229 254.387 421.721 269.401 421.721 269.401L421.758 283.368Z" fill="#FFA8A7"/>
<path d="M478.603 274.382C478.603 274.382 464.861 281.912 445.614 274.382C443.898 283.75 442.731 293.197 442.12 302.682C441.434 314.761 439.926 340.683 439.926 340.683C439.926 340.683 445.602 346.836 465.878 345.585C485.37 344.448 488.802 339.671 488.802 339.671C488.802 339.671 488.802 316.388 488.949 306.208C489.084 293.195 487.123 286.121 478.603 274.382Z" fill="#BA68C8"/>
<path opacity="0.5" d="M478.603 274.382C478.603 274.382 464.861 281.912 445.614 274.382C443.898 283.75 442.731 293.197 442.12 302.682C441.434 314.761 439.926 340.683 439.926 340.683C439.926 340.683 445.602 346.836 465.878 345.585C485.37 344.448 488.802 339.671 488.802 339.671C488.802 339.671 488.802 316.388 488.949 306.208C489.084 293.195 487.123 286.121 478.603 274.382Z" fill="black"/>
<path d="M484.953 205.694L488.177 202.965C487.744 202.532 487.167 202.248 486.538 202.159C485.909 202.07 485.266 202.18 484.714 202.473C484.161 202.765 483.732 203.223 483.495 203.77C483.258 204.318 483.227 204.924 483.409 205.49C483.016 205.49 482.612 205.433 482.183 205.433V229.41C482.183 232.718 483.595 235.892 486.111 238.237C488.626 240.582 492.04 241.906 495.606 241.921V217.876C495.594 215.023 494.53 212.259 492.593 210.044C490.655 207.828 487.96 206.293 484.953 205.694Z" fill="#263238"/>
</svg>
